<svg width="75" height="59" viewBox="0 0 75 59" fill="none" xmlns="http://www.w3.org/2000/svg">
<path d="M64.3026 12.7443C57.0473 2.51376 41.1088 -2.44121 30.4396 1.17975C25.0865 2.99657 20.924 6.79897 16.4485 10.0281C11.8372 13.355 6.56161 16.3899 4.34166 21.6444C2.58945 25.7919 3.23443 30.7353 5.75561 34.9847C8.62364 39.8186 13.6204 42.9716 17.8454 46.5794C20.7841 49.089 23.4729 51.879 26.6208 54.145C33.7537 59.2798 42.4262 60.1552 49.8534 57.465C56.1481 55.1848 57.0104 50.0937 58.4814 44.2086C60.292 36.964 65.0971 31.1257 66.6687 23.8689C67.472 20.1591 66.7233 16.1578 64.3026 12.7443Z" fill="#FFBC0A"/>
<g opacity="0.199997">
<path opacity="0.199997" d="M55.2256 45.7834H62.2129V42.9553H55.2256V45.7834Z" fill="#0A1045"/>
</g>
<g opacity="0.199997">
<path opacity="0.199997" d="M10.481 59.0001H17.4683V56.1719H10.481V59.0001Z" fill="#0A1045"/>
</g>
<g opacity="0.199997">
<path opacity="0.199997" d="M0 39.1196H6.9873V36.2914H0V39.1196Z" fill="#0A1045"/>
</g>
<g opacity="0.199997">
<path opacity="0.199997" d="M52.5637 35.7184H59.551V32.8902H52.5637V35.7184Z" fill="#0A1045"/>
</g>
<g opacity="0.199997">
<path opacity="0.199997" d="M58.061 19.4054H65.0483V16.5772H58.061V19.4054Z" fill="#0A1045"/>
</g>
<g opacity="0.199997">
<path opacity="0.199997" d="M32.1082 22.899H39.0955V20.0709H32.1082V22.899Z" fill="#0A1045"/>
</g>
<g opacity="0.199997">
<path opacity="0.199997" d="M32.6074 46.8555H39.5947V44.0273H32.6074V46.8555Z" fill="#0A1045"/>
</g>
<g opacity="0.199997">
<path opacity="0.199997" d="M24.6218 46.8555H31.6091V44.0273H24.6218V46.8555Z" fill="#0A1045"/>
</g>
<g opacity="0.199997">
<path opacity="0.199997" d="M4.6582 23.5645H11.6455V20.7363H4.6582V23.5645Z" fill="#0A1045"/>
</g>
<g opacity="0.199997">
<path opacity="0.199997" d="M12.4773 23.5645H19.4646V20.7363H12.4773V23.5645Z" fill="#0A1045"/>
</g>
<g opacity="0.199997">
<path opacity="0.199997" d="M40.9255 22.899H47.9128V20.0709H40.9255V22.899Z" fill="#0A1045"/>
</g>
<g opacity="0.100006">
<path opacity="0.100006" d="M48.7375 39.628H55.7248V36.7998H48.7375V39.628Z" fill="#0A1045"/>
</g>
<g opacity="0.100006">
<path opacity="0.100006" d="M56.7229 39.628H63.7102V36.7998H56.7229V39.628Z" fill="#0A1045"/>
</g>
<g opacity="0.100006">
<path opacity="0.100006" d="M9.64917 19.8213H16.6365V16.9931H9.64917V19.8213Z" fill="#0A1045"/>
</g>
<g opacity="0.100006">
<path opacity="0.100006" d="M2.3291 13.9986H9.3164V11.1704H2.3291V13.9986Z" fill="#0A1045"/>
</g>
<g opacity="0.100006">
<path opacity="0.100006" d="M67.0447 19.4886H74.032V16.6604H67.0447V19.4886Z" fill="#0A1045"/>
</g>
<g opacity="0.100006">
<path opacity="0.100006" d="M62.3865 24.3131H69.3738V21.4849H62.3865V24.3131Z" fill="#0A1045"/>
</g>
<g opacity="0.100006">
<path opacity="0.100006" d="M36.4336 19.4886H43.4209V16.6604H36.4336V19.4886Z" fill="#0A1045"/>
</g>
<g opacity="0.100006">
<path opacity="0.100006" d="M29.7791 43.5282H36.7664V40.7H29.7791V43.5282Z" fill="#0A1045"/>
</g>
<g opacity="0.100006">
<path opacity="0.100006" d="M25.4539 51.6801H32.4412V48.8519H25.4539V51.6801Z" fill="#0A1045"/>
</g>
<g opacity="0.100006">
<path opacity="0.100006" d="M32.2747 58.6674H39.262V55.8392H32.2747V58.6674Z" fill="#0A1045"/>
</g>
<g opacity="0.100006">
<path opacity="0.100006" d="M3.32715 43.5282H10.3144V40.7H3.32715V43.5282Z" fill="#0A1045"/>
</g>
<g opacity="0.199997">
<path opacity="0.199997" d="M54.4934 4.51099H61.4807V1.68279H54.4934V4.51099Z" fill="#0A1045"/>
</g>
<g opacity="0.100006">
<path opacity="0.100006" d="M57.8206 8.91965H64.8079V6.09146H57.8206V8.91965Z" fill="#0A1045"/>
</g>
<g opacity="0.100006">
<path opacity="0.100006" d="M0.16626 51.6801H7.15356V48.8519H0.16626V51.6801Z" fill="#0A1045"/>
</g>
<g opacity="0.199997">
<path opacity="0.199997" d="M41.4175 45.7834H48.4048V42.9553H41.4175V45.7834Z" fill="#0A1045"/>
</g>
<path d="M62.7947 53.0367H9.94873V21.1053H62.7947V53.0367Z" fill="white" stroke="#0A1045" stroke-width="1.33333" stroke-miterlimit="10"/>
<path d="M9.94897 53.0367L30.4897 33.6163" stroke="#0A1045" stroke-width="1.33333" stroke-miterlimit="10"/>
<path d="M62.675 53.0367L42.134 33.6163" stroke="#0A1045" stroke-width="1.33333" stroke-miterlimit="10"/>
<path d="M36.3719 3.20156L9.94897 21.1053L36.3719 37.071L62.7947 21.1053L36.3719 3.20156Z" fill="#FFBC0A"/>
<path d="M36.3719 3.20156L9.94897 21.1053L36.3719 37.071L62.7947 21.1053L36.3719 3.20156Z" stroke="#0A1045" stroke-width="1.33333" stroke-miterlimit="10"/>
<path d="M36.3719 37.071L58.4998 23.7005V11.5817H14.804V24.0389L36.3719 37.071Z" fill="white"/>
<path d="M36.3719 37.071L58.4998 23.7005V11.5817H14.804V24.0389L36.3719 37.071Z" stroke="#0A1045" stroke-width="1.33333" stroke-miterlimit="10"/>
<path d="M21.4331 16.6235H51.8708" stroke="#0A1045" stroke-width="1.33333" stroke-miterlimit="10"/>
<path d="M21.4331 20.545H51.8708" stroke="#0A1045" stroke-width="1.33333" stroke-miterlimit="10"/>
<path d="M21.4331 24.4664H51.8708" stroke="#0A1045" stroke-width="1.33333" stroke-miterlimit="10"/>
</svg>
