<svg width="336" height="372" viewBox="0 0 336 372" fill="none" xmlns="http://www.w3.org/2000/svg">
<g opacity="0.699997">
<g opacity="0.699997">
<path opacity="0.699997" d="M30.9337 142.806C30.9337 142.806 9.9862 196.899 39.4226 251.389C68.8583 305.88 129.503 334.649 178.038 359.256C226.572 383.862 276.971 371.879 300.921 331.575C324.871 291.27 292.021 262.497 291.982 205.02C291.943 147.544 300.583 132.326 269.467 83.7669C238.35 35.2082 161.968 24.4605 104.229 60.4756C46.4875 96.4908 30.9337 142.806 30.9337 142.806Z" fill="white"/>
</g>
</g>
<path d="M154.755 0.882812C249.222 -7.53635 249.382 45.7977 291.946 95.4842C334.51 145.171 343.619 167.698 327.574 224.975C311.528 282.251 257.456 327.152 190.566 301.711C123.675 276.271 85.3563 300.701 43.1644 278.111C0.97335 255.519 -14.6938 211.872 16.1896 160.431C47.0723 108.991 38.2733 11.2637 154.755 0.882812Z" fill="#FFF4D6"/>
<path d="M177.37 82.0807L162.038 85.3095C159.97 85.7446 157.942 84.4221 157.506 82.3549L154.278 67.0228C153.842 64.9556 155.165 62.9268 157.232 62.4917L172.564 59.2628C174.632 58.827 176.66 60.1495 177.096 62.2167L180.325 77.5496C180.76 79.6167 179.438 81.6448 177.37 82.0807Z" stroke="#0A1045" stroke-width="1.33333" stroke-miterlimit="10" stroke-linecap="round" stroke-linejoin="round"/>
<path d="M166.322 67.6337L168.281 76.9386" stroke="#0A1045" stroke-width="1.33333" stroke-miterlimit="10" stroke-linecap="round" stroke-linejoin="round"/>
<path d="M171.954 71.3064L162.649 73.2654" stroke="#0A1045" stroke-width="1.33333" stroke-miterlimit="10" stroke-linecap="round" stroke-linejoin="round"/>
<path d="M331.919 245.991L316.586 249.221C314.519 249.656 312.49 248.333 312.055 246.266L308.826 230.933C308.39 228.866 309.713 226.837 311.78 226.402L327.112 223.173C329.18 222.738 331.208 224.06 331.644 226.127L334.873 241.46C335.308 243.527 333.986 245.556 331.919 245.991Z" stroke="#0A1045" stroke-width="1.33333" stroke-miterlimit="10" stroke-linecap="round" stroke-linejoin="round"/>
<path d="M324.446 232.215L319.252 240.18" stroke="#0A1045" stroke-width="1.33333" stroke-miterlimit="10" stroke-linecap="round" stroke-linejoin="round"/>
<path d="M325.832 238.794L317.867 233.6" stroke="#0A1045" stroke-width="1.33333" stroke-miterlimit="10" stroke-linecap="round" stroke-linejoin="round"/>
<path d="M119.259 345.428L103.616 344.525C101.507 344.403 99.896 342.594 100.018 340.486L100.921 324.842C101.043 322.734 102.851 321.123 104.96 321.245L120.602 322.148C122.712 322.269 124.323 324.078 124.201 326.187L123.298 341.83C123.176 343.939 121.367 345.549 119.259 345.428Z" stroke="#0A1045" stroke-width="1.33333" stroke-miterlimit="10" stroke-linecap="round" stroke-linejoin="round"/>
<path d="M116.856 333.61L107.363 333.062" stroke="#0A1045" stroke-width="1.33333" stroke-miterlimit="10" stroke-linecap="round" stroke-linejoin="round"/>
<path d="M19.3032 236.07L4.42942 231.142C2.42386 230.479 1.33654 228.314 2.00156 226.309L6.92866 211.435C7.59292 209.43 9.75704 208.342 11.7626 209.007L26.6363 213.934C28.6419 214.599 29.7292 216.763 29.0642 218.768L24.1371 233.642C23.4728 235.648 21.308 236.734 19.3032 236.07Z" stroke="#0A1045" stroke-width="1.33333" stroke-miterlimit="10" stroke-linecap="round" stroke-linejoin="round"/>
<path d="M21.4806 219.55L9.58472 225.526" stroke="#0A1045" stroke-width="1.33333" stroke-miterlimit="10" stroke-linecap="round" stroke-linejoin="round"/>
<path d="M14.6547 217.093C15.0665 217.912 14.7359 218.91 13.9168 219.322C13.0978 219.733 12.0999 219.402 11.6889 218.583C11.2771 217.764 11.6077 216.766 12.4268 216.355C13.2458 215.944 14.2437 216.274 14.6547 217.093Z" stroke="#0A1045" stroke-width="1.33333" stroke-miterlimit="10" stroke-linecap="round" stroke-linejoin="round"/>
<path d="M19.3769 226.494C19.7887 227.313 19.4581 228.31 18.639 228.722C17.82 229.133 16.8221 228.802 16.411 227.983C15.9992 227.165 16.3299 226.167 17.1489 225.756C17.968 225.344 18.9659 225.674 19.3769 226.494Z" stroke="#0A1045" stroke-width="1.33333" stroke-miterlimit="10" stroke-linecap="round" stroke-linejoin="round"/>
<path d="M173.531 318.417C169.188 324.707 160.562 326.277 154.272 321.934C151.845 320.251 150.124 317.936 149.162 315.367C147.652 311.271 148.088 306.53 150.755 302.667C152.619 299.977 155.264 298.151 158.172 297.287C162.064 296.115 166.423 296.671 170.022 299.158C176.311 303.502 177.882 312.128 173.531 318.417Z" fill="#FFD870"/>
<g opacity="0.300003">
<g opacity="0.300003">
<g opacity="0.300003">
<g opacity="0.699997">
<g opacity="0.699997">
<path opacity="0.699997" d="M171.726 317.167C168.068 322.459 160.813 323.783 155.521 320.124C150.23 316.465 148.906 309.21 152.565 303.919C156.223 298.627 163.478 297.303 168.769 300.962C174.061 304.62 175.385 311.875 171.726 317.167Z" fill="#0A1045"/>
</g>
</g>
</g>
</g>
</g>
<path d="M171.726 317.167C168.068 322.459 160.813 323.783 155.521 320.124C150.23 316.465 148.906 309.21 152.565 303.919C156.223 298.627 163.478 297.303 168.769 300.962C174.061 304.62 175.385 311.875 171.726 317.167Z" stroke="#0A1045" stroke-width="1.33333" stroke-miterlimit="10" stroke-linecap="round" stroke-linejoin="round"/>
<path d="M165.131 304.729L165.69 303.921L167.089 304.887L166.53 305.696C167.571 306.782 167.548 308.145 166.527 309.621L166.29 309.963L164.674 308.846L164.986 308.395C165.523 307.618 165.416 307.109 164.872 306.732C164.329 306.356 163.813 306.435 163.275 307.214C162.739 307.99 162.673 308.75 163.19 310.461C163.815 312.547 163.706 313.734 162.846 314.978C161.825 316.454 160.533 316.961 159.149 316.371L158.601 317.165L157.202 316.198L157.75 315.404C156.694 314.307 156.728 312.93 157.749 311.453L158.265 310.707L159.881 311.824L159.291 312.68C158.753 313.457 158.901 313.973 159.445 314.349C159.989 314.725 160.524 314.681 161.062 313.904C161.598 313.127 161.675 312.353 161.148 310.657C160.512 308.587 160.632 307.383 161.492 306.14C162.501 304.679 163.753 304.166 165.131 304.729Z" fill="#FFD870"/>
<path d="M165.131 304.729L165.69 303.921L167.089 304.887L166.53 305.696C167.571 306.782 167.548 308.145 166.527 309.621L166.29 309.963L164.674 308.846L164.986 308.395C165.523 307.618 165.416 307.109 164.872 306.732C164.329 306.356 163.813 306.435 163.275 307.214C162.739 307.99 162.673 308.75 163.19 310.461C163.815 312.547 163.706 313.734 162.846 314.978C161.825 316.454 160.533 316.961 159.149 316.371L158.601 317.165L157.202 316.198L157.75 315.404C156.694 314.307 156.728 312.93 157.749 311.453L158.265 310.707L159.881 311.824L159.291 312.68C158.753 313.457 158.901 313.973 159.445 314.349C159.989 314.725 160.524 314.681 161.062 313.904C161.598 313.127 161.675 312.353 161.148 310.657C160.512 308.587 160.632 307.383 161.492 306.14C162.501 304.679 163.753 304.166 165.131 304.729Z" stroke="#0A1045" stroke-width="1.33333" stroke-miterlimit="10" stroke-linecap="round" stroke-linejoin="round"/>
<g opacity="0.199997">
<g opacity="0.199997">
<g opacity="0.199997">
<g opacity="0.699997">
<g opacity="0.699997">
<path opacity="0.699997" d="M158.285 299.323C158.285 306.146 154.625 312.114 149.162 315.367C147.652 311.271 148.088 306.53 150.755 302.667C152.619 299.977 155.264 298.151 158.172 297.287C158.247 297.956 158.285 298.632 158.285 299.323Z" fill="#0A1045"/>
</g>
</g>
</g>
</g>
</g>
<path d="M173.531 318.417C169.188 324.707 160.562 326.277 154.272 321.934C151.845 320.251 150.124 317.936 149.162 315.367C147.652 311.271 148.088 306.53 150.755 302.667C152.619 299.977 155.264 298.151 158.172 297.287C162.064 296.115 166.423 296.671 170.022 299.158C176.311 303.502 177.882 312.128 173.531 318.417Z" stroke="#0A1045" stroke-width="1.33333" stroke-miterlimit="10" stroke-linecap="round" stroke-linejoin="round"/>
<path d="M156.222 298.893C156.222 306.541 150.023 312.739 142.377 312.739C134.731 312.739 128.532 306.541 128.532 298.893C128.532 291.247 134.731 285.048 142.377 285.048C150.023 285.048 156.222 291.247 156.222 298.893Z" fill="#FFD870"/>
<path d="M156.222 298.893C156.222 306.541 150.023 312.739 142.377 312.739C134.731 312.739 128.532 306.541 128.532 298.893C128.532 291.247 134.731 285.048 142.377 285.048C150.023 285.048 156.222 291.247 156.222 298.893Z" stroke="#0A1045" stroke-width="1.33333" stroke-miterlimit="10" stroke-linecap="round" stroke-linejoin="round"/>
<g opacity="0.300003">
<g opacity="0.300003">
<g opacity="0.300003">
<g opacity="0.699997">
<g opacity="0.699997">
<path opacity="0.699997" d="M154.025 298.893C154.025 305.327 148.81 310.542 142.377 310.542C135.944 310.542 130.729 305.327 130.729 298.893C130.729 292.46 135.944 287.246 142.377 287.246C148.81 287.246 154.025 292.46 154.025 298.893Z" fill="#0A1045"/>
</g>
</g>
</g>
</g>
</g>
<path d="M154.025 298.893C154.025 305.327 148.81 310.542 142.377 310.542C135.944 310.542 130.729 305.327 130.729 298.893C130.729 292.46 135.944 287.246 142.377 287.246C148.81 287.246 154.025 292.46 154.025 298.893Z" stroke="#0A1045" stroke-width="1.33333" stroke-miterlimit="10" stroke-linecap="round" stroke-linejoin="round"/>
<path d="M141.527 292.414V291.43H143.227V292.414C144.701 292.715 145.457 293.849 145.457 295.644V296.061H143.492V295.512C143.492 294.567 143.114 294.209 142.453 294.209C141.792 294.209 141.413 294.567 141.413 295.512C141.413 296.457 141.792 297.118 143.189 298.232C144.89 299.593 145.475 300.632 145.475 302.143C145.475 303.939 144.701 305.09 143.227 305.393V306.357H141.527V305.393C140.034 305.09 139.278 303.939 139.278 302.143V301.236H141.244V302.275C141.244 303.22 141.659 303.56 142.32 303.56C142.982 303.56 143.397 303.22 143.397 302.275C143.397 301.331 143.02 300.651 141.621 299.555C139.921 298.213 139.335 297.156 139.335 295.644C139.335 293.869 140.072 292.735 141.527 292.414Z" fill="#FFD870"/>
<path d="M141.527 292.414V291.43H143.227V292.414C144.701 292.715 145.457 293.849 145.457 295.644V296.061H143.492V295.512C143.492 294.567 143.114 294.209 142.453 294.209C141.792 294.209 141.413 294.567 141.413 295.512C141.413 296.457 141.792 297.118 143.189 298.232C144.89 299.593 145.475 300.632 145.475 302.143C145.475 303.939 144.701 305.09 143.227 305.393V306.357H141.527V305.393C140.034 305.09 139.278 303.939 139.278 302.143V301.236H141.244V302.275C141.244 303.22 141.659 303.56 142.32 303.56C142.982 303.56 143.397 303.22 143.397 302.275C143.397 301.331 143.02 300.651 141.621 299.555C139.921 298.213 139.335 297.156 139.335 295.644C139.335 293.869 140.072 292.735 141.527 292.414V292.414Z" stroke="#0A1045" stroke-width="1.33333" stroke-miterlimit="10" stroke-linecap="round" stroke-linejoin="round"/>
<path d="M218.583 293.641C223.787 299.243 223.463 308.004 217.86 313.207C212.257 318.411 203.497 318.087 198.294 312.484C193.09 306.882 193.414 298.122 199.017 292.918C204.619 287.714 213.379 288.038 218.583 293.641Z" fill="#FFD870"/>
<path d="M218.583 293.641C223.787 299.243 223.463 308.004 217.86 313.207C212.257 318.411 203.497 318.087 198.294 312.484C193.09 306.882 193.414 298.122 199.017 292.918C204.619 287.714 213.379 288.038 218.583 293.641Z" stroke="#0A1045" stroke-width="1.33333" stroke-miterlimit="10" stroke-linecap="round" stroke-linejoin="round"/>
<g opacity="0.300003">
<g opacity="0.300003">
<g opacity="0.300003">
<g opacity="0.699997">
<g opacity="0.699997">
<path opacity="0.699997" d="M216.973 295.136C221.351 299.849 221.079 307.219 216.365 311.597C211.652 315.975 204.281 315.703 199.904 310.989C195.526 306.275 195.798 298.905 200.512 294.528C205.225 290.15 212.595 290.423 216.973 295.136Z" fill="#0A1045"/>
</g>
</g>
</g>
</g>
</g>
<path d="M216.973 295.136C221.351 299.849 221.079 307.219 216.365 311.597C211.652 315.975 204.281 315.703 199.904 310.989C195.526 306.275 195.798 298.905 200.512 294.528C205.225 290.15 212.595 290.423 216.973 295.136Z" stroke="#0A1045" stroke-width="1.33333" stroke-miterlimit="10" stroke-linecap="round" stroke-linejoin="round"/>
<path d="M203.406 298.893L202.736 298.173L203.983 297.016L204.651 297.736C205.936 296.954 207.262 297.27 208.483 298.585L208.766 298.89L207.327 300.227L206.954 299.826C206.311 299.133 205.79 299.128 205.305 299.578C204.821 300.028 204.787 300.548 205.431 301.241C206.073 301.933 206.801 302.16 208.584 302.025C210.755 301.865 211.891 302.228 212.92 303.335C214.141 304.65 214.358 306.021 213.484 307.246L214.14 307.953L212.894 309.11L212.238 308.403C210.939 309.198 209.601 308.867 208.379 307.552L207.762 306.888L209.202 305.55L209.908 306.312C210.552 307.004 211.088 306.97 211.572 306.52C212.057 306.07 212.13 305.539 211.487 304.846C210.844 304.154 210.105 303.913 208.335 304.062C206.176 304.235 205.026 303.859 203.998 302.751C202.789 301.45 202.558 300.118 203.406 298.893Z" fill="#FFD870"/>
<path d="M203.406 298.893L202.736 298.173L203.983 297.016L204.651 297.736C205.936 296.954 207.262 297.27 208.483 298.585L208.766 298.89L207.327 300.227L206.954 299.826C206.311 299.133 205.79 299.128 205.305 299.578C204.821 300.028 204.787 300.548 205.431 301.241C206.073 301.933 206.801 302.16 208.584 302.025C210.755 301.865 211.891 302.228 212.92 303.335C214.141 304.65 214.358 306.021 213.484 307.246L214.14 307.953L212.894 309.11L212.238 308.403C210.939 309.198 209.601 308.867 208.379 307.552L207.762 306.888L209.202 305.55L209.908 306.312C210.552 307.004 211.088 306.97 211.572 306.52C212.057 306.07 212.13 305.539 211.487 304.846C210.844 304.154 210.105 303.913 208.335 304.062C206.176 304.235 205.026 303.859 203.998 302.751C202.789 301.45 202.558 300.118 203.406 298.893Z" stroke="#0A1045" stroke-width="1.33333" stroke-miterlimit="10" stroke-linecap="round" stroke-linejoin="round"/>
<g opacity="0.199997">
<g opacity="0.199997">
<g opacity="0.199997">
<g opacity="0.699997">
<g opacity="0.699997">
<path opacity="0.699997" d="M202.736 242.872C202.736 242.872 202.679 271.603 202.736 273.281C202.794 274.959 204.968 285.049 204.968 285.049L197.993 297.909L203.998 302.752L215.683 291.264C215.683 291.264 225.634 297.411 227.452 306.201C229.272 314.992 240.097 321.394 251.331 345.739C262.565 370.085 275.379 291.264 275.379 291.264L240.718 247.625L202.736 242.872Z" fill="#0A1045"/>
</g>
</g>
</g>
</g>
</g>
<path d="M308.705 88.4957L298.087 192.103L291.558 255.839L200.304 246.491L182.548 244.672L171.179 243.508L181.256 145.146L188.327 76.1648L308.705 88.4957Z" fill="white"/>
<path d="M273.744 92.3636L221.781 87.039C220.805 86.9391 219.934 87.6484 219.833 88.6238C219.733 89.5991 220.443 90.4708 221.418 90.5715L273.382 95.8961C274.357 95.996 275.23 95.2859 275.329 94.3106C275.429 93.3352 274.72 92.4636 273.744 92.3636Z" fill="#0A1045"/>
<path d="M260.009 98.291L234.027 95.6287C233.54 95.5784 233.104 95.9331 233.054 96.4215C233.005 96.9092 233.359 97.345 233.847 97.3946L259.828 100.057C260.316 100.107 260.752 99.7526 260.802 99.2641C260.852 98.7765 260.496 98.3406 260.009 98.291Z" fill="#0A1045"/>
<path d="M288.595 174.758L204.258 166.116C203.769 166.066 203.334 166.421 203.284 166.909C203.234 167.396 203.588 167.832 204.076 167.882L288.415 176.525C288.902 176.574 289.337 176.219 289.388 175.732C289.438 175.244 289.083 174.808 288.595 174.758Z" fill="#0A1045"/>
<path d="M287.945 181.109L189.875 171.059C189.388 171.01 188.953 171.364 188.902 171.852C188.852 172.34 189.207 172.775 189.695 172.826L287.764 182.875C288.251 182.925 288.687 182.57 288.738 182.082C288.787 181.594 288.432 181.158 287.945 181.109Z" fill="#0A1045"/>
<path d="M259.832 184.645L189.225 177.41C188.738 177.36 188.302 177.715 188.251 178.202C188.202 178.69 188.557 179.126 189.044 179.176L259.651 186.412C260.139 186.461 260.575 186.106 260.625 185.619C260.675 185.13 260.319 184.695 259.832 184.645Z" fill="#0A1045"/>
<path d="M188.121 184.262L185.252 212.267L284.115 222.398L286.985 194.393L188.121 184.262Z" fill="#E7E8ED"/>
<path d="M188.121 184.262L185.252 212.267L284.115 222.398L286.985 194.393L188.121 184.262Z" stroke="#0A1045" stroke-width="1.33333" stroke-miterlimit="10"/>
<path d="M241.268 137.211C240.029 149.305 229.22 158.104 217.126 156.865C205.032 155.626 196.232 144.817 197.472 132.723C198.711 120.629 209.52 111.83 221.614 113.069C233.708 114.308 242.507 125.117 241.268 137.211Z" fill="#650AFF"/>
<g opacity="0.5">
<g opacity="0.5">
<path opacity="0.5" d="M241.268 137.211C240.029 149.304 229.22 158.104 217.126 156.864C205.032 155.625 196.232 144.817 197.472 132.723C198.711 120.629 209.52 111.83 221.614 113.069C233.708 114.308 242.507 125.117 241.268 137.211Z" fill="white"/>
</g>
</g>
<path d="M241.267 137.211C240.028 149.305 229.22 158.104 217.126 156.865C205.032 155.626 196.232 144.817 197.472 132.723C198.711 120.629 209.52 111.83 221.614 113.069C233.707 114.308 242.506 125.117 241.267 137.211Z" stroke="#0A1045" stroke-width="1.33333" stroke-miterlimit="10"/>
<path d="M220.001 134.894L238.306 144.104C239.34 141.962 240.027 139.608 240.283 137.106C240.863 131.454 239.143 126.1 235.885 121.964L220.001 134.894Z" fill="white"/>
<path d="M220.123 133.905L235.449 121.428C233.191 118.743 230.263 116.62 226.888 115.33L224.124 122.92L220.123 133.905Z" fill="#650AFF"/>
<path d="M221.856 114.093L219.997 132.234L226.239 115.096C224.844 114.615 223.378 114.274 221.856 114.093Z" fill="#CECFDA"/>
<path d="M219.048 134.731L221.169 114.023C209.759 113.04 199.628 121.385 198.458 132.82C198.076 136.544 198.695 140.137 200.091 143.341L219.048 134.731Z" fill="#E7E8ED"/>
<path d="M217.227 155.876C226.032 156.778 234.118 152.105 237.993 144.718L219.362 135.345L200.372 143.971C203.421 150.385 209.646 155.099 217.227 155.876Z" fill="#E7E8ED"/>
<path d="M254.334 124.12L251.823 123.863C251.565 123.837 251.377 123.606 251.404 123.347L251.66 120.836C251.687 120.578 251.918 120.39 252.177 120.416L254.687 120.674C254.945 120.7 255.133 120.931 255.107 121.19L254.85 123.7C254.824 123.959 254.593 124.147 254.334 124.12Z" fill="#650AFF"/>
<path d="M254.334 124.12L251.823 123.863C251.565 123.837 251.377 123.606 251.404 123.347L251.66 120.836C251.687 120.578 251.918 120.39 252.177 120.416L254.687 120.674C254.945 120.7 255.133 120.931 255.107 121.19L254.85 123.7C254.824 123.959 254.593 124.147 254.334 124.12Z" stroke="#0A1045" stroke-width="1.33333" stroke-miterlimit="10"/>
<path d="M289.572 125.52L257.22 122.204C257.001 122.182 256.842 121.986 256.865 121.768C256.887 121.548 257.082 121.39 257.302 121.412L289.654 124.728C289.872 124.75 290.032 124.945 290.009 125.164C289.987 125.383 289.792 125.542 289.572 125.52Z" fill="#0A1045"/>
<path d="M286.228 126.918L257.043 123.928C256.824 123.905 256.665 123.709 256.687 123.491C256.711 123.272 256.906 123.114 257.125 123.135L286.309 126.126C286.527 126.149 286.687 126.344 286.664 126.563C286.642 126.781 286.447 126.941 286.228 126.918Z" fill="#0A1045"/>
<path d="M253.543 131.84L251.033 131.583C250.774 131.556 250.586 131.325 250.613 131.066L250.869 128.556C250.896 128.297 251.127 128.11 251.386 128.136L253.896 128.393C254.154 128.42 254.342 128.651 254.316 128.909L254.059 131.42C254.033 131.678 253.802 131.866 253.543 131.84Z" fill="#CECFDA"/>
<path d="M253.543 131.84L251.033 131.583C250.774 131.556 250.586 131.325 250.613 131.066L250.869 128.556C250.896 128.297 251.127 128.11 251.386 128.136L253.896 128.393C254.154 128.42 254.342 128.651 254.316 128.909L254.059 131.42C254.033 131.678 253.802 131.866 253.543 131.84Z" stroke="#0A1045" stroke-width="1.33333" stroke-miterlimit="10" stroke-linecap="round" stroke-linejoin="round"/>
<path d="M288.781 133.239L256.428 129.923C256.21 129.901 256.051 129.705 256.074 129.487C256.096 129.268 256.291 129.109 256.51 129.131L288.862 132.447C289.081 132.469 289.24 132.665 289.218 132.883C289.196 133.102 289.001 133.261 288.781 133.239Z" fill="#0A1045"/>
<path d="M285.437 134.637L256.252 131.647C256.033 131.624 255.874 131.429 255.896 131.21C255.92 130.991 256.115 130.832 256.334 130.855L285.518 133.845C285.736 133.868 285.896 134.063 285.873 134.282C285.851 134.501 285.656 134.66 285.437 134.637Z" fill="#0A1045"/>
<path d="M252.752 139.559L250.242 139.301C249.983 139.275 249.795 139.044 249.822 138.786L250.078 136.275C250.106 136.017 250.336 135.829 250.595 135.855L253.106 136.112C253.363 136.138 253.551 136.37 253.525 136.628L253.268 139.138C253.242 139.397 253.011 139.585 252.752 139.559Z" fill="#E7E8ED"/>
<path d="M252.752 139.559L250.242 139.301C249.983 139.275 249.795 139.044 249.822 138.786L250.078 136.275C250.106 136.017 250.336 135.829 250.595 135.855L253.106 136.112C253.363 136.138 253.551 136.37 253.525 136.628L253.268 139.138C253.242 139.397 253.011 139.585 252.752 139.559Z" stroke="#0A1045" stroke-width="1.33333" stroke-miterlimit="10" stroke-linecap="round" stroke-linejoin="round"/>
<path d="M287.99 140.958L255.638 137.643C255.419 137.62 255.26 137.425 255.283 137.206C255.305 136.987 255.5 136.828 255.72 136.851L288.072 140.166C288.29 140.189 288.45 140.383 288.427 140.603C288.405 140.821 288.21 140.981 287.99 140.958Z" fill="#0A1045"/>
<path d="M284.646 142.357L255.461 139.366C255.242 139.344 255.083 139.148 255.105 138.929C255.129 138.71 255.324 138.552 255.543 138.574L284.727 141.565C284.945 141.587 285.104 141.782 285.082 142.001C285.06 142.22 284.865 142.379 284.646 142.357Z" fill="#0A1045"/>
<path d="M251.961 147.278L249.451 147.021C249.192 146.995 249.004 146.763 249.031 146.505L249.288 143.994C249.315 143.736 249.546 143.548 249.804 143.574L252.315 143.831C252.572 143.858 252.76 144.089 252.734 144.347L252.477 146.858C252.451 147.116 252.22 147.304 251.961 147.278Z" fill="#E7E8ED"/>
<path d="M251.961 147.278L249.451 147.021C249.192 146.995 249.004 146.763 249.031 146.505L249.288 143.994C249.315 143.736 249.546 143.548 249.804 143.574L252.315 143.831C252.572 143.858 252.76 144.089 252.734 144.347L252.477 146.858C252.451 147.116 252.22 147.304 251.961 147.278Z" stroke="#0A1045" stroke-width="1.33333" stroke-miterlimit="10"/>
<path d="M287.199 148.677L254.846 145.362C254.628 145.339 254.468 145.144 254.492 144.925C254.514 144.707 254.709 144.547 254.928 144.57L287.28 147.885C287.499 147.908 287.658 148.103 287.636 148.322C287.614 148.54 287.419 148.7 287.199 148.677Z" fill="#0A1045"/>
<path d="M283.855 150.076L254.671 147.085C254.451 147.062 254.293 146.867 254.315 146.648C254.338 146.43 254.533 146.27 254.752 146.293L283.936 149.284C284.154 149.306 284.314 149.502 284.291 149.72C284.269 149.939 284.074 150.098 283.855 150.076Z" fill="#0A1045"/>
<path d="M251.17 154.997L248.66 154.74C248.401 154.713 248.213 154.483 248.24 154.224L248.497 151.714C248.524 151.455 248.755 151.267 249.013 151.294L251.524 151.551C251.781 151.577 251.969 151.808 251.943 152.067L251.686 154.577C251.66 154.836 251.429 155.024 251.17 154.997Z" fill="white"/>
<path d="M251.17 154.997L248.66 154.74C248.401 154.713 248.213 154.483 248.24 154.224L248.497 151.714C248.524 151.455 248.755 151.267 249.013 151.294L251.524 151.551C251.781 151.577 251.969 151.808 251.943 152.067L251.686 154.577C251.66 154.836 251.429 155.024 251.17 154.997Z" stroke="#0A1045" stroke-width="1.33333" stroke-miterlimit="10" stroke-linecap="round" stroke-linejoin="round"/>
<path d="M286.409 156.396L254.055 153.081C253.837 153.059 253.677 152.863 253.701 152.645C253.723 152.426 253.918 152.267 254.137 152.289L286.489 155.604C286.708 155.627 286.867 155.822 286.845 156.041C286.823 156.26 286.628 156.419 286.409 156.396Z" fill="#0A1045"/>
<path d="M283.064 157.795L253.879 154.804C253.66 154.782 253.501 154.586 253.523 154.368C253.547 154.149 253.742 153.99 253.961 154.012L283.144 157.003C283.363 157.026 283.522 157.221 283.501 157.44C283.478 157.658 283.283 157.818 283.064 157.795Z" fill="#0A1045"/>
<path d="M273.101 202.378L274.949 202.567L273.867 213.128L272.02 212.939L273.101 202.378Z" fill="#CECFDA"/>
<path d="M273.101 202.378L274.949 202.567L273.867 213.128L272.02 212.939L273.101 202.378Z" stroke="#0A1045" stroke-width="1.33333" stroke-miterlimit="10" stroke-linecap="round" stroke-linejoin="round"/>
<path d="M272.692 206.377L274.539 206.566L274.029 211.537L272.182 211.348L272.692 206.377Z" fill="#650AFF"/>
<path d="M272.692 206.377L274.539 206.566L274.029 211.537L272.182 211.348L272.692 206.377Z" stroke="#0A1045" stroke-width="1.33333" stroke-miterlimit="10"/>
<path d="M277.533 200.139L279.38 200.328L278.298 210.889L276.451 210.7L277.533 200.139Z" fill="#CECFDA"/>
<path d="M277.533 200.139L279.38 200.328L278.298 210.889L276.451 210.7L277.533 200.139Z" stroke="#0A1045" stroke-width="1.33333" stroke-miterlimit="10" stroke-linecap="round" stroke-linejoin="round"/>
<path d="M277.246 202.944L279.093 203.134L278.583 208.105L276.736 207.916L277.246 202.944Z" fill="#650AFF"/>
<path d="M277.246 202.944L279.093 203.134L278.583 208.105L276.736 207.916L277.246 202.944Z" stroke="#0A1045" stroke-width="1.33333" stroke-miterlimit="10"/>
<path d="M281.484 202.591L283.331 202.78L282.249 213.341L280.402 213.151L281.484 202.591Z" fill="#CECFDA"/>
<path d="M281.484 202.591L283.331 202.78L282.249 213.341L280.402 213.151L281.484 202.591Z" stroke="#0A1045" stroke-width="1.33333" stroke-miterlimit="10" stroke-linecap="round" stroke-linejoin="round"/>
<path d="M281.318 204.203L283.166 204.392L282.657 209.364L280.809 209.174L281.318 204.203Z" fill="#650AFF"/>
<path d="M281.318 204.203L283.166 204.392L282.657 209.364L280.809 209.174L281.318 204.203Z" stroke="#0A1045" stroke-width="1.33333" stroke-miterlimit="10"/>
<path d="M269.157 199.865L271.004 200.054L269.923 210.616L268.075 210.426L269.157 199.865Z" fill="#CECFDA"/>
<path d="M269.157 199.865L271.004 200.054L269.923 210.616L268.075 210.426L269.157 199.865Z" stroke="#0A1045" stroke-width="1.33333" stroke-miterlimit="10" stroke-linecap="round" stroke-linejoin="round"/>
<path d="M268.748 203.864L270.595 204.053L270.085 209.025L268.237 208.835L268.748 203.864Z" fill="#650AFF"/>
<path d="M268.748 203.864L270.595 204.053L270.085 209.025L268.237 208.835L268.748 203.864Z" stroke="#0A1045" stroke-width="1.33333" stroke-miterlimit="10"/>
<path d="M264.678 202.564L266.525 202.752L265.443 213.314L263.596 213.124L264.678 202.564Z" fill="#CECFDA"/>
<path d="M264.678 202.564L266.525 202.752L265.443 213.314L263.596 213.124L264.678 202.564Z" stroke="#0A1045" stroke-width="1.33333" stroke-miterlimit="10" stroke-linecap="round" stroke-linejoin="round"/>
<path d="M264.228 206.96L266.075 207.15L265.565 212.12L263.718 211.931L264.228 206.96Z" fill="#650AFF"/>
<path d="M264.228 206.96L266.075 207.15L265.565 212.12L263.718 211.931L264.228 206.96Z" stroke="#0A1045" stroke-width="1.33333" stroke-miterlimit="10"/>
<path d="M260.799 199.411L262.647 199.599L261.565 210.161L259.718 209.972L260.799 199.411Z" fill="#CECFDA"/>
<path d="M260.799 199.411L262.647 199.599L261.565 210.161L259.718 209.972L260.799 199.411Z" stroke="#0A1045" stroke-width="1.33333" stroke-miterlimit="10" stroke-linecap="round" stroke-linejoin="round"/>
<path d="M260.267 204.603L262.115 204.792L261.605 209.763L259.757 209.574L260.267 204.603Z" fill="#650AFF"/>
<path d="M260.267 204.603L262.115 204.792L261.605 209.763L259.757 209.574L260.267 204.603Z" stroke="#0A1045" stroke-width="1.33333" stroke-miterlimit="10"/>
<path d="M256.075 204.506L257.922 204.695L256.84 215.257L254.993 215.067L256.075 204.506Z" fill="#CECFDA"/>
<path d="M256.075 204.506L257.922 204.695L256.84 215.257L254.993 215.067L256.075 204.506Z" stroke="#0A1045" stroke-width="1.33333" stroke-miterlimit="10" stroke-linecap="round" stroke-linejoin="round"/>
<path d="M255.542 209.698L257.39 209.888L256.881 214.859L255.033 214.67L255.542 209.698Z" fill="#650AFF"/>
<path d="M255.542 209.698L257.39 209.888L256.881 214.859L255.033 214.67L255.542 209.698Z" stroke="#0A1045" stroke-width="1.33333" stroke-miterlimit="10"/>
<path d="M252.598 197.429L254.445 197.619L253.363 208.18L251.516 207.99L252.598 197.429Z" fill="#CECFDA"/>
<path d="M252.598 197.429L254.445 197.619L253.363 208.18L251.516 207.99L252.598 197.429Z" stroke="#0A1045" stroke-width="1.33333" stroke-miterlimit="10" stroke-linecap="round" stroke-linejoin="round"/>
<path d="M252.188 201.428L254.036 201.617L253.526 206.589L251.679 206.399L252.188 201.428Z" fill="#650AFF"/>
<path d="M252.188 201.428L254.036 201.617L253.526 206.589L251.679 206.399L252.188 201.428Z" stroke="#0A1045" stroke-width="1.33333" stroke-miterlimit="10"/>
<path d="M248.503 196.387L250.35 196.576L249.268 207.137L247.421 206.948L248.503 196.387Z" fill="#CECFDA"/>
<path d="M248.503 196.387L250.35 196.576L249.268 207.137L247.421 206.948L248.503 196.387Z" stroke="#0A1045" stroke-width="1.33333" stroke-miterlimit="10" stroke-linecap="round" stroke-linejoin="round"/>
<path d="M248.337 197.999L250.185 198.188L249.675 203.16L247.828 202.97L248.337 197.999Z" fill="#650AFF"/>
<path d="M248.337 197.999L250.185 198.188L249.675 203.16L247.828 202.97L248.337 197.999Z" stroke="#0A1045" stroke-width="1.33333" stroke-miterlimit="10"/>
<path d="M243.665 202.589L245.513 202.778L244.431 213.34L242.583 213.15L243.665 202.589Z" fill="#CECFDA"/>
<path d="M243.665 202.589L245.513 202.778L244.431 213.34L242.583 213.15L243.665 202.589Z" stroke="#0A1045" stroke-width="1.33333" stroke-miterlimit="10" stroke-linecap="round" stroke-linejoin="round"/>
<path d="M243.54 203.803L245.388 203.993L244.879 208.964L243.031 208.775L243.54 203.803Z" fill="#650AFF"/>
<path d="M243.54 203.803L245.388 203.993L244.879 208.964L243.031 208.775L243.54 203.803Z" stroke="#0A1045" stroke-width="1.33333" stroke-miterlimit="10"/>
<path d="M239.982 197.521L241.829 197.71L240.747 208.272L238.9 208.082L239.982 197.521Z" fill="#CECFDA"/>
<path d="M239.982 197.521L241.829 197.71L240.747 208.272L238.9 208.082L239.982 197.521Z" stroke="#0A1045" stroke-width="1.33333" stroke-miterlimit="10" stroke-linecap="round" stroke-linejoin="round"/>
<path d="M239.613 201.122L241.46 201.311L240.951 206.283L239.103 206.094L239.613 201.122Z" fill="#650AFF"/>
<path d="M239.613 201.122L241.46 201.311L240.951 206.283L239.103 206.094L239.613 201.122Z" stroke="#0A1045" stroke-width="1.33333" stroke-miterlimit="10"/>
<path d="M235.542 199.85L237.389 200.04L236.306 210.601L234.459 210.412L235.542 199.85Z" fill="#CECFDA"/>
<path d="M235.542 199.85L237.389 200.04L236.306 210.601L234.459 210.412L235.542 199.85Z" stroke="#0A1045" stroke-width="1.33333" stroke-miterlimit="10" stroke-linecap="round" stroke-linejoin="round"/>
<path d="M235.131 203.849L236.979 204.038L236.47 209.01L234.622 208.82L235.131 203.849Z" fill="#650AFF"/>
<path d="M235.131 203.849L236.979 204.038L236.47 209.01L234.622 208.82L235.131 203.849Z" stroke="#0A1045" stroke-width="1.33333" stroke-miterlimit="10"/>
<path d="M230.897 204.166L232.744 204.356L231.662 214.916L229.815 214.727L230.897 204.166Z" fill="#CECFDA"/>
<path d="M230.897 204.166L232.744 204.356L231.662 214.916L229.815 214.727L230.897 204.166Z" stroke="#0A1045" stroke-width="1.33333" stroke-miterlimit="10" stroke-linecap="round" stroke-linejoin="round"/>
<path d="M230.324 209.756L232.172 209.946L231.662 214.916L229.815 214.727L230.324 209.756Z" fill="#650AFF"/>
<path d="M230.324 209.756L232.172 209.946L231.662 214.916L229.815 214.727L230.324 209.756Z" stroke="#0A1045" stroke-width="1.33333" stroke-miterlimit="10"/>
<path d="M227.424 197.051L229.271 197.24L228.189 207.802L226.342 207.612L227.424 197.051Z" fill="#CECFDA"/>
<path d="M227.424 197.051L229.271 197.24L228.189 207.802L226.342 207.612L227.424 197.051Z" stroke="#0A1045" stroke-width="1.33333" stroke-miterlimit="10" stroke-linecap="round" stroke-linejoin="round"/>
<path d="M226.974 201.448L228.821 201.637L228.311 206.608L226.464 206.419L226.974 201.448Z" fill="#650AFF"/>
<path d="M226.974 201.448L228.821 201.637L228.311 206.608L226.464 206.419L226.974 201.448Z" stroke="#0A1045" stroke-width="1.33333" stroke-miterlimit="10"/>
<path d="M223.741 191.984L225.588 192.173L224.507 202.735L222.659 202.545L223.741 191.984Z" fill="#CECFDA"/>
<path d="M223.741 191.984L225.588 192.173L224.507 202.735L222.659 202.545L223.741 191.984Z" stroke="#0A1045" stroke-width="1.33333" stroke-miterlimit="10" stroke-linecap="round" stroke-linejoin="round"/>
<path d="M223.29 196.38L225.137 196.57L224.628 201.541L222.781 201.352L223.29 196.38Z" fill="#650AFF"/>
<path d="M223.29 196.38L225.137 196.57L224.628 201.541L222.781 201.352L223.29 196.38Z" stroke="#0A1045" stroke-width="1.33333" stroke-miterlimit="10"/>
<path d="M219.009 197.147L220.857 197.337L219.775 207.898L217.928 207.709L219.009 197.147Z" fill="#CECFDA"/>
<path d="M219.009 197.147L220.857 197.337L219.775 207.898L217.928 207.709L219.009 197.147Z" stroke="#0A1045" stroke-width="1.33333" stroke-miterlimit="10" stroke-linecap="round" stroke-linejoin="round"/>
<path d="M218.844 198.76L220.692 198.949L220.183 203.92L218.335 203.731L218.844 198.76Z" fill="#650AFF"/>
<path d="M218.844 198.76L220.692 198.949L220.183 203.92L218.335 203.731L218.844 198.76Z" stroke="#0A1045" stroke-width="1.33333" stroke-miterlimit="10"/>
<path d="M214.24 202.691L216.087 202.88L215.005 213.442L213.157 213.252L214.24 202.691Z" fill="#CECFDA"/>
<path d="M214.24 202.691L216.087 202.88L215.005 213.442L213.157 213.252L214.24 202.691Z" stroke="#0A1045" stroke-width="1.33333" stroke-miterlimit="10" stroke-linecap="round" stroke-linejoin="round"/>
<path d="M214.156 203.508L216.003 203.697L215.493 208.669L213.646 208.479L214.156 203.508Z" fill="#650AFF"/>
<path d="M214.156 203.508L216.003 203.697L215.493 208.669L213.646 208.479L214.156 203.508Z" stroke="#0A1045" stroke-width="1.33333" stroke-miterlimit="10"/>
<path d="M210.693 196.295L212.54 196.484L211.458 207.046L209.611 206.856L210.693 196.295Z" fill="#CECFDA"/>
<path d="M210.693 196.295L212.54 196.484L211.458 207.046L209.611 206.856L210.693 196.295Z" stroke="#0A1045" stroke-width="1.33333" stroke-miterlimit="10" stroke-linecap="round" stroke-linejoin="round"/>
<path d="M210.283 200.294L212.131 200.483L211.621 205.455L209.773 205.265L210.283 200.294Z" fill="#650AFF"/>
<path d="M210.283 200.294L212.131 200.483L211.621 205.455L209.773 205.265L210.283 200.294Z" stroke="#0A1045" stroke-width="1.33333" stroke-miterlimit="10"/>
<path d="M206.714 194.112L208.562 194.301L207.48 204.863L205.632 204.673L206.714 194.112Z" fill="#CECFDA"/>
<path d="M206.714 194.112L208.562 194.301L207.48 204.863L205.632 204.673L206.714 194.112Z" stroke="#0A1045" stroke-width="1.33333" stroke-miterlimit="10" stroke-linecap="round" stroke-linejoin="round"/>
<path d="M206.59 195.326L208.437 195.516L207.928 200.487L206.08 200.298L206.59 195.326Z" fill="#650AFF"/>
<path d="M206.59 195.326L208.437 195.516L207.928 200.487L206.08 200.298L206.59 195.326Z" stroke="#0A1045" stroke-width="1.33333" stroke-miterlimit="10"/>
<path d="M202.218 196.98L204.066 197.169L202.984 207.73L201.136 207.541L202.218 196.98Z" fill="#CECFDA"/>
<path d="M202.218 196.98L204.066 197.169L202.984 207.73L201.136 207.541L202.218 196.98Z" stroke="#0A1045" stroke-width="1.33333" stroke-miterlimit="10" stroke-linecap="round" stroke-linejoin="round"/>
<path d="M201.646 202.57L203.493 202.759L202.983 207.73L201.135 207.541L201.646 202.57Z" fill="#650AFF"/>
<path d="M201.646 202.57L203.493 202.759L202.983 207.73L201.135 207.541L201.646 202.57Z" stroke="#0A1045" stroke-width="1.33333" stroke-miterlimit="10"/>
<path d="M198.397 193.26L200.245 193.449L199.163 204.01L197.315 203.821L198.397 193.26Z" fill="#CECFDA"/>
<path d="M198.397 193.26L200.245 193.449L199.163 204.01L197.315 203.821L198.397 193.26Z" stroke="#0A1045" stroke-width="1.33333" stroke-miterlimit="10" stroke-linecap="round" stroke-linejoin="round"/>
<path d="M197.906 198.054L199.753 198.243L199.244 203.215L197.397 203.025L197.906 198.054Z" fill="#650AFF"/>
<path d="M197.906 198.054L199.753 198.243L199.244 203.215L197.397 203.025L197.906 198.054Z" stroke="#0A1045" stroke-width="1.33333" stroke-miterlimit="10"/>
<path d="M194.093 194.258L195.941 194.448L194.859 205.009L193.012 204.82L194.093 194.258Z" fill="#CECFDA"/>
<path d="M194.093 194.258L195.941 194.448L194.859 205.009L193.012 204.82L194.093 194.258Z" stroke="#0A1045" stroke-width="1.33333" stroke-miterlimit="10" stroke-linecap="round" stroke-linejoin="round"/>
<path d="M193.56 199.45L195.408 199.639L194.899 204.611L193.051 204.422L193.56 199.45Z" fill="#650AFF"/>
<path d="M193.56 199.45L195.408 199.639L194.899 204.611L193.051 204.422L193.56 199.45Z" stroke="#0A1045" stroke-width="1.33333" stroke-miterlimit="10"/>
<path d="M190.074 192.476L191.921 192.665L190.839 203.226L188.991 203.037L190.074 192.476Z" fill="#CECFDA"/>
<path d="M190.074 192.476L191.921 192.665L190.839 203.226L188.991 203.037L190.074 192.476Z" stroke="#0A1045" stroke-width="1.33333" stroke-miterlimit="10" stroke-linecap="round" stroke-linejoin="round"/>
<path d="M190.03 192.895L191.878 193.084L191.369 198.055L189.521 197.866L190.03 192.895Z" fill="#650AFF"/>
<path d="M190.03 192.895L191.878 193.084L191.369 198.055L189.521 197.866L190.03 192.895Z" stroke="#0A1045" stroke-width="1.33333" stroke-miterlimit="10"/>
<path d="M283.354 225.905L199.016 217.263C198.528 217.213 198.093 217.568 198.043 218.056C197.992 218.544 198.347 218.979 198.835 219.03L283.173 227.672C283.661 227.721 284.096 227.367 284.147 226.879C284.196 226.391 283.842 225.956 283.354 225.905Z" fill="#0A1045"/>
<path d="M282.703 232.256L184.634 222.207C184.147 222.157 183.711 222.511 183.661 223C183.611 223.487 183.966 223.923 184.453 223.973L282.523 234.022C283.01 234.072 283.446 233.717 283.496 233.23C283.546 232.742 283.191 232.306 282.703 232.256Z" fill="#0A1045"/>
<path d="M240.86 234.385L183.984 228.557C183.496 228.508 183.06 228.862 183.01 229.35C182.96 229.838 183.315 230.273 183.802 230.324L240.679 236.152C241.167 236.201 241.603 235.847 241.653 235.359C241.703 234.871 241.347 234.435 240.86 234.385Z" fill="#0A1045"/>
<g opacity="0.199997">
<g opacity="0.199997">
<g opacity="0.199997">
<g opacity="0.699997">
<g opacity="0.699997">
<path opacity="0.699997" d="M292.655 177.675C289.747 177.442 288.739 182.079 288.739 182.079C288.739 182.079 284.141 176.052 284.87 161.88C284.87 161.88 282.623 155.598 276.605 159.393C270.593 163.188 264.348 176.563 265.837 191.133L254.136 152.292C250.094 153.149 241.881 158.581 244.045 184.814L231.278 171.318C231.278 171.318 227.822 170.206 225.868 173.264C223.915 176.33 224.846 198.227 226.461 206.417C228.084 214.615 223.959 231.064 223.959 231.064C223.959 231.064 219.557 212.429 211.59 207.713L181.256 145.146L171.179 243.507L182.549 244.672L200.806 235.785C200.705 239.896 200.605 243.674 200.305 246.491L291.557 255.839L298.087 192.103C295.871 184.16 293.752 177.758 292.655 177.675Z" fill="#0A1045"/>
</g>
</g>
</g>
</g>
</g>
<path d="M308.705 88.4957L298.087 192.103L291.558 255.839L200.304 246.491L182.548 244.672L171.179 243.508L181.256 145.146L188.327 76.1648L308.705 88.4957Z" stroke="#0A1045" stroke-width="1.33333" stroke-miterlimit="10" stroke-linecap="round" stroke-linejoin="round"/>
<path d="M307.202 355.222L253.85 364.299C253.85 364.299 244.564 314.969 239.026 307.199C233.487 299.421 234.501 296.228 231.811 290.991C230.188 287.827 222.05 281.929 215.663 276.105H215.655C215.099 275.601 214.558 275.098 214.041 274.594C213.814 274.392 213.604 274.174 213.394 273.97C212.544 273.129 211.755 272.31 211.057 271.506C210.801 271.221 210.561 270.935 210.335 270.649C209.005 269.004 208.066 267.464 207.75 266.073C207.728 265.998 207.714 265.923 207.705 265.841C207.684 265.743 207.668 265.653 207.66 265.563C207.517 264.398 207.368 263.067 207.217 261.624C207.187 261.34 207.157 261.038 207.12 260.738C207.104 260.618 207.09 260.505 207.074 260.377C206.946 259.176 206.804 257.897 206.638 256.582C206.473 255.207 206.293 253.78 206.082 252.345C206.015 251.849 205.947 251.353 205.865 250.85C205.865 250.842 205.865 250.834 205.857 250.834C205.775 250.279 205.684 249.723 205.594 249.159C205.511 248.678 205.429 248.196 205.346 247.716C205.331 247.633 205.308 247.558 205.301 247.491C205.196 246.927 205.09 246.378 204.985 245.822C204.963 245.762 204.955 245.702 204.948 245.634C204.842 245.146 204.745 244.665 204.632 244.177C204.399 243.087 204.136 242.02 203.85 240.983C203.287 238.917 202.626 236.985 201.86 235.272C198.012 226.683 203.017 229.786 200.003 207.687C200.003 207.687 202.22 202.562 208.539 206.658C209.029 206.974 209.494 207.32 209.952 207.687H209.96C211.229 208.71 212.357 209.919 213.319 211.279C214.573 213.045 215.55 215.066 216.219 217.26C217.218 220.529 217.541 224.188 217.076 228.006C217.076 228.006 221.825 244.281 224.327 247.986C226.837 251.691 237.177 230.41 236.507 227.931C236.372 227.434 236.184 226.225 235.974 224.564C235.929 224.197 235.884 223.805 235.832 223.393C235.786 222.979 235.734 222.55 235.688 222.108C235.658 221.896 235.636 221.672 235.606 221.453C235.598 221.363 235.591 221.273 235.576 221.191C235.486 220.341 235.38 219.44 235.283 218.508C235.26 218.245 235.23 217.997 235.2 217.741C235.155 217.298 235.111 216.84 235.065 216.389C235.05 216.321 235.05 216.247 235.042 216.163C235.012 215.908 234.983 215.645 234.96 215.375C234.899 214.848 234.847 214.315 234.795 213.782C234.742 213.323 234.705 212.865 234.659 212.406C234.569 211.542 234.486 210.678 234.404 209.844C234.343 209.22 234.283 208.604 234.231 208.003C234.216 207.867 234.201 207.733 234.193 207.605C233.878 204.298 233.63 201.578 233.539 200.421C233.539 200.421 226.018 189.285 225.244 184.04C224.47 178.788 224.537 173.272 227.686 171.026C235.141 165.721 232.961 174.271 236.298 177.81C239.633 181.365 244.751 187.151 247.651 188.961C250.327 190.66 252.716 197.257 253.054 198.22C252.671 196.777 248.846 182.589 248.763 179.734C248.666 176.721 246.366 160.828 250.274 155.125C254.174 149.429 259.374 153.847 259.854 154.974C260.335 156.102 260.478 171.498 261.853 175.789C263.236 180.073 268.985 197.934 268.985 197.934C268.985 197.934 269.225 180.561 270.525 172.783C271.817 165.014 275.198 158.928 278.506 158.582C281.811 158.236 284.869 161.881 284.869 161.881C284.869 161.881 283.562 174.279 283.938 177.141C284.306 179.998 283.397 190.345 284.967 195.905C284.967 195.905 284.787 181.095 287.086 179.2C289.393 177.307 291.362 176.398 292.655 177.676C293.94 178.952 294.225 187.722 295.54 192.997C296.862 198.28 296.689 205.44 297.553 213.668C298.418 221.896 301.822 233.319 301.145 239.849C300.469 246.364 298.388 262.571 296.712 272.078C295.037 281.591 290.761 294.605 290.761 294.605C290.761 294.605 292.707 301.555 292.331 307.755C291.948 313.954 307.202 355.222 307.202 355.222Z" fill="white"/>
<g opacity="0.399994">
<g opacity="0.399994">
<path opacity="0.399994" d="M261.857 175.786C262.879 178.961 266.294 189.57 267.995 194.867C267.995 194.867 260.537 200.348 260.722 205.441C260.915 210.529 259.357 220.819 256.008 220.523C252.665 220.235 252.962 198.839 251.868 195.246C252.548 196.788 252.989 198.046 253.078 198.294C252.83 197.373 248.845 182.649 248.761 179.733C248.742 179.048 248.603 177.684 248.449 175.918L248.451 175.883C248.451 175.883 255.863 168.788 261.308 173.132L261.308 173.139C261.469 174.221 261.649 175.13 261.857 175.786Z" fill="#FFD870"/>
</g>
</g>
<g opacity="0.399994">
<g opacity="0.399994">
<path opacity="0.399994" d="M284.016 181.903C280.544 185.196 275.305 191.014 274.642 196.63C274.642 196.63 276.578 212.299 275.751 219.134L268.982 197.935C268.982 197.935 269.225 180.56 270.526 172.785C270.559 172.573 270.6 172.354 270.641 172.142C273.96 170.445 278.513 168.926 284.231 168.821C283.969 172.172 283.756 175.761 283.935 177.141C284.051 178.075 284.041 179.803 284.016 181.903Z" fill="#FFD870"/>
</g>
</g>
<g opacity="0.399994">
<g opacity="0.399994">
<path opacity="0.399994" d="M287.086 179.201L287.078 179.208C287.071 179.214 287.064 179.221 287.056 179.227C286.977 179.285 286.774 179.445 286.475 179.696C286.662 179.348 286.854 179.022 287.068 178.716L287.086 179.201Z" fill="#FFD870"/>
</g>
</g>
<g opacity="0.399994">
<g opacity="0.399994">
<path opacity="0.399994" d="M288.852 222.538C288.852 222.538 284.39 205.794 284.311 192.313C284.278 187.327 284.854 182.777 286.467 179.703L286.474 179.696C286.661 179.348 286.854 179.021 287.067 178.716L287.085 179.201C288.039 178.416 288.928 177.807 289.744 177.442C288.491 179.398 287.047 183.223 288.718 189.438C291.337 199.175 289.058 211.066 288.852 222.538Z" fill="#FFD870"/>
</g>
</g>
<g opacity="0.399994">
<g opacity="0.399994">
<path opacity="0.399994" d="M227.286 254.439C227.286 254.439 228.486 270.395 215.661 276.108L215.655 276.107C215.097 275.603 214.561 275.099 214.039 274.598C213.816 274.391 213.602 274.177 213.393 273.97C212.546 273.13 211.753 272.307 211.055 271.504C210.797 271.211 210.558 270.927 210.333 270.65C209.003 269.006 208.068 267.462 207.752 266.073C207.729 265.997 207.712 265.919 207.703 265.843C207.682 265.744 207.667 265.654 207.658 265.564C207.515 264.4 207.369 263.07 207.216 261.623C207.185 261.337 207.155 261.038 207.118 260.738C207.105 260.62 207.091 260.501 207.077 260.376C206.944 259.172 206.801 257.899 206.639 256.581C206.476 255.208 206.294 253.781 206.084 252.343C206.011 251.848 205.938 251.345 205.865 250.85C205.865 250.843 205.865 250.836 205.858 250.836C205.775 250.278 205.685 249.719 205.595 249.16C205.514 248.678 205.426 248.195 205.345 247.714C205.328 247.636 205.313 247.56 205.303 247.49C205.199 246.931 205.095 246.377 204.983 245.825C204.967 245.761 204.957 245.698 204.947 245.635C204.846 245.145 204.744 244.662 204.635 244.178C204.39 243.092 204.131 242.025 203.849 240.985C208.922 236.103 220.632 239.165 214.964 227.858C214.964 227.858 217.818 218.18 209.951 207.685L209.958 207.686C215.341 212.027 218.096 219.649 217.077 228.008C217.077 228.008 221.825 244.279 224.328 247.986C226.839 251.695 237.175 230.41 236.505 227.929C236.376 227.436 236.188 226.221 235.978 224.563C235.932 224.194 235.886 223.803 235.836 223.393C235.785 222.982 235.735 222.55 235.687 222.104C235.658 221.895 235.637 221.673 235.608 221.457C235.6 221.366 235.593 221.275 235.576 221.192C235.484 220.335 235.387 219.438 235.285 218.505C235.259 218.248 235.233 217.997 235.2 217.739C235.159 217.294 235.11 216.842 235.063 216.389C235.053 216.32 235.051 216.244 235.041 216.167C235.016 215.91 234.983 215.644 234.958 215.374C234.901 214.845 234.85 214.316 234.794 213.78C234.746 213.321 234.704 212.862 234.657 212.403C234.571 211.54 234.487 210.677 234.406 209.843C234.348 209.217 234.289 208.598 234.228 208.007C234.217 207.867 234.203 207.736 234.19 207.603C234.4 208.591 238.21 226.726 240.385 230.952C242.614 235.3 233.14 258.201 227.286 254.439Z" fill="#FFD870"/>
</g>
</g>
<g opacity="0.399994">
<g opacity="0.399994">
<path opacity="0.399994" d="M296.71 272.078C295.034 281.593 290.764 294.606 290.764 294.606C290.764 294.606 292.709 301.557 292.329 307.756C292.227 309.424 293.261 313.636 294.812 318.896C294.365 317.742 289.574 305.327 289.653 300.996C289.745 296.452 288.453 295.198 285.919 289.614C283.392 284.025 279.524 284.645 279.524 284.645C279.524 284.645 278.034 298.576 274.536 289.421C271.039 280.259 270.365 269.618 279.181 232.648C279.181 232.648 280.514 237.287 279.4 251.061C278.278 264.841 281.576 269.006 281.576 269.006C281.576 269.006 288.699 257.274 293.292 241.687C293.292 241.687 292.154 257.762 291.137 265.084C290.12 272.406 294.749 256.6 297.982 246.835C301.019 237.674 301.13 234.188 299.974 227.666C300.833 232.263 301.477 236.644 301.148 239.845C300.472 246.366 298.385 262.57 296.71 272.078Z" fill="#FFD870"/>
</g>
</g>
<g opacity="0.399994">
<g opacity="0.399994">
<path opacity="0.399994" d="M236.425 303.062C239.026 307.197 245.393 312.659 249.183 327.773C252.975 342.886 250.592 359.425 250.592 359.425L236.425 303.062Z" fill="#FFD870"/>
</g>
</g>
<g opacity="0.199997">
<g opacity="0.199997">
<g opacity="0.199997">
<g opacity="0.699997">
<g opacity="0.699997">
<path opacity="0.699997" d="M216.22 217.26C216.22 217.26 202.912 224 201.861 235.272C198.013 226.683 203.018 229.786 200.004 207.687C200.004 207.687 202.221 202.562 208.54 206.657C209.029 206.974 209.494 207.32 209.953 207.687H209.96C211.23 208.709 212.357 209.919 213.32 211.279L216.22 217.26Z" fill="#0A1045"/>
</g>
</g>
</g>
</g>
</g>
<path d="M253.849 364.301C253.849 364.301 244.567 314.969 239.026 307.197C233.485 299.426 234.502 296.227 231.814 290.991C229.126 285.755 208.573 273.006 207.662 265.565C206.75 258.123 205.71 243.866 201.861 235.272C198.012 226.678 203.018 229.785 199.998 207.684C199.998 207.684 202.227 202.565 208.54 206.658C214.854 210.752 218.181 218.941 217.077 228.011C217.077 228.011 221.824 244.277 224.332 247.987C226.84 251.697 237.173 230.409 236.504 227.926C235.835 225.442 233.852 204.28 233.542 200.42C233.542 200.42 226.018 189.28 225.247 184.036C224.474 178.791 224.539 173.267 227.686 171.028C235.142 165.719 232.957 174.27 236.296 177.817C239.634 181.363 244.75 187.147 247.648 188.966C250.545 190.785 253.09 198.334 253.09 198.334C253.09 198.334 248.85 182.748 248.761 179.734C248.672 176.72 246.365 160.828 250.27 155.129C254.176 149.431 259.375 153.85 259.854 154.975C260.332 156.1 260.481 171.495 261.859 175.786C263.237 180.075 268.98 197.934 268.98 197.934C268.98 197.934 269.225 180.563 270.522 172.787C271.82 165.011 275.202 158.927 278.506 158.582C281.81 158.238 284.869 161.88 284.869 161.88C284.869 161.88 283.561 174.279 283.932 177.14C284.304 180 283.396 190.338 284.969 195.906C284.969 195.906 284.784 181.093 287.088 179.199C289.393 177.303 291.363 176.399 292.653 177.675C293.942 178.95 294.224 187.72 295.542 192.999C296.859 198.277 296.694 205.443 297.557 213.67C298.419 221.896 301.822 233.32 301.148 239.843C300.474 246.367 298.386 262.569 296.707 272.081C295.03 281.593 290.767 294.608 290.767 294.608C290.767 294.608 292.711 301.556 292.331 307.755C291.95 313.954 307.199 355.22 307.199 355.22" stroke="#0A1045" stroke-width="1.33333" stroke-miterlimit="10" stroke-linecap="round" stroke-linejoin="round"/>
<path d="M268.979 197.934C270.533 201.585 274.375 217.002 275.748 219.138C277.121 221.273 278.678 221.917 278.678 221.917" stroke="#0A1045" stroke-width="1.33333" stroke-miterlimit="10" stroke-linecap="round" stroke-linejoin="round"/>
<path d="M284.969 195.906C284.969 195.906 284.639 199.066 286.346 209.137C288.053 219.209 288.884 223.5 289.84 225.747" stroke="#0A1045" stroke-width="1.33333" stroke-miterlimit="10" stroke-linecap="round" stroke-linejoin="round"/>
<path d="M253.09 198.334C255.175 204.472 256.354 214.255 257.54 217.2C258.727 220.144 259.784 220.757 259.784 220.757" stroke="#0A1045" stroke-width="1.33333" stroke-miterlimit="10" stroke-linecap="round" stroke-linejoin="round"/>
<path d="M256.466 213.063C256.466 213.063 258.652 214.689 259.349 216.706" stroke="#0A1045" stroke-width="1.33333" stroke-miterlimit="10" stroke-linecap="round" stroke-linejoin="round"/>
<path d="M224.331 247.987C224.331 247.987 225.473 256.126 230.573 255.482" stroke="#0A1045" stroke-width="1.33333" stroke-miterlimit="10" stroke-linecap="round" stroke-linejoin="round"/>
<path d="M236.504 227.925C236.504 227.925 237.825 237.6 235.658 241.707" stroke="#0A1045" stroke-width="1.33333" stroke-miterlimit="10" stroke-linecap="round" stroke-linejoin="round"/>
<path d="M277.256 228.011C277.256 228.011 280.683 230.108 278.391 236.26C276.098 242.41 272.113 267.239 272.113 267.239" stroke="#0A1045" stroke-width="1.33333" stroke-miterlimit="10" stroke-linecap="round" stroke-linejoin="round"/>
<path d="M292.175 234.506C293.612 240.065 293.74 240.21 291.406 247.042C289.071 253.874 285.31 270.602 285.31 270.602" stroke="#0A1045" stroke-width="1.33333" stroke-miterlimit="10" stroke-linecap="round" stroke-linejoin="round"/>
<path d="M290.767 294.608C290.767 294.608 288.527 290.084 290.378 286.368" stroke="#0A1045" stroke-width="1.33333" stroke-miterlimit="10" stroke-linecap="round" stroke-linejoin="round"/>
<path d="M239.026 307.197C239.026 307.197 244.692 315.158 247.154 324.062" stroke="#0A1045" stroke-width="1.33333" stroke-miterlimit="10" stroke-linecap="round" stroke-linejoin="round"/>
<path d="M280.715 167.71L282.244 166.197L282.94 166.001L282.894 166.75L281.485 168.544L280.715 167.71Z" fill="#CECFDA"/>
<path d="M280.715 167.71L282.244 166.197L282.94 166.001L282.894 166.75L281.485 168.544L280.715 167.71Z" stroke="#0A1045" stroke-width="1.33333" stroke-miterlimit="10" stroke-linecap="round" stroke-linejoin="round"/>
<path d="M281.952 168.549L279.462 174.205L212.434 263.574L204.968 258.815L215.103 246.1L275.307 170.583L280.617 167.209C280.617 167.209 281.754 167.5 281.952 168.549Z" fill="#FFD870"/>
<g opacity="0.300003">
<g opacity="0.300003">
<g opacity="0.300003">
<g opacity="0.699997">
<g opacity="0.699997">
<path opacity="0.699997" d="M281.952 168.549L279.461 174.205L212.433 263.574L204.968 258.815L215.103 246.1C219.758 245.618 220.537 248.369 220.537 248.369L278.284 172.999C277.717 170.972 275.307 170.583 275.307 170.583L280.617 167.209C280.617 167.209 281.753 167.5 281.952 168.549Z" fill="#0A1045"/>
</g>
</g>
</g>
</g>
</g>
<path d="M281.952 168.549L279.461 174.205L212.433 263.574L204.968 258.815L215.103 246.1L275.307 170.583L280.617 167.209C280.617 167.209 281.753 167.5 281.952 168.549V168.549Z" stroke="#0A1045" stroke-width="1.33333" stroke-miterlimit="10" stroke-linecap="round" stroke-linejoin="round"/>
<path d="M234.296 237.113C234.296 237.113 226.816 251.962 219.616 262.466L214.474 263.797C214.474 263.797 202.678 275.518 195.481 281.369C195.481 281.369 193.631 280.294 191.962 278.415C191.962 278.415 202.183 258.79 213.49 246.367C213.49 246.367 215.132 246.869 217.199 248.338C218.425 249.208 219.803 250.412 221.071 252.053L233.674 236.197L234.296 237.113Z" fill="#FFD870"/>
<g opacity="0.300003">
<g opacity="0.300003">
<g opacity="0.300003">
<g opacity="0.699997">
<g opacity="0.699997">
<path opacity="0.699997" d="M234.295 237.113C234.295 237.113 226.816 251.962 219.616 262.466L214.474 263.797C214.474 263.797 202.678 275.518 195.48 281.369L195.675 278.187C203.48 266.261 213.398 253.255 217.199 248.338C218.425 249.208 219.803 250.412 221.071 252.053L214.067 261.4L218.08 260.678L233.674 236.197L234.295 237.113Z" fill="#0A1045"/>
</g>
</g>
</g>
</g>
</g>
<path d="M234.296 237.113C234.296 237.113 226.816 251.962 219.616 262.466L214.474 263.797C214.474 263.797 202.678 275.518 195.481 281.369C195.481 281.369 193.631 280.294 191.962 278.415C191.962 278.415 202.183 258.79 213.49 246.367C213.49 246.367 215.132 246.869 217.199 248.338C218.425 249.208 219.803 250.412 221.071 252.053L233.674 236.197L234.296 237.113Z" stroke="#0A1045" stroke-width="1.33333" stroke-miterlimit="10" stroke-linecap="round" stroke-linejoin="round"/>
<path d="M259.783 220.755L238.845 241.057L235.5 244.302C237.789 238.413 236.683 229.308 236.536 228.2C236.536 228.192 236.537 228.186 236.537 228.186C236.527 228.123 236.523 228.089 236.523 228.089C236.519 228.033 236.516 227.971 236.505 227.928C236.376 227.436 236.187 226.221 235.978 224.563C235.932 224.194 235.886 223.804 235.836 223.393C235.785 222.982 235.735 222.55 235.686 222.104C235.658 221.895 235.637 221.673 235.608 221.457C235.6 221.365 235.592 221.275 235.576 221.192C235.483 220.343 235.38 219.437 235.284 218.505C235.259 218.248 235.233 217.997 235.2 217.739C235.158 217.294 235.11 216.842 235.063 216.389C235.053 216.32 235.051 216.244 235.041 216.167C235.015 215.909 234.983 215.644 234.958 215.374C234.901 214.845 234.85 214.316 234.794 213.78C234.745 213.321 234.704 212.862 234.657 212.402C234.571 211.54 234.486 210.677 234.406 209.843C234.34 209.216 234.281 208.604 234.228 208.007C234.216 207.868 234.203 207.735 234.19 207.603C233.875 204.3 233.626 201.58 233.539 200.42C233.539 200.42 226.021 189.283 225.244 184.036C224.473 178.79 224.536 173.269 227.688 171.028C235.142 165.719 232.959 174.27 236.295 177.814C239.631 181.365 244.752 187.149 247.649 188.965C250.544 190.788 253.089 198.336 253.089 198.336C255.174 204.473 256.351 214.252 257.539 217.201C258.728 220.144 259.783 220.755 259.783 220.755Z" fill="white"/>
<path d="M256.466 213.064C256.466 213.064 258.651 214.689 259.349 216.706" stroke="#0A1045" stroke-width="1.33333" stroke-miterlimit="10" stroke-linecap="round" stroke-linejoin="round"/>
<g opacity="0.399994">
<g opacity="0.399994">
<path opacity="0.399994" d="M236.295 177.814C239.618 181.357 244.72 187.112 247.621 188.949C247.213 188.744 241.875 186.142 238.891 189.036C235.787 192.054 233.539 200.421 233.539 200.421C233.539 200.421 226.022 189.284 225.244 184.036C224.474 178.789 224.536 173.269 227.688 171.029C235.142 165.719 232.959 174.269 236.295 177.814Z" fill="#FFD870"/>
</g>
</g>
<g opacity="0.399994">
<g opacity="0.399994">
<path opacity="0.399994" d="M238.845 241.057L235.5 244.302C237.79 238.413 236.682 229.308 236.537 228.2C236.537 228.193 236.537 228.186 236.537 228.186C236.537 228.082 236.521 227.998 236.504 227.928C236.376 227.436 236.187 226.222 235.978 224.563C235.932 224.194 235.886 223.804 235.836 223.393C235.784 222.981 235.735 222.55 235.686 222.104C235.657 221.895 235.636 221.672 235.608 221.457C235.6 221.366 235.592 221.276 235.576 221.192C235.483 220.336 235.386 219.438 235.285 218.504C235.259 218.248 235.233 217.997 235.2 217.74C235.159 217.294 235.11 216.842 235.062 216.389C235.053 216.319 235.05 216.244 235.041 216.167C235.015 215.909 234.983 215.645 234.958 215.373C234.901 214.844 234.85 214.316 234.793 213.78C234.745 213.321 234.704 212.862 234.657 212.402C234.572 211.54 234.486 210.677 234.406 209.843C234.348 209.217 234.289 208.598 234.227 208.007C234.216 207.867 234.203 207.735 234.191 207.603C234.4 208.591 238.209 226.726 240.385 230.953C241.206 232.552 240.441 236.674 238.845 241.057Z" fill="#FFD870"/>
</g>
</g>
<path d="M259.784 220.757C259.784 220.757 258.727 220.145 257.54 217.2C256.354 214.255 255.175 204.473 253.09 198.334C253.09 198.334 250.544 190.785 247.648 188.966C244.749 187.147 239.634 181.362 236.295 177.816C232.957 174.27 235.141 165.718 227.685 171.027C224.539 173.267 224.474 178.791 225.246 184.036C226.018 189.28 233.541 200.421 233.541 200.421C233.851 204.279 235.835 225.442 236.504 227.925" stroke="#0A1045" stroke-width="1.33333" stroke-miterlimit="10" stroke-linecap="round" stroke-linejoin="round"/>
<path d="M236.504 227.925C236.504 227.925 237.825 237.6 235.658 241.707" stroke="#0A1045" stroke-width="1.33333" stroke-miterlimit="10" stroke-linecap="round" stroke-linejoin="round"/>
<g opacity="0.199997">
<g opacity="0.199997">
<g opacity="0.199997">
<g opacity="0.699997">
<g opacity="0.699997">
<path opacity="0.699997" d="M107.986 239.762C107.986 239.762 112.743 261.847 102.437 277.916C92.1319 293.984 84.2051 298.268 80.6373 303.063C77.0703 307.857 63.1148 334.662 63.1148 334.662L46.8088 286.368L63.1148 226.622L107.986 239.762Z" fill="#0A1045"/>
</g>
</g>
</g>
</g>
</g>
<path d="M204.092 222.873L102.98 265.426L92.5574 269.815L72.9151 223.144L27.3035 114.765L138.838 67.8236L204.092 222.873Z" fill="white"/>
<path d="M110.021 87.996L61.8754 108.258C60.9714 108.638 60.5476 109.679 60.9278 110.583C61.308 111.487 62.3488 111.912 63.2527 111.531L111.398 91.2684C112.302 90.889 112.727 89.8475 112.346 88.9443C111.965 88.0403 110.925 87.6158 110.021 87.996Z" fill="#0A1045"/>
<path d="M100.815 99.7869L76.742 109.918C76.2904 110.108 76.0778 110.629 76.2679 111.08C76.458 111.532 76.9787 111.744 77.4303 111.554L101.504 101.424C101.955 101.233 102.167 100.713 101.977 100.26C101.787 99.8087 101.267 99.5968 100.815 99.7869Z" fill="#0A1045"/>
<path d="M140.421 161.501C140.421 161.501 141.437 169.478 138.467 170.727C135.756 171.868 132.185 167.588 129.067 168.9C125.948 170.213 128.409 181.519 125.402 182.785C122.394 184.051 118.772 179.405 116.178 180.496C113.585 181.588 115.153 187.404 112.479 188.53C110.272 189.459 107.113 184.835 104.588 183.821C104.053 183.605 103.548 183.551 103.085 183.746C100.439 184.859 101.753 197.005 99.469 197.966C98.7086 198.287 98.0526 198.338 97.4439 198.298C96.5445 198.235 95.7479 197.966 94.868 198.055C94.5607 198.087 94.2406 198.16 93.9054 198.302C91.9555 199.121 92.2223 205.514 90.4399 206.264C88.6575 207.014 86.8984 206.084 84.9958 206.884C83.0932 207.686 83.1247 211.009 80.2881 212.203L81.4881 215.053L150.7 185.926" fill="#E7E8ED"/>
<path d="M140.421 161.501C140.421 161.501 141.437 169.478 138.467 170.727C135.756 171.868 132.185 167.588 129.067 168.9C125.948 170.213 128.409 181.519 125.402 182.785C122.394 184.051 118.772 179.405 116.178 180.496C113.585 181.588 115.153 187.404 112.479 188.53C110.272 189.459 107.113 184.835 104.588 183.821C104.053 183.605 103.548 183.551 103.085 183.746C100.439 184.859 101.753 197.005 99.469 197.966C98.7086 198.287 98.0526 198.338 97.4439 198.298C96.5445 198.235 95.7479 197.966 94.868 198.055C94.5607 198.087 94.2406 198.16 93.9054 198.302C91.9555 199.121 92.2223 205.514 90.4399 206.264C88.6575 207.014 86.8984 206.084 84.9958 206.884C83.0932 207.686 83.1247 211.009 80.2881 212.203L81.4881 215.053L150.7 185.926" stroke="#0A1045" stroke-width="1.33333" stroke-miterlimit="10"/>
<path d="M67.4749 181.756L81.4875 215.053L153.954 184.556" stroke="#0A1045" stroke-width="1.33333" stroke-miterlimit="10" stroke-linecap="round" stroke-linejoin="round"/>
<path d="M145.99 174.733C145.99 174.733 145.648 174.313 145.136 173.815C144.24 172.951 142.819 171.852 141.74 172.307C140.683 172.751 140.589 174.506 140.61 176.381C140.636 178.663 140.834 181.119 139.687 181.601C138.711 182.012 137.835 181.394 136.938 180.721C135.911 179.952 134.854 179.113 133.59 179.645C131.452 180.545 132.104 183.328 131.351 185.71C130.969 186.928 130.216 188.04 128.54 188.747C126.694 189.524 124.822 188.761 123.06 187.557C120.082 185.526 117.409 182.239 115.677 182.968C112.922 184.128 115.96 191.586 112.997 192.834C111.342 193.53 107.916 188.309 104.588 183.821C101.957 180.268 99.3854 177.175 97.8051 177.84C94.2321 179.344 100.12 197.175 97.5226 198.267C97.497 198.278 97.47 198.29 97.4437 198.298C96.3631 198.725 95.5659 198.454 94.8678 198.055C93.9307 197.525 93.1696 196.773 92.1348 197.208C90.2217 198.013 91.3436 205.004 89.2343 205.892C87.1221 206.78 85.8604 205.495 83.4867 206.495C81.4781 207.339 80.2878 212.202 80.2878 212.202L81.4879 215.053L150.7 185.926" fill="#CECFDA"/>
<path d="M145.99 174.733C145.99 174.733 145.648 174.313 145.136 173.815C144.24 172.951 142.819 171.852 141.74 172.307C140.683 172.751 140.589 174.506 140.61 176.381C140.636 178.663 140.834 181.119 139.687 181.601C138.711 182.012 137.835 181.394 136.938 180.721C135.911 179.952 134.854 179.113 133.59 179.645C131.452 180.545 132.104 183.328 131.351 185.71C130.969 186.928 130.216 188.04 128.54 188.747C126.694 189.524 124.822 188.761 123.06 187.557C120.082 185.526 117.409 182.239 115.677 182.968C112.922 184.128 115.96 191.586 112.997 192.834C111.342 193.53 107.916 188.309 104.588 183.821C101.957 180.268 99.3854 177.175 97.8051 177.84C94.2321 179.344 100.12 197.175 97.5226 198.267C97.497 198.278 97.47 198.29 97.4437 198.298C96.3631 198.725 95.5659 198.454 94.8678 198.055C93.9308 197.525 93.1696 196.773 92.1348 197.208C90.2217 198.013 91.3436 205.004 89.2343 205.892C87.1221 206.78 85.8604 205.495 83.4867 206.495C81.4781 207.339 80.2878 212.202 80.2878 212.202L81.4879 215.053L150.7 185.926" stroke="#0A1045" stroke-width="1.33333" stroke-miterlimit="10" stroke-linecap="round" stroke-linejoin="round"/>
<path d="M131.342 198.505L107.27 208.636C106.818 208.826 106.605 209.347 106.795 209.798C106.986 210.251 107.506 210.463 107.958 210.273L132.031 200.142C132.483 199.952 132.695 199.431 132.505 198.979C132.315 198.527 131.795 198.315 131.342 198.505Z" fill="#0A1045"/>
<path d="M151.755 161.802L149.429 162.78C149.189 162.882 148.914 162.769 148.812 162.529L147.834 160.204C147.733 159.964 147.845 159.688 148.085 159.588L150.41 158.609C150.65 158.508 150.926 158.621 151.027 158.859L152.006 161.186C152.107 161.425 151.994 161.701 151.755 161.802Z" fill="#E7E8ED"/>
<path d="M151.755 161.802L149.429 162.78C149.189 162.882 148.914 162.769 148.812 162.529L147.834 160.204C147.733 159.964 147.845 159.688 148.085 159.588L150.41 158.609C150.65 158.508 150.926 158.621 151.027 158.859L152.006 161.186C152.107 161.425 151.994 161.701 151.755 161.802Z" stroke="#0A1045" stroke-width="1.33333" stroke-miterlimit="10"/>
<path d="M162.988 154.687L153.367 158.736C153.164 158.821 152.931 158.726 152.846 158.523C152.761 158.32 152.856 158.087 153.058 158.002L162.679 153.953C162.882 153.868 163.115 153.963 163.2 154.166C163.285 154.368 163.191 154.602 162.988 154.687Z" fill="#0A1045"/>
<path d="M160.724 157.519L154.039 160.332C153.836 160.418 153.603 160.323 153.518 160.12C153.432 159.917 153.527 159.684 153.73 159.599L160.415 156.785C160.618 156.7 160.851 156.796 160.937 156.998C161.022 157.201 160.927 157.434 160.724 157.519Z" fill="#0A1045"/>
<path d="M154.765 168.954L152.439 169.933C152.2 170.034 151.924 169.921 151.822 169.681L150.844 167.356C150.742 167.117 150.855 166.84 151.095 166.739L153.421 165.76C153.66 165.66 153.936 165.772 154.037 166.012L155.016 168.338C155.117 168.577 155.005 168.853 154.765 168.954Z" fill="#CECFDA"/>
<path d="M154.765 168.954L152.439 169.933C152.2 170.034 151.924 169.921 151.822 169.681L150.844 167.356C150.742 167.117 150.855 166.84 151.095 166.739L153.421 165.76C153.66 165.66 153.936 165.772 154.037 166.012L155.016 168.338C155.117 168.577 155.005 168.853 154.765 168.954Z" stroke="#0A1045" stroke-width="1.33333" stroke-miterlimit="10" stroke-linecap="round" stroke-linejoin="round"/>
<path d="M165.998 161.839L156.377 165.888C156.174 165.973 155.941 165.878 155.856 165.675C155.771 165.472 155.865 165.239 156.068 165.154L165.689 161.105C165.892 161.02 166.125 161.115 166.21 161.318C166.295 161.52 166.2 161.754 165.998 161.839Z" fill="#0A1045"/>
<path d="M163.734 164.671L157.05 167.485C156.846 167.57 156.613 167.475 156.528 167.272C156.442 167.069 156.538 166.836 156.74 166.751L163.425 163.937C163.628 163.852 163.861 163.947 163.947 164.15C164.032 164.353 163.937 164.586 163.734 164.671Z" fill="#0A1045"/>
<path d="M178.649 191.325L100.508 224.211C100.055 224.402 99.8432 224.922 100.033 225.374C100.223 225.826 100.744 226.038 101.196 225.847L179.337 192.962C179.79 192.772 180.002 192.251 179.812 191.799C179.621 191.347 179.101 191.135 178.649 191.325Z" fill="#0A1045"/>
<path d="M181.125 197.209L90.2616 235.449C89.8099 235.64 89.5973 236.16 89.7874 236.612C89.9775 237.064 90.4983 237.275 90.9499 237.085L181.814 198.846C182.266 198.656 182.478 198.135 182.287 197.683C182.097 197.231 181.577 197.019 181.125 197.209Z" fill="#0A1045"/>
<path d="M183.602 203.093L92.7377 241.333C92.2861 241.523 92.0742 242.044 92.2643 242.495C92.4544 242.948 92.9752 243.16 93.4268 242.969L184.29 204.73C184.742 204.539 184.954 204.019 184.764 203.567C184.574 203.115 184.053 202.903 183.602 203.093Z" fill="#0A1045"/>
<path d="M186.077 208.978L95.2142 247.218C94.7626 247.408 94.5499 247.928 94.74 248.38C94.9301 248.832 95.4509 249.044 95.9025 248.854L186.767 210.614C187.218 210.423 187.431 209.903 187.24 209.451C187.05 208.999 186.53 208.787 186.077 208.978Z" fill="#0A1045"/>
<path d="M150.388 230.923L97.6901 253.101C97.2385 253.291 97.0266 253.811 97.2167 254.264C97.4068 254.715 97.9276 254.927 98.3792 254.737L151.077 232.56C151.528 232.37 151.74 231.849 151.55 231.397C151.36 230.945 150.84 230.733 150.388 230.923Z" fill="#0A1045"/>
<path d="M121.364 116.219C121.364 116.219 122.38 124.195 119.41 125.445C116.699 126.586 113.127 122.307 110.01 123.619C106.891 124.931 109.352 136.237 106.345 137.503C103.337 138.768 99.714 134.123 97.1209 135.215C94.5277 136.306 96.0959 142.122 93.4216 143.247C91.2146 144.176 88.0564 139.553 85.5309 138.539C84.9958 138.323 84.4909 138.269 84.028 138.464C81.3822 139.577 82.695 151.723 80.4121 152.684C79.6517 153.004 78.9957 153.056 78.3863 153.016C77.4876 152.953 76.6911 152.685 75.8111 152.773C75.5038 152.805 75.1837 152.878 74.8478 153.019C72.8986 153.839 73.1646 160.231 71.3822 160.982C69.5998 161.732 67.8415 160.802 65.9389 161.602C64.0363 162.403 64.0678 165.726 61.2312 166.92L62.4305 169.771L131.643 140.643" fill="#E7E8ED"/>
<path d="M121.364 116.219C121.364 116.219 122.38 124.195 119.41 125.445C116.699 126.586 113.127 122.307 110.01 123.619C106.891 124.931 109.352 136.237 106.345 137.503C103.337 138.768 99.714 134.123 97.1209 135.215C94.5277 136.306 96.0959 142.122 93.4216 143.247C91.2146 144.176 88.0564 139.553 85.5309 138.539C84.9958 138.323 84.4909 138.269 84.028 138.464C81.3822 139.577 82.695 151.723 80.4121 152.684C79.6517 153.004 78.9957 153.056 78.3863 153.016C77.4876 152.953 76.6911 152.685 75.8111 152.773C75.5038 152.805 75.1837 152.878 74.8478 153.019C72.8986 153.839 73.1646 160.231 71.3822 160.982C69.5998 161.732 67.8415 160.802 65.9389 161.602C64.0363 162.403 64.0678 165.726 61.2312 166.92L62.4305 169.771L131.643 140.643" stroke="#0A1045" stroke-width="1.33333" stroke-miterlimit="10"/>
<path d="M125.837 126.848C125.837 126.848 126.472 130.714 124.941 131.358C123.672 131.893 122.892 131.149 121.554 131.099C121.02 131.078 120.397 131.169 119.618 131.497C118.395 132.012 118.098 133.662 117.881 135.439C117.614 137.622 117.472 139.995 115.873 140.668C114.754 141.139 113.544 140.864 112.294 140.428C110.307 139.735 108.215 138.64 106.198 139.488C105.221 139.9 104.535 140.964 104.002 142.275C102.748 145.379 102.354 149.874 100.995 150.446C99.0634 151.259 95.5256 147.938 93.8101 148.66C92.0954 149.381 92.798 152.361 91.4063 152.947C90.0147 153.533 89.2204 151.805 86.77 152.836C84.3189 153.868 85.5129 157.485 82.0601 158.939C78.6073 160.392 77.0894 157.719 73.7463 159.126C70.4054 160.532 71.0118 163.065 68.6569 164.056C66.3019 165.046 65.3063 163.324 63.6186 164.034C61.9842 164.722 61.5348 167.411 61.5085 167.579L62.4305 169.771L131.643 140.643" fill="#650AFF"/>
<path d="M125.837 126.848C125.837 126.848 126.472 130.714 124.941 131.358C123.672 131.893 122.892 131.149 121.554 131.099C121.02 131.078 120.397 131.169 119.618 131.497C118.395 132.012 118.098 133.662 117.881 135.439C117.614 137.622 117.472 139.995 115.873 140.668C114.754 141.139 113.544 140.864 112.294 140.428C110.307 139.735 108.215 138.64 106.198 139.488C105.221 139.9 104.535 140.964 104.002 142.275C102.748 145.379 102.354 149.874 100.995 150.446C99.0634 151.259 95.5256 147.938 93.8101 148.66C92.0954 149.381 92.798 152.361 91.4063 152.947C90.0147 153.533 89.2204 151.805 86.77 152.836C84.3189 153.868 85.5129 157.485 82.0601 158.939C78.6073 160.392 77.0894 157.719 73.7463 159.126C70.4054 160.532 71.0118 163.065 68.6569 164.056C66.3019 165.046 65.3063 163.324 63.6186 164.034C61.9842 164.722 61.5348 167.411 61.5085 167.579L62.4305 169.771L131.643 140.643" stroke="#0A1045" stroke-width="1.33333" stroke-miterlimit="10"/>
<path d="M48.418 136.474L62.4306 169.771L134.897 139.274" stroke="#0A1045" stroke-width="1.33333" stroke-miterlimit="10" stroke-linecap="round" stroke-linejoin="round"/>
<path d="M112.068 152.706L87.9948 162.837C87.5425 163.027 87.3305 163.548 87.5207 163.999C87.7108 164.452 88.2315 164.663 88.6831 164.473L112.757 154.343C113.208 154.153 113.42 153.632 113.23 153.179C113.04 152.728 112.519 152.516 112.068 152.706Z" fill="#0A1045"/>
<path d="M131.481 113.629L129.156 114.608C128.916 114.709 128.64 114.596 128.539 114.357L127.56 112.031C127.46 111.791 127.572 111.516 127.812 111.415L130.137 110.436C130.377 110.335 130.653 110.448 130.754 110.687L131.732 113.013C131.834 113.253 131.721 113.529 131.481 113.629Z" fill="#E7E8ED"/>
<path d="M131.481 113.629L129.156 114.608C128.916 114.709 128.64 114.596 128.539 114.357L127.56 112.031C127.46 111.791 127.572 111.516 127.812 111.415L130.137 110.436C130.377 110.335 130.653 110.448 130.754 110.687L131.732 113.013C131.834 113.253 131.721 113.529 131.481 113.629Z" stroke="#0A1045" stroke-width="1.33333" stroke-miterlimit="10"/>
<path d="M142.715 106.515L133.094 110.563C132.891 110.649 132.658 110.554 132.573 110.351C132.488 110.148 132.582 109.915 132.785 109.83L142.406 105.78C142.609 105.696 142.842 105.79 142.927 105.993C143.012 106.196 142.918 106.429 142.715 106.515Z" fill="#0A1045"/>
<path d="M140.451 109.347L133.766 112.16C133.563 112.245 133.33 112.15 133.245 111.947C133.159 111.745 133.254 111.512 133.457 111.427L140.142 108.613C140.345 108.528 140.578 108.622 140.664 108.825C140.748 109.028 140.654 109.261 140.451 109.347Z" fill="#0A1045"/>
<path d="M134.491 120.781L132.166 121.761C131.926 121.861 131.65 121.748 131.549 121.509L130.57 119.183C130.47 118.943 130.582 118.668 130.821 118.567L133.147 117.588C133.387 117.487 133.663 117.6 133.764 117.839L134.742 120.165C134.843 120.405 134.731 120.681 134.491 120.781Z" fill="#FFD870"/>
<path d="M134.491 120.781L132.166 121.761C131.926 121.861 131.65 121.748 131.549 121.509L130.57 119.183C130.47 118.943 130.582 118.668 130.821 118.567L133.147 117.588C133.387 117.487 133.663 117.6 133.764 117.839L134.742 120.165C134.843 120.405 134.731 120.681 134.491 120.781Z" stroke="#0A1045" stroke-width="1.33333" stroke-miterlimit="10"/>
<path d="M145.724 113.667L136.104 117.715C135.901 117.8 135.668 117.706 135.582 117.503C135.497 117.3 135.593 117.067 135.795 116.982L145.415 112.932C145.618 112.848 145.851 112.942 145.937 113.145C146.022 113.348 145.927 113.581 145.724 113.667Z" fill="#0A1045"/>
<path d="M143.461 116.499L136.776 119.312C136.573 119.398 136.34 119.302 136.255 119.099C136.169 118.897 136.264 118.663 136.467 118.578L143.152 115.765C143.355 115.679 143.588 115.775 143.674 115.978C143.759 116.181 143.664 116.414 143.461 116.499Z" fill="#0A1045"/>
<g opacity="0.199997">
<g opacity="0.199997">
<g opacity="0.199997">
<g opacity="0.699997">
<g opacity="0.699997">
<path opacity="0.699997" d="M102.98 265.426L92.5576 269.815L72.9153 223.144C74.1476 221.972 75.5904 219.965 76.199 216.704C77.3712 210.453 76.5447 190.351 92.1969 188.278C107.842 186.203 94.6466 221.4 95.3679 228.111C96.0292 234.22 104.949 251.977 102.98 265.426Z" fill="#0A1045"/>
</g>
</g>
</g>
</g>
</g>
<path d="M204.092 222.873L102.98 265.426L92.5574 269.815L72.9151 223.144L27.3035 114.765L138.838 67.8236L204.092 222.873Z" stroke="#0A1045" stroke-width="1.33333" stroke-miterlimit="10" stroke-linecap="round" stroke-linejoin="round"/>
<path d="M96.6837 230.654C98.4375 224.656 105.291 205.397 104.392 196.882C104.311 196.119 104.145 195.428 103.912 194.809C101.506 188.451 91.6754 189.067 87.9018 194.335C83.7561 200.129 80.3695 210.555 80.0809 216.901C79.9224 220.41 78.4187 223.629 77.1075 225.811C77.1007 225.824 77.1015 225.832 77.0947 225.839C76.0352 227.596 75.1057 228.664 75.1057 228.664L52.6779 175.449C52.6779 175.449 49.0552 178.375 46.8085 181.999C45.9022 183.453 45.2215 185.028 45.0854 186.56C44.6256 191.801 38.6885 213.336 36.2209 222.425C36.1735 222.621 36.1187 222.802 36.0706 222.984C33.6983 231.716 39.9637 264.149 38.1716 273.568C36.3734 282.982 35.2665 282.779 35.005 289.469C34.8149 294.354 27.8267 309.205 19.9983 324.45C15.5093 333.187 10.7415 342.045 6.81226 349.224L64.1612 346.842C65.1553 339.876 66.1735 332.519 67.1045 325.402C67.487 322.471 68.1077 319.461 68.8178 316.6V316.592C70.0839 311.484 71.6251 306.861 72.5629 304.155C74.0312 299.929 75.5558 292.061 75.5558 292.061C82.2247 285.001 90.9713 273.904 93.5051 266.387C93.5112 266.373 93.5179 266.353 93.5239 266.337C94.1634 264.439 94.3979 262.772 94.095 261.458C93.8425 260.378 93.7013 258.974 93.6412 257.353C93.6479 257.346 93.6479 257.346 93.6404 257.34C93.3511 249.201 95.2124 235.654 96.6837 230.654Z" fill="white"/>
<g opacity="0.399994">
<g opacity="0.399994">
<path opacity="0.399994" d="M77.0949 225.839C75.3155 229.408 73.1732 232.874 71.8063 236.876C70.4387 240.877 68.9704 241.442 64.9563 244.572C60.9414 247.702 58.0131 242.546 58.0131 242.546C58.0131 242.546 63.3235 237.028 61.5591 233.958C59.7872 230.882 53.1845 223.24 53.5752 219.024C53.9599 214.808 49.5678 205.355 49.5678 205.355C49.5678 205.355 59.5814 199.476 57.6382 192.607C56.5771 188.846 51.3337 184.843 46.8086 181.999C49.0554 178.375 52.6772 175.448 52.6772 175.448L75.1058 228.664C75.1058 228.664 76.0346 227.596 77.0949 225.839Z" fill="#FFD870"/>
</g>
</g>
<g opacity="0.399994">
<g opacity="0.399994">
<path opacity="0.399994" d="M40.7226 258.481C40.8587 258.932 44.1176 269.703 41.3681 274.189C38.554 278.775 35.7918 284.623 37.1368 290.714C38.2091 295.581 29.1928 313.168 19.9983 324.45C27.8267 309.205 34.8149 294.354 35.0058 289.47C35.2665 282.78 36.3734 282.982 38.1716 273.569C39.9637 264.149 33.6983 231.716 36.0713 222.984C36.1187 222.802 36.1735 222.62 36.2208 222.425C37.9717 232.32 42.0504 252.03 43.17 258.366C44.5963 266.436 40.8744 258.799 40.7226 258.481Z" fill="#FFD870"/>
</g>
</g>
<g opacity="0.399994">
<g opacity="0.399994">
<path opacity="0.399994" d="M61.373 323.457C68.0352 294.763 90.4676 272.758 93.5048 266.387C90.9718 273.904 82.2251 285.001 75.5555 292.061C75.5555 292.061 74.0308 299.929 72.5625 304.155C71.6255 306.861 70.0836 311.484 68.8174 316.592V316.6C62.3048 324.275 61.373 323.457 61.373 323.457Z" fill="#FFD870"/>
</g>
</g>
<g opacity="0.399994">
<g opacity="0.399994">
<path opacity="0.399994" d="M96.6836 230.654C95.2123 235.654 93.351 249.201 93.6403 257.34C92.4613 252.229 90.1882 245.741 89.8133 236.701C89.1768 221.372 97.8595 226.869 94.8313 219.321C91.8038 211.779 83.1706 221.449 87.4245 205.461C90.5316 193.79 99.3707 193.9 103.912 194.809C104.145 195.428 104.311 196.119 104.392 196.882C105.291 205.397 98.4374 224.656 96.6836 230.654Z" fill="#FFD870"/>
</g>
</g>
<path d="M15.533 333.397C22.7264 320.259 29.7176 306.741 34.7582 292.16C35.3616 290.063 34.5576 287.333 35.1617 285.236C41.9734 266.303 34.2472 246.593 35.5142 227.2C36.5782 219.558 39.0211 211.858 41.4647 204.158C42.6144 198.585 43.0465 192.35 44.886 186.748C46.7826 182.525 48.6506 177.612 52.6775 175.449C60.3421 193.014 67.9818 210.655 75.1053 228.664C78.323 226.804 78.8407 222.638 79.387 219.161C81.1115 210.801 82.8653 203.13 86.0266 196.091C89.2457 190.432 97.434 188.019 102.462 192.645C103.898 193.967 104.673 196.007 104.76 198.076C103.781 207.787 100.734 217.584 97.6587 226.691C96.4519 230.886 95.2158 234.39 94.6981 238.556C94.7552 239.936 94.7837 240.625 94.8408 242.004C93.0592 248.985 94.6958 255.134 94.2923 262.058C92.7398 274.555 82.7398 283.26 75.5269 292.539C73.7453 299.52 71.9629 306.502 69.4907 313.512C66.4729 323.998 65.5231 334.398 64.4937 344.507" stroke="#0A1045" stroke-width="1.33333" stroke-miterlimit="10" stroke-linecap="round" stroke-linejoin="round"/>
<path d="M75.1074 228.664C75.1074 228.664 72.7449 233.193 71.8049 236.876C70.8648 240.558 66.106 240.027 63.6511 242.315" stroke="#0A1045" stroke-width="1.33333" stroke-miterlimit="10" stroke-linecap="round" stroke-linejoin="round"/>
<path d="M57.1675 222.181C57.1675 222.181 63.638 224.462 67.4042 227.404C71.1696 230.344 73.9566 231.062 73.9566 231.062" stroke="#0A1045" stroke-width="1.33333" stroke-miterlimit="10" stroke-linecap="round" stroke-linejoin="round"/>
<path d="M53.0398 206.139C53.0398 206.139 58.2607 207.603 62.1328 205.762C62.1328 205.762 62.4199 202.564 63.1142 200.211" stroke="#0A1045" stroke-width="1.33333" stroke-miterlimit="10" stroke-linecap="round" stroke-linejoin="round"/>
<path d="M63.3765 206.52C63.3765 206.52 63.4306 207.248 66.0929 207.278" stroke="#0A1045" stroke-width="1.33333" stroke-miterlimit="10" stroke-linecap="round" stroke-linejoin="round"/>
<path d="M75.5547 292.065C75.5547 292.065 70.4638 296.684 67.3484 305.011" stroke="#0A1045" stroke-width="1.33333" stroke-miterlimit="10" stroke-linecap="round" stroke-linejoin="round"/>
<path d="M35.7607 224.589C35.527 229.088 40.8125 245.085 42.4176 253.034C44.0234 260.983 44.6208 266.606 44.6208 266.606" stroke="#0A1045" stroke-width="1.33333" stroke-miterlimit="10" stroke-linecap="round" stroke-linejoin="round"/>
</svg>
