<svg width="335" height="321" viewBox="0 0 335 321" fill="none" xmlns="http://www.w3.org/2000/svg">
<path d="M293.859 318.958C293.859 318.958 364.433 222.345 320.714 148.092C276.996 73.8377 190.13 124.799 173.597 55.5016C157.063 -13.7955 96.6971 -25.1591 39.4536 61.5C-17.79 148.16 -4.09932 268.667 26.216 318.958H293.859Z" fill="#F5F0FF"/>
<path d="M15.614 318.958H330.223" stroke="#263238" stroke-width="1.33333" stroke-miterlimit="10" stroke-linecap="round" stroke-linejoin="round"/>
<path d="M46.8489 66.4542H66.541V58.5432H46.8489V66.4542Z" stroke="#263238" stroke-width="1.33333" stroke-miterlimit="10" stroke-linecap="round" stroke-linejoin="round"/>
<path d="M62.6211 75.505H82.314V67.594H62.6211V75.505Z" stroke="#263238" stroke-width="1.33333" stroke-miterlimit="10" stroke-linecap="round" stroke-linejoin="round"/>
<path d="M107.831 126.794H127.523V118.883H107.831V126.794Z" stroke="#263238" stroke-width="1.33333" stroke-miterlimit="10" stroke-linecap="round" stroke-linejoin="round"/>
<path d="M97.9854 137.236H117.677V129.325H97.9854V137.236Z" stroke="#263238" stroke-width="1.33333" stroke-miterlimit="10" stroke-linecap="round" stroke-linejoin="round"/>
<path d="M37.0024 201.094H56.6946V193.183H37.0024V201.094Z" stroke="#263238" stroke-width="1.33333" stroke-miterlimit="10" stroke-linecap="round" stroke-linejoin="round"/>
<path d="M47.7924 210.935H67.4845V203.025H47.7924V210.935Z" stroke="#263238" stroke-width="1.33333" stroke-miterlimit="10" stroke-linecap="round" stroke-linejoin="round"/>
<path d="M162.504 220.335H182.197V212.425H162.504V220.335Z" stroke="#263238" stroke-width="1.33333" stroke-miterlimit="10" stroke-linecap="round" stroke-linejoin="round"/>
<path d="M152.098 230.866H171.79V222.956H152.098V230.866Z" stroke="#263238" stroke-width="1.33333" stroke-miterlimit="10" stroke-linecap="round" stroke-linejoin="round"/>
<path d="M43.2234 272.202H62.9163V264.292H43.2234V272.202Z" stroke="#263238" stroke-width="1.33333" stroke-miterlimit="10" stroke-linecap="round" stroke-linejoin="round"/>
<path d="M59.069 201.094H78.7611V193.183H59.069V201.094Z" stroke="#263238" stroke-width="1.33333" stroke-miterlimit="10" stroke-linecap="round" stroke-linejoin="round"/>
<path d="M152.682 170.197C133.537 170.407 113.803 170.407 95.2485 170.197" stroke="#263238" stroke-width="1.33333" stroke-miterlimit="10" stroke-linecap="round" stroke-linejoin="round"/>
<path d="M160.568 170.197H155.755" stroke="#263238" stroke-width="1.33333" stroke-miterlimit="10" stroke-linecap="round" stroke-linejoin="round"/>
<path d="M316.941 282.027C297.796 282.237 278.062 282.237 259.507 282.027" stroke="#263238" stroke-width="1.33333" stroke-miterlimit="10" stroke-linecap="round" stroke-linejoin="round"/>
<path d="M324.827 282.027H320.014" stroke="#263238" stroke-width="1.33333" stroke-miterlimit="10" stroke-linecap="round" stroke-linejoin="round"/>
<path d="M235.114 41.1072C215.969 41.3172 196.235 41.3172 177.68 41.1072" stroke="#263238" stroke-width="1.33333" stroke-miterlimit="10" stroke-linecap="round" stroke-linejoin="round"/>
<path d="M243.001 41.1072H238.187" stroke="#263238" stroke-width="1.33333" stroke-miterlimit="10" stroke-linecap="round" stroke-linejoin="round"/>
<path d="M65.0259 99.186C56.6263 99.3297 48.2244 99.3565 39.8248 99.276" stroke="#263238" stroke-width="1.33333" stroke-miterlimit="10" stroke-linecap="round" stroke-linejoin="round"/>
<path d="M227.25 266.158C218.849 266.301 210.448 266.328 202.048 266.247" stroke="#263238" stroke-width="1.33333" stroke-miterlimit="10" stroke-linecap="round" stroke-linejoin="round"/>
<path d="M62.0338 251.848H64.7492" stroke="#263238" stroke-width="1.33333" stroke-miterlimit="10" stroke-linecap="round" stroke-linejoin="round"/>
<path d="M33.418 251.848H58.9498" stroke="#263238" stroke-width="1.33333" stroke-miterlimit="10" stroke-linecap="round" stroke-linejoin="round"/>
<path d="M129.753 19.9456H132.468" stroke="#263238" stroke-width="1.33333" stroke-miterlimit="10" stroke-linecap="round" stroke-linejoin="round"/>
<path d="M101.137 19.9456H126.669" stroke="#263238" stroke-width="1.33333" stroke-miterlimit="10" stroke-linecap="round" stroke-linejoin="round"/>
<path d="M302.957 242.979H283.265V250.89H302.957V242.979Z" stroke="#263238" stroke-width="1.33333" stroke-miterlimit="10" stroke-linecap="round" stroke-linejoin="round"/>
<path d="M287.184 233.928H267.492V241.839H287.184V233.928Z" stroke="#263238" stroke-width="1.33333" stroke-miterlimit="10" stroke-linecap="round" stroke-linejoin="round"/>
<path d="M241.975 182.64H222.283V190.55H241.975V182.64Z" stroke="#263238" stroke-width="1.33333" stroke-miterlimit="10" stroke-linecap="round" stroke-linejoin="round"/>
<path d="M251.82 172.197H232.128V180.108H251.82V172.197Z" stroke="#263238" stroke-width="1.33333" stroke-miterlimit="10" stroke-linecap="round" stroke-linejoin="round"/>
<path d="M312.802 108.34H293.11V116.251H312.802V108.34Z" stroke="#263238" stroke-width="1.33333" stroke-miterlimit="10" stroke-linecap="round" stroke-linejoin="round"/>
<path d="M302.013 98.4974H282.321V106.408H302.013V98.4974Z" stroke="#263238" stroke-width="1.33333" stroke-miterlimit="10" stroke-linecap="round" stroke-linejoin="round"/>
<path d="M187.301 89.0977H167.609V97.0087H187.301V89.0977Z" stroke="#263238" stroke-width="1.33333" stroke-miterlimit="10" stroke-linecap="round" stroke-linejoin="round"/>
<path d="M197.707 78.5669H178.015V86.4771H197.707V78.5669Z" stroke="#263238" stroke-width="1.33333" stroke-miterlimit="10" stroke-linecap="round" stroke-linejoin="round"/>
<path d="M260.617 20.2561H240.925V28.1671H260.617V20.2561Z" stroke="#263238" stroke-width="1.33333" stroke-miterlimit="10" stroke-linecap="round" stroke-linejoin="round"/>
<path d="M290.736 108.34H271.044V116.251H290.736V108.34Z" stroke="#263238" stroke-width="1.33333" stroke-miterlimit="10" stroke-linecap="round" stroke-linejoin="round"/>
<path d="M197.123 139.236C216.269 139.027 236.003 139.027 254.558 139.236" stroke="#263238" stroke-width="1.33333" stroke-miterlimit="10" stroke-linecap="round" stroke-linejoin="round"/>
<path d="M189.237 139.236H194.051" stroke="#263238" stroke-width="1.33333" stroke-miterlimit="10" stroke-linecap="round" stroke-linejoin="round"/>
<path d="M284.78 210.247C293.179 210.103 301.58 210.077 309.981 210.158" stroke="#263238" stroke-width="1.33333" stroke-miterlimit="10" stroke-linecap="round" stroke-linejoin="round"/>
<path d="M287.772 57.5851H285.056" stroke="#263238" stroke-width="1.33333" stroke-miterlimit="10" stroke-linecap="round" stroke-linejoin="round"/>
<path d="M316.387 57.5851H290.855" stroke="#263238" stroke-width="1.33333" stroke-miterlimit="10" stroke-linecap="round" stroke-linejoin="round"/>
<path d="M254.047 115.871L240.866 105.831C240.866 105.831 224.871 75.5662 223.962 74.4966L219.182 80.6765C219.182 80.6765 228.192 106.999 229.529 110.67C230.865 114.34 236.348 118.485 239.04 121.302C241.731 124.119 252.219 131.529 252.219 131.529L254.047 115.871Z" fill="white"/>
<path d="M254.047 115.871L240.866 105.831C240.866 105.831 224.871 75.5662 223.962 74.4966L219.182 80.6765C219.182 80.6765 228.192 106.999 229.529 110.67C230.865 114.34 236.348 118.485 239.04 121.302C241.731 124.119 252.219 131.529 252.219 131.529L254.047 115.871Z" stroke="#263238" stroke-width="1.33333" stroke-miterlimit="10" stroke-linecap="round" stroke-linejoin="round"/>
<path d="M188.321 204.493H176.16C168.554 204.493 162.272 198.557 161.843 190.963L161.182 179.285H203.299L202.639 190.963C202.209 198.557 195.927 204.493 188.321 204.493Z" fill="#263238"/>
<path d="M245.628 94.6846C245.628 59.1681 216.418 30.4749 180.712 31.3156C146.444 32.1223 118.775 60.5558 118.853 94.833C118.892 111.702 125.527 127.014 136.309 138.346C142.769 145.135 147.464 153.404 149.611 162.525L150.03 164.305H214.452L214.697 163.262C216.933 153.763 221.798 145.142 228.476 138.025C239.11 126.692 245.628 111.453 245.628 94.6846Z" fill="#FFD870"/>
<g opacity="0.399994">
<g opacity="0.399994">
<path opacity="0.399994" d="M182.036 145.872C150.781 145.872 125.444 120.535 125.444 89.2804C125.444 58.0257 150.781 32.6888 182.036 32.6888C213.291 32.6888 238.627 58.0257 238.627 89.2804C238.627 120.535 213.291 145.872 182.036 145.872ZM180.712 31.3154C146.444 32.1221 118.775 60.5556 118.854 94.8327C118.893 111.701 125.527 127.013 136.309 138.345C142.768 145.135 147.463 153.404 149.611 162.526L150.03 164.306H214.452L214.697 163.262C216.933 153.762 221.797 145.142 228.475 138.026C239.11 126.693 245.628 111.453 245.628 94.6843C245.628 59.1687 216.419 30.4747 180.712 31.3154Z" fill="white"/>
</g>
</g>
<path d="M245.628 94.6846C245.628 59.1681 216.418 30.4749 180.712 31.3156C146.444 32.1223 118.775 60.5558 118.853 94.833C118.892 111.702 125.527 127.014 136.309 138.346C142.769 145.135 147.464 153.404 149.611 162.525L150.03 164.305H214.452L214.697 163.262C216.933 153.763 221.798 145.142 228.476 138.025C239.11 126.692 245.628 111.453 245.628 94.6846Z" stroke="#263238" stroke-width="1.33333" stroke-miterlimit="10"/>
<path d="M160.61 196.308H203.871C210.804 192.463 215.64 185.26 216.118 176.818L217.215 157.423H147.266L148.362 176.818C148.84 185.26 153.677 192.463 160.61 196.308Z" fill="#CECFDA"/>
<path d="M160.61 196.308H203.871C210.804 192.463 215.64 185.26 216.118 176.818L217.215 157.423H147.266L148.362 176.818C148.84 185.26 153.677 192.463 160.61 196.308Z" stroke="#263238" stroke-width="1.33333" stroke-miterlimit="10" stroke-linecap="round" stroke-linejoin="round"/>
<path d="M216.89 164.464L148.889 169.954C147.456 170.07 146.201 169.002 146.085 167.57C145.97 166.137 147.037 164.882 148.47 164.767L216.471 159.277C217.903 159.161 219.158 160.229 219.274 161.66C219.39 163.094 218.323 164.349 216.89 164.464Z" fill="#CECFDA"/>
<path d="M216.89 164.464L148.889 169.954C147.456 170.07 146.201 169.002 146.085 167.57C145.97 166.137 147.037 164.882 148.47 164.767L216.471 159.277C217.903 159.161 219.158 160.229 219.274 161.66C219.39 163.094 218.322 164.349 216.89 164.464Z" stroke="#263238" stroke-width="1.33333" stroke-miterlimit="10" stroke-linecap="round" stroke-linejoin="round"/>
<path d="M216.878 174.756L149.601 180.188C148.169 180.303 146.913 179.236 146.798 177.803C146.682 176.371 147.749 175.116 149.182 175.001L216.458 169.568C217.891 169.452 219.146 170.52 219.262 171.953C219.377 173.386 218.309 174.641 216.878 174.756Z" fill="#CECFDA"/>
<path d="M216.878 174.756L149.601 180.188C148.169 180.303 146.913 179.236 146.798 177.803C146.682 176.371 147.749 175.116 149.182 175.001L216.458 169.568C217.891 169.452 219.146 170.52 219.262 171.953C219.377 173.386 218.309 174.641 216.878 174.756Z" stroke="#263238" stroke-width="1.33333" stroke-miterlimit="10" stroke-linecap="round" stroke-linejoin="round"/>
<path d="M214.82 185.27L152.828 190.275C151.395 190.39 150.14 189.323 150.025 187.89C149.909 186.458 150.976 185.203 152.409 185.087L214.401 180.082C215.834 179.966 217.089 181.034 217.205 182.467C217.32 183.899 216.252 185.154 214.82 185.27Z" fill="#CECFDA"/>
<path d="M214.82 185.27L152.828 190.275C151.395 190.39 150.14 189.323 150.025 187.89C149.909 186.458 150.976 185.203 152.409 185.087L214.401 180.082C215.834 179.966 217.089 181.034 217.205 182.467C217.32 183.899 216.252 185.154 214.82 185.27Z" stroke="#263238" stroke-width="1.33333" stroke-miterlimit="10" stroke-linecap="round" stroke-linejoin="round"/>
<path d="M231.529 306.085C231.529 306.085 232.961 314.859 231.529 318.959H202.494C202.494 318.959 201.267 315.886 202.494 313.951C203.721 312.015 212.922 310.906 215.785 308.291C218.648 305.675 221.715 301.177 221.715 301.177L231.529 306.085Z" fill="#263238"/>
<path d="M231.529 306.085C231.529 306.085 232.961 314.859 231.529 318.959H202.494C202.494 318.959 201.267 315.886 202.494 313.951C203.721 312.015 212.922 310.906 215.785 308.291C218.648 305.675 221.715 301.177 221.715 301.177L231.529 306.085Z" stroke="#263238" stroke-width="1.33333" stroke-miterlimit="10"/>
<path d="M201.948 317.412H231.909L232.165 318.958H201.948V317.412Z" fill="white"/>
<path d="M201.948 317.412H231.909L232.165 318.958H201.948V317.412Z" stroke="#263238" stroke-width="1.33333" stroke-miterlimit="10" stroke-linecap="round" stroke-linejoin="round"/>
<path d="M224.55 305.015C224.55 305.015 221.817 305.676 221.51 305.778C221.203 305.88 218.545 309.97 215.887 310.686C213.228 311.401 210.571 311.264 210.979 312.56" stroke="white" stroke-width="1.33333" stroke-miterlimit="10" stroke-linecap="round" stroke-linejoin="round"/>
<path d="M218.5 305.015L221.612 307.311" stroke="white" stroke-width="1.33333" stroke-miterlimit="10" stroke-linecap="round" stroke-linejoin="round"/>
<path d="M217.057 307.025L220.056 309.228" stroke="white" stroke-width="1.33333" stroke-miterlimit="10" stroke-linecap="round" stroke-linejoin="round"/>
<path d="M215.141 308.788L217.743 311.299" stroke="white" stroke-width="1.33333" stroke-miterlimit="10" stroke-linecap="round" stroke-linejoin="round"/>
<path d="M212.511 310.068L213.638 312.559" stroke="white" stroke-width="1.33333" stroke-miterlimit="10" stroke-linecap="round" stroke-linejoin="round"/>
<path d="M231.997 310.068C231.997 310.068 227.236 309.488 222.021 311.314C216.807 313.139 215.009 314.736 215.141 315.215C215.273 315.695 215.887 317.121 215.887 317.121H218.499C218.499 317.121 217.556 315.451 217.743 315.215C217.932 314.979 226.843 311.503 231.997 312.117V310.068Z" fill="white"/>
<path d="M273.937 318.958C273.937 318.958 275.055 314.686 273.747 313.103C271.397 310.26 274.034 307.877 271.676 306.889L270.689 308.037C270.497 306.872 271.046 303.335 266.673 302.874C261.387 302.316 261.286 306.164 261.001 307.43L261.088 305.66C258.834 305.66 260.002 307.91 256.584 311.591C253.975 314.4 253.97 318.002 254.114 318.958H273.937Z" fill="#263238"/>
<path d="M273.937 318.958C273.937 318.958 275.055 314.686 273.747 313.103C271.397 310.26 274.034 307.877 271.676 306.889L270.689 308.037C270.497 306.872 271.046 303.335 266.673 302.874C261.387 302.316 261.286 306.164 261.001 307.43L261.088 305.66C258.834 305.66 260.002 307.91 256.584 311.591C253.975 314.4 253.97 318.002 254.114 318.958H273.937Z" stroke="#263238" stroke-width="1.33333" stroke-miterlimit="10"/>
<path d="M254.096 317.412H274.382L273.937 318.958H254.114L254.096 317.412Z" fill="white"/>
<path d="M254.096 317.412H274.382L273.937 318.958H254.114L254.096 317.412Z" stroke="#263238" stroke-width="1.33333" stroke-miterlimit="10" stroke-linecap="round" stroke-linejoin="round"/>
<path d="M260.608 311.415C260.608 311.415 267.266 309.212 270.48 311.967" stroke="white" stroke-width="1.33333" stroke-miterlimit="10" stroke-linecap="round" stroke-linejoin="round"/>
<path d="M260.608 309.959C260.608 309.959 266.462 308.105 270.48 310.581" stroke="white" stroke-width="1.33333" stroke-miterlimit="10" stroke-linecap="round" stroke-linejoin="round"/>
<path d="M260.952 308.523C260.952 308.523 266.461 306.446 270.479 309.293" stroke="white" stroke-width="1.33333" stroke-miterlimit="10" stroke-linecap="round" stroke-linejoin="round"/>
<path d="M256.584 311.591L257.24 312.238C257.425 312.422 257.456 312.705 257.317 312.924C256.844 313.666 255.872 315.445 255.959 317.412H254.984C254.984 317.412 255.323 314.794 256.39 312.943L255.89 312.438L256.584 311.591Z" fill="white"/>
<path d="M236.75 264.818C236.75 264.818 232.442 272.141 225.157 270.582" stroke="#263238" stroke-width="1.33333" stroke-miterlimit="10" stroke-linecap="round" stroke-linejoin="round"/>
<path d="M241.305 181.434L238.476 187.413C238.476 187.413 226.81 211.532 219.66 239.147C219.49 239.8 215.792 252.884 218.757 285.457L217.066 291.172L218.912 300.612C218.912 300.612 216.136 304.628 216.235 305.939C216.235 305.939 223.091 307.219 225.374 308.447C227.155 309.403 232.496 314.677 232.496 314.677C234.01 314.364 234.142 308.238 234.142 308.238C234.142 308.238 237.314 253.866 238.221 251.52C239.125 249.174 244.696 239.075 253.371 215.957C253.371 215.957 253.566 248.25 255.885 256.418C257.947 263.684 255.504 284.026 255.504 284.026L256.897 306.668C256.897 306.668 252.017 311.74 255.976 313.1C255.976 313.1 258.62 308.011 266.154 306.855C269.984 306.268 274.76 313.069 274.76 313.069C276.433 312.532 274.046 303.988 274.046 303.988C279.387 263.684 275.444 270.98 276.512 251.281C277.196 238.641 280.785 184.551 276.576 180.156L241.305 181.434Z" fill="#757575"/>
<g opacity="0.199997">
<g opacity="0.199997">
<path opacity="0.199997" d="M278.593 200.056C259.731 201.543 243.392 195.37 236.308 192.145C237.65 189.121 238.478 187.412 238.478 187.412L241.306 181.436L276.578 180.159C278.097 181.743 278.599 189.805 278.593 200.056Z" fill="black"/>
</g>
</g>
<g opacity="0.199997">
<g opacity="0.199997">
<path opacity="0.199997" d="M253.214 216.369C244.63 239.194 239.117 249.185 238.218 251.518C237.703 252.867 236.438 271.331 235.454 286.829C234.32 272.732 233.16 257.853 233.056 254.933C232.847 249.126 237.045 241.155 237.676 239.096C238.308 237.043 236.882 234.807 236.882 234.807L244.435 225.285C244.181 222.053 248.176 207.949 248.176 207.949C250.555 210.198 252.647 214.988 253.214 216.369Z" fill="black"/>
</g>
</g>
<path d="M241.305 181.434L238.476 187.413C238.476 187.413 226.81 211.532 219.66 239.147C219.49 239.8 215.792 252.884 218.757 285.457L217.066 291.172L218.912 300.612C218.912 300.612 216.136 304.628 216.235 305.939C216.235 305.939 223.091 307.219 225.374 308.447C227.155 309.403 232.496 314.677 232.496 314.677C234.01 314.364 234.142 308.238 234.142 308.238C234.142 308.238 237.314 253.866 238.221 251.52C239.125 249.174 244.696 239.075 253.371 215.957C253.371 215.957 253.566 248.25 255.885 256.418C257.947 263.684 255.504 284.026 255.504 284.026L256.897 306.668C256.897 306.668 252.017 311.74 255.976 313.1C255.976 313.1 258.62 308.011 266.154 306.855C269.984 306.268 274.76 313.069 274.76 313.069C276.433 312.532 274.046 303.988 274.046 303.988C279.387 263.684 275.444 270.98 276.512 251.281C277.196 238.641 280.785 184.551 276.575 180.156L241.305 181.434Z" stroke="#263238" stroke-width="1.33333" stroke-miterlimit="10" stroke-linecap="round" stroke-linejoin="round"/>
<path d="M253.371 215.957C253.371 215.957 249.06 207.635 245.382 205.315" stroke="#263238" stroke-width="1.33333" stroke-miterlimit="10" stroke-linecap="round" stroke-linejoin="round"/>
<path d="M243.767 202.62C243.767 202.62 256.863 206.603 261.401 207.377" stroke="#263238" stroke-width="1.33333" stroke-miterlimit="10" stroke-linecap="round" stroke-linejoin="round"/>
<path d="M250.47 189.255C249.905 200.159 246.059 202.014 249.778 204.393C249.778 204.393 249.676 209.494 251.523 212.724" stroke="#263238" stroke-width="1.33333" stroke-miterlimit="10" stroke-linecap="round" stroke-linejoin="round"/>
<path d="M273.417 185.09C273.417 185.09 271.87 201.847 277.027 204.999" stroke="#263238" stroke-width="1.33333" stroke-miterlimit="10" stroke-linecap="round" stroke-linejoin="round"/>
<path d="M277.027 190.489C277.027 190.489 277.413 201.648 277.027 210.635C277.027 210.635 275.737 248.63 274.448 253.4C273.16 258.17 276.434 265.369 276.151 286.006" stroke="#263238" stroke-width="1.33333" stroke-miterlimit="10" stroke-linecap="round" stroke-linejoin="round"/>
<path d="M264.652 302.163C265.873 301.932 267.16 302.037 268.261 302.645" stroke="#263238" stroke-width="1.33333" stroke-miterlimit="10" stroke-linecap="round" stroke-linejoin="round"/>
<path d="M256.897 306.668C258.514 305.126 260.399 303.768 262.446 302.863" stroke="#263238" stroke-width="1.33333" stroke-miterlimit="10" stroke-linecap="round" stroke-linejoin="round"/>
<path d="M259.054 218.589C261.947 221.829 266.527 227.946 271.226 228.464" stroke="#263238" stroke-width="1.33333" stroke-miterlimit="10" stroke-linecap="round" stroke-linejoin="round"/>
<path d="M254.596 213.307C255.485 214.431 256.403 215.533 257.336 216.622" stroke="#263238" stroke-width="1.33333" stroke-miterlimit="10" stroke-linecap="round" stroke-linejoin="round"/>
<path d="M258.721 251.281C258.721 251.281 265.295 260.233 268.905 260.747" stroke="#263238" stroke-width="1.33333" stroke-miterlimit="10" stroke-linecap="round" stroke-linejoin="round"/>
<path d="M250.986 214.338C250.986 214.338 239.277 246.954 235.205 250.177C235.205 250.177 234.743 274.155 234.614 282.535C234.485 290.915 232.551 302.048 232.551 302.048" stroke="#263238" stroke-width="1.33333" stroke-miterlimit="10" stroke-linecap="round" stroke-linejoin="round"/>
<path d="M220.046 301.805C220.046 301.805 224.559 303.364 226.75 304.358C228.942 305.353 229.715 307.545 229.715 307.545" stroke="#263238" stroke-width="1.33333" stroke-miterlimit="10" stroke-linecap="round" stroke-linejoin="round"/>
<path d="M231.456 238.416C237.747 234.468 246.036 229.538 249.376 222.589" stroke="#263238" stroke-width="1.33333" stroke-miterlimit="10" stroke-linecap="round" stroke-linejoin="round"/>
<path d="M225.976 241.669C227.166 241.011 228.337 240.323 229.501 239.62" stroke="#263238" stroke-width="1.33333" stroke-miterlimit="10" stroke-linecap="round" stroke-linejoin="round"/>
<path d="M245.786 193.664C249.168 193.615 252.871 193.17 255.756 191.262" stroke="#263238" stroke-width="1.33333" stroke-miterlimit="10" stroke-linecap="round" stroke-linejoin="round"/>
<path d="M240.415 193.349C241.383 193.486 242.358 193.568 243.333 193.618" stroke="#263238" stroke-width="1.33333" stroke-miterlimit="10" stroke-linecap="round" stroke-linejoin="round"/>
<path d="M257.92 122.634C257.92 122.634 277.795 116.995 289.227 123.108C292.073 124.629 298.564 129.557 298.336 135.476C298.109 141.395 279.298 168.907 279.525 172.599C279.753 176.291 279.505 185.735 278.139 186.376C276.774 187.019 246.543 187.899 239.11 185.984C236.138 185.219 241.985 171.133 241.985 171.133C241.985 171.133 247.683 140.606 257.92 122.634Z" fill="white"/>
<path d="M257.92 122.634C257.92 122.634 277.795 116.995 289.227 123.108C292.073 124.629 298.564 129.557 298.336 135.476C298.109 141.395 279.298 168.907 279.525 172.599C279.753 176.291 279.505 185.735 278.139 186.376C276.774 187.019 246.543 187.899 239.11 185.984C236.138 185.219 241.985 171.133 241.985 171.133C241.985 171.133 247.683 140.606 257.92 122.634V122.634Z" stroke="#263238" stroke-width="1.33333" stroke-miterlimit="10" stroke-linecap="round" stroke-linejoin="round"/>
<path d="M286.219 121.584C286.219 121.584 273.658 126.619 269.533 121.36C269.533 121.36 271.788 121.584 273.152 119.628C273.681 118.88 274.078 117.809 274.165 116.279C274.228 115.347 272.385 103.393 273.152 102.321C284.726 86.1348 287.289 109.898 287.289 109.898C287.289 109.898 283.192 120.1 286.219 121.584Z" fill="white"/>
<path d="M286.219 121.584C286.219 121.584 273.658 126.619 269.533 121.36C269.533 121.36 271.788 121.584 273.152 119.628C273.681 118.88 274.078 117.809 274.165 116.279C274.228 115.347 272.385 103.393 273.152 102.321C284.726 86.1348 287.289 109.898 287.289 109.898C287.289 109.898 283.192 120.1 286.219 121.584Z" stroke="#263238" stroke-width="1.33333" stroke-miterlimit="10" stroke-linecap="round" stroke-linejoin="round"/>
<path d="M277.423 115.111C277.423 115.111 276.61 118.84 273.152 119.628C273.681 118.88 274.078 117.81 274.164 116.279C276.506 115.6 277.423 115.111 277.423 115.111Z" fill="#263238"/>
<path d="M288.467 117.369L275.481 120.821V127.572C275.481 127.572 271.702 137.005 271.824 138.534C271.945 140.064 275.481 201.554 275.481 201.554C275.481 201.554 286.028 200.768 289.84 194.218C289.84 194.218 288.313 170.376 289.84 166.456C291.369 162.534 291.566 157.366 291.566 157.366C291.566 157.366 301.503 138.797 299.292 133.129C297.081 127.462 290.184 121.945 290.184 121.945L288.467 117.369Z" fill="#263238"/>
<path d="M276.974 121.784C276.974 121.784 279.117 128.782 279.388 128.639C279.658 128.496 287.085 125.497 289.083 122.498" stroke="white" stroke-width="1.33333" stroke-miterlimit="10" stroke-linecap="round" stroke-linejoin="round"/>
<path d="M272.522 120.335C272.339 120.067 264.251 115.111 264.251 115.111L260.095 116.211L253.952 112.375C253.952 112.375 247.731 131.344 247.913 135.704C248.096 140.065 241.466 164.342 240.496 173.912C240.496 173.912 248.358 158.345 249.513 155.631C250.667 152.918 254.306 134.638 257.342 130.353C260.378 126.068 267.456 120.789 267.456 120.789L272.522 120.335Z" fill="#263238"/>
<path d="M287.733 108.286C288.296 106.825 288.566 105.178 288.434 103.324C287.581 91.3491 284.75 88.5627 280.085 89.341C262.669 92.2435 267.83 101.09 267.161 104.021C266.493 106.952 264.026 107.178 264.365 108.516C264.497 109.043 266.549 109.096 266.549 109.096L266.673 111.861L267.456 112.049C267.456 112.049 268.086 118.337 269.69 119.068C271.719 119.993 277.78 116.332 277.769 114.061" fill="white"/>
<path d="M287.733 108.286C288.296 106.825 288.566 105.178 288.434 103.324C287.581 91.3491 284.75 88.5627 280.085 89.341C262.669 92.2435 267.83 101.09 267.161 104.021C266.493 106.952 264.026 107.178 264.365 108.516C264.497 109.043 266.549 109.096 266.549 109.096L266.673 111.861L267.456 112.049C267.456 112.049 268.086 118.337 269.69 119.068C271.719 119.993 277.78 116.332 277.769 114.061" stroke="#263238" stroke-width="1.33333" stroke-miterlimit="10" stroke-linecap="round" stroke-linejoin="round"/>
<path d="M268.521 99.7264C268.521 99.7264 270.969 99.2267 272.192 101.182" stroke="#263238" stroke-width="1.33333" stroke-miterlimit="10" stroke-linecap="round" stroke-linejoin="round"/>
<path d="M269.542 103.347C269.631 103.926 269.949 104.358 270.25 104.311C270.553 104.264 270.725 103.758 270.636 103.178C270.546 102.599 270.229 102.167 269.927 102.214C269.625 102.261 269.453 102.768 269.542 103.347Z" fill="#263238"/>
<path d="M267.456 112.049C267.456 112.049 269.848 112.049 271.255 111.5" stroke="#263238" stroke-width="1.33333" stroke-miterlimit="10" stroke-linecap="round" stroke-linejoin="round"/>
<path d="M270.727 111.67C270.727 111.67 269.718 113.081 268.804 113.081C267.891 113.081 267.848 112.375 267.848 112.375" stroke="#263238" stroke-width="1.33333" stroke-miterlimit="10" stroke-linecap="round" stroke-linejoin="round"/>
<path d="M288.788 91.2288C288.788 91.2288 289.656 87.5086 280.991 87.0129C274.22 86.6245 268.042 87.2228 265.757 91.6022C263.472 95.9816 263.719 99.9181 266.976 100.426C266.976 100.426 267.456 95.6966 272.193 92.3545C272.193 92.3545 270.3 97.2548 273.152 99.6695C273.874 100.28 274.591 100.678 275.259 100.932C275.48 101.376 275.73 101.774 276.004 102.083C277.378 103.638 277.435 106.932 277.435 106.932L278.766 106.172C278.766 106.172 276.836 101.07 282.431 102.273C285.303 102.889 284.793 106.359 285.216 108.522C285.661 110.802 286.82 111.275 286.82 111.275C287.741 110.334 288.931 108.555 289.836 106.291C289.837 106.291 289.842 106.29 289.842 106.29C289.841 106.281 292.702 104.256 292.702 101.262C292.702 98.2676 291.906 93.3783 288.788 91.2288Z" fill="#263238"/>
<path d="M279.387 102.327C279.387 102.327 281.2 99.5365 282.809 99.4687C284.419 99.4 285.505 105.022 284.028 107.163C282.551 109.304 281.097 110.064 280.428 109.419C279.758 108.775 279.951 107.806 279.951 107.806" fill="white"/>
<path d="M279.387 102.327C279.387 102.327 281.2 99.5365 282.809 99.4687C284.419 99.4 285.505 105.022 284.028 107.163C282.551 109.304 281.097 110.064 280.428 109.419C279.758 108.775 279.951 107.806 279.951 107.806" stroke="#263238" stroke-width="1.33333" stroke-miterlimit="10" stroke-linecap="round" stroke-linejoin="round"/>
<path d="M258.236 124.365C258.236 124.365 261.378 120.952 263.52 117.369" stroke="white" stroke-width="1.33333" stroke-miterlimit="10" stroke-linecap="round" stroke-linejoin="round"/>
<path d="M258.236 117.369C258.236 117.369 259.664 117.757 260.878 119.628" stroke="white" stroke-width="1.33333" stroke-miterlimit="10" stroke-linecap="round" stroke-linejoin="round"/>
<path d="M253.952 112.375L247.451 109.642L245.243 106.29C245.243 106.29 239.612 114.36 240.498 125.213L244.119 127.514L249.06 138.763L253.952 112.375Z" fill="#263238"/>
<path d="M277.522 138.769C277.522 138.769 284.055 147.993 280.845 151.893C279.336 153.727 266.024 158.152 266.024 158.152L226.083 155.789L212.789 158.152L211.304 158.272C211.304 158.272 210.318 156.973 211.667 156.038C211.667 156.038 210.947 154.297 211.25 153.91C212.157 152.748 216.287 150.848 216.287 150.848C216.287 150.848 211.512 152.042 213.484 149.477C214.824 147.735 219.921 147.371 222.272 145.83C224.209 144.561 222.516 137.508 226.721 138.769C226.721 138.769 225.527 141.661 225.909 144.766C225.971 145.275 226.083 147.801 226.083 147.801C228.209 150.244 251.065 147.084 253.03 147.027C254.994 146.97 264.568 145.515 264.568 145.515L277.522 138.769Z" fill="white"/>
<path d="M277.522 138.769C277.522 138.769 284.055 147.993 280.845 151.893C279.336 153.727 266.024 158.152 266.024 158.152L226.083 155.789L212.789 158.152L211.304 158.272C211.304 158.272 210.318 156.973 211.667 156.038C211.667 156.038 210.947 154.297 211.25 153.91C212.157 152.748 216.287 150.848 216.287 150.848C216.287 150.848 211.512 152.042 213.484 149.477C214.824 147.735 219.921 147.371 222.272 145.83C224.209 144.561 222.516 137.508 226.721 138.769C226.721 138.769 225.527 141.661 225.909 144.766C225.971 145.275 226.083 147.801 226.083 147.801C228.209 150.244 251.065 147.084 253.03 147.027C254.994 146.97 264.568 145.515 264.568 145.515L277.522 138.769Z" stroke="#263238" stroke-width="1.33333" stroke-miterlimit="10" stroke-linecap="round" stroke-linejoin="round"/>
<path d="M219.817 147.993C219.817 147.993 220.284 149.031 220.181 149.551C220.077 150.069 218.676 151.056 218.676 151.056C218.676 151.056 218.519 152.197 218.676 152.561C218.831 152.924 217.17 154.222 217.17 154.689C217.17 155.157 216.443 156.195 216.443 156.195" stroke="#263238" stroke-width="1.33333" stroke-miterlimit="10" stroke-linecap="round" stroke-linejoin="round"/>
<path d="M211.668 156.039C212.291 156.506 214.949 153.877 216.443 153.754" stroke="#263238" stroke-width="1.33333" stroke-miterlimit="10" stroke-linecap="round" stroke-linejoin="round"/>
<path d="M215.146 156.403C215.146 156.403 213.745 157.337 211.668 158.063" stroke="#263238" stroke-width="1.33333" stroke-miterlimit="10" stroke-linecap="round" stroke-linejoin="round"/>
<path d="M276.4 138.618L277.423 136.889C277.423 136.889 280.099 138.034 280.828 136.889C281.556 135.744 289.676 131.997 291.237 132.101" stroke="white" stroke-width="1.33333" stroke-miterlimit="10" stroke-linecap="round" stroke-linejoin="round"/>
<path d="M279.683 153.755C279.683 153.755 281.661 155.786 282.181 154.925C282.702 154.064 289.756 153.691 292.702 151.254" stroke="white" stroke-width="1.33333" stroke-miterlimit="10" stroke-linecap="round" stroke-linejoin="round"/>
<path d="M277.81 161.975C277.81 162.288 283.015 178.63 285.095 180.92" stroke="white" stroke-width="1.33333" stroke-miterlimit="10" stroke-linecap="round" stroke-linejoin="round"/>
<path d="M267.192 163.64C266.567 164.056 254.461 174.154 249.377 174.258" stroke="#263238" stroke-width="1.33333" stroke-miterlimit="10" stroke-linecap="round" stroke-linejoin="round"/>
<path d="M258.236 135.359C258.241 135.952 261.825 140.845 263.52 142.198" stroke="#263238" stroke-width="1.33333" stroke-miterlimit="10" stroke-linecap="round" stroke-linejoin="round"/>
<path d="M210.647 188.91C212.752 188.91 209.525 192.321 209.525 192.321C209.317 196.796 208.093 199.59 208.093 199.59L214.626 209.694L209.005 214.162L203.298 202.577C203.298 202.577 198.316 200.795 199.514 197.821C200.261 195.964 202.655 195.756 202.655 195.756C205.778 192.113 210.647 188.91 210.647 188.91Z" fill="white"/>
<path d="M210.647 188.91C212.752 188.91 209.525 192.321 209.525 192.321C209.317 196.796 208.093 199.59 208.093 199.59L214.626 209.694L209.005 214.162L203.298 202.577C203.298 202.577 198.316 200.795 199.514 197.821C200.261 195.964 202.655 195.756 202.655 195.756C205.778 192.113 210.647 188.91 210.647 188.91Z" stroke="#263238" stroke-width="1.33333" stroke-miterlimit="10" stroke-linecap="round" stroke-linejoin="round"/>
<path d="M205.098 208.137C205.098 208.137 208.535 202.846 212.206 203.195L213.585 206.356C213.585 206.356 215.849 206.475 217.216 209.695C218.581 212.914 226.152 221.866 226.152 221.866L215.184 233.247C215.184 233.247 206.029 213.998 206.506 210.875L205.098 208.137Z" fill="#BFBFBF"/>
<g opacity="0.199997">
<g opacity="0.199997">
<path opacity="0.199997" d="M205.098 208.137C205.098 208.137 208.535 202.846 212.206 203.195L213.585 206.356C213.585 206.356 215.849 206.475 217.216 209.695C218.581 212.914 226.152 221.866 226.152 221.866L215.184 233.247C215.184 233.247 206.029 213.998 206.506 210.875L205.098 208.137Z" fill="black"/>
</g>
</g>
<path d="M205.098 208.137C205.098 208.137 208.535 202.846 212.206 203.195L213.585 206.356C213.585 206.356 215.849 206.475 217.216 209.695C218.581 212.914 226.152 221.866 226.152 221.866L215.184 233.247C215.184 233.247 206.029 213.998 206.506 210.875L205.098 208.137Z" stroke="#263238" stroke-width="1.33333" stroke-miterlimit="10" stroke-linecap="round" stroke-linejoin="round"/>
<path d="M231.999 181.054C231.999 181.054 218.128 183.098 220.6 199.112C223.072 215.126 221.527 217.373 221.668 223.975C221.808 230.578 226.152 233.246 226.152 233.246L229.534 221.801C229.534 221.801 227.848 223.975 228.41 215.547C228.972 207.119 229.113 196.302 229.113 196.302" fill="white"/>
<g opacity="0.199997">
<g opacity="0.199997">
<path opacity="0.199997" d="M231.999 181.054C231.999 181.054 218.128 183.098 220.6 199.112C223.072 215.126 221.527 217.373 221.668 223.975C221.808 230.578 226.152 233.246 226.152 233.246L229.534 221.801C229.534 221.801 227.848 223.975 228.41 215.547C228.972 207.119 229.113 196.302 229.113 196.302" fill="black"/>
</g>
</g>
<path d="M231.999 181.054C231.999 181.054 218.128 183.098 220.6 199.112C223.072 215.126 221.527 217.373 221.668 223.975C221.808 230.578 226.152 233.246 226.152 233.246L229.534 221.801C229.534 221.801 227.848 223.975 228.41 215.547C228.972 207.119 229.113 196.302 229.113 196.302" stroke="#263238" stroke-width="1.33333" stroke-miterlimit="10" stroke-linecap="round" stroke-linejoin="round"/>
<path d="M223.446 205.668C223.446 205.668 224.993 214.377 223.868 220.37" stroke="#263238" stroke-width="1.33333" stroke-miterlimit="10" stroke-linecap="round" stroke-linejoin="round"/>
<path d="M192.896 217.211C190.833 213.741 190.459 211.03 190.459 211.03C191.331 209.887 190.834 204.562 190.865 204.028C190.891 203.59 188.031 200.807 186.886 197.057C186.886 197.057 185.601 198.223 185.659 199.638C185.726 201.231 186.492 202.41 186.209 202.678C184.705 204.102 180.743 202.424 179.547 202.001C176.893 201.065 175.614 202.448 176.945 203.927C177.414 204.447 178.435 204.07 178.345 205.347C178.256 206.624 178.054 205.519 178.735 207.58C179.416 209.64 179.165 210.298 180.711 211.328C182.257 212.357 184.719 214.014 184.719 214.014L187.93 220.801L192.896 217.211Z" fill="white"/>
<path d="M192.896 217.211C190.833 213.741 190.459 211.03 190.459 211.03C191.331 209.887 190.834 204.562 190.865 204.028C190.891 203.59 188.031 200.807 186.886 197.057C186.886 197.057 185.601 198.223 185.659 199.638C185.726 201.231 186.492 202.41 186.209 202.678C184.705 204.102 180.743 202.424 179.547 202.001C176.893 201.065 175.614 202.448 176.945 203.927C177.414 204.447 178.435 204.07 178.345 205.347C178.256 206.624 178.054 205.519 178.735 207.58C179.416 209.64 179.165 210.298 180.711 211.328C182.257 212.357 184.719 214.014 184.719 214.014L187.93 220.801L192.896 217.211Z" stroke="#263238" stroke-width="1.33333" stroke-miterlimit="10" stroke-linecap="round" stroke-linejoin="round"/>
<path d="M225.51 268.322C225.51 268.322 231.032 260.15 244.798 259.691C258.565 259.233 257.877 267.454 257.877 267.454C257.877 267.454 265.027 277.942 264.184 286.147C263.341 294.351 252.594 301.656 252.594 301.656C252.594 301.656 274.555 306.794 277.084 305.728C279.612 304.661 284.691 315.574 282.724 318.023C280.758 320.47 218.671 316.284 218.671 316.284C218.671 316.284 212.49 309.01 212.209 303.928C211.929 298.846 225.889 279.347 225.51 278.42C225.132 277.494 225.51 268.322 225.51 268.322Z" fill="#263238"/>
<path d="M248.778 277.589C248.778 277.589 250.623 292.811 242.795 295.454L217.025 305.812C217.025 305.812 252.887 308.917 258.348 307.815C263.809 306.713 271.475 317.791 271.475 317.791H206.037C194.885 317.791 188.517 308.96 190.764 301.843C193.012 294.726 223.544 273.785 223.544 273.785C223.544 273.785 221.966 266.1 238.711 260.451C253.817 255.355 248.778 277.589 248.778 277.589Z" fill="#263238"/>
<path d="M254.07 256.607C254.07 256.607 258.017 262.725 256.612 264.115C256.612 264.115 240.746 258.455 224.501 271.463C224.201 271.7 223.909 271.945 223.609 272.197L222.432 268.03L225.298 265.677C225.298 265.677 224.777 263.609 224.366 261.004C223.932 258.304 223.617 255.037 224.09 252.858C224.137 252.629 223.506 251.683 222.764 249.985H222.756C222.077 248.414 221.296 246.204 220.893 243.307C220.404 239.889 220.435 235.509 221.738 230.116C222.282 227.844 223.048 225.396 224.106 222.76C226.411 216.982 238.07 214.266 251.639 217.795C253.367 218.244 254.694 219.208 255.696 220.549C262.548 229.738 254.07 256.607 254.07 256.607Z" fill="#BFBFBF"/>
<g opacity="0.199997">
<g opacity="0.199997">
<path opacity="0.199997" d="M220.893 243.307C220.404 239.889 220.435 235.508 221.738 230.117C223.419 229.588 224.611 229.201 224.611 229.201C224.611 229.201 226.482 234.569 220.893 243.307Z" fill="black"/>
</g>
</g>
<g opacity="0.199997">
<g opacity="0.199997">
<path opacity="0.199997" d="M224.367 261.004C223.933 258.305 223.617 255.037 224.09 252.858C224.138 252.629 223.506 251.682 222.764 249.985C222.764 249.985 229.387 255.179 232 254.713C233.579 254.437 228.582 258.076 224.367 261.004Z" fill="black"/>
</g>
</g>
<g opacity="0.199997">
<g opacity="0.199997">
<path opacity="0.199997" d="M254.07 256.607C254.07 256.607 258.017 262.725 256.612 264.115C256.612 264.115 240.746 258.455 224.501 271.463C227.611 267.548 232.363 262.954 238.267 261.596C249.129 259.094 253.367 259.45 253.367 259.45L249.847 254.887C249.847 254.887 237.975 254.863 232 245.897C232 245.897 236.373 247.475 241.661 247.585C246.082 247.68 251.299 243.978 252.886 242.762C251.536 243.646 247.368 245.256 240.414 238.327C231.802 229.738 231.36 213.706 249.847 218.213C251.923 218.718 253.873 219.516 255.696 220.549C262.548 229.738 254.07 256.607 254.07 256.607Z" fill="black"/>
</g>
</g>
<path d="M254.07 256.607C254.07 256.607 258.017 262.725 256.612 264.115C256.612 264.115 240.746 258.455 224.501 271.463C224.201 271.7 223.909 271.945 223.609 272.197L222.432 268.03L225.298 265.677C225.298 265.677 224.777 263.609 224.366 261.004C223.932 258.304 223.617 255.037 224.09 252.858C224.137 252.629 223.506 251.683 222.764 249.985H222.756C222.077 248.414 221.296 246.204 220.893 243.307C220.404 239.889 220.435 235.509 221.738 230.116C222.282 227.844 223.048 225.396 224.106 222.76C226.411 216.982 238.07 214.266 251.639 217.795C253.367 218.244 254.694 219.208 255.696 220.549C262.548 229.738 254.07 256.607 254.07 256.607Z" stroke="#263238" stroke-width="1.33333" stroke-miterlimit="10" stroke-linecap="round" stroke-linejoin="round"/>
<path d="M254.913 283.816C255.053 289.294 247.109 294.913 242.583 294.491C242.583 294.491 235.032 299.992 226.29 302.088" stroke="white" stroke-width="1.33333" stroke-miterlimit="10" stroke-linecap="round" stroke-linejoin="round"/>
<path d="M207.62 303.06C207.62 303.06 218.129 301.938 222.006 303.81C225.882 305.682 245.166 308.478 248.354 307.923" stroke="white" stroke-width="1.33333" stroke-miterlimit="10" stroke-linecap="round" stroke-linejoin="round"/>
<path d="M241.24 272.199C241.24 272.199 246.39 271.117 250.23 272.199C250.23 272.199 250.792 277.963 250.23 281.147L245.86 283.394C245.86 283.394 241.521 281.989 241.24 281.709C240.959 281.427 240.993 275.528 240.602 274.404" stroke="white" stroke-width="1.33333" stroke-miterlimit="10" stroke-linecap="round" stroke-linejoin="round"/>
<path d="M263.153 282.645L262.045 283.394L259.313 280.959C259.407 278.337 257.159 272.718 257.159 272.718C257.159 272.718 258.879 272.456 260.156 273.187" stroke="white" stroke-width="1.33333" stroke-miterlimit="10" stroke-linecap="round" stroke-linejoin="round"/>
<path d="M252.957 292.952C252.957 292.952 255.755 294.913 259.501 293.976" stroke="white" stroke-width="1.33333" stroke-miterlimit="10" stroke-linecap="round" stroke-linejoin="round"/>
<path d="M251.822 302.088C251.822 302.088 247.549 305.027 240.602 303.435" stroke="white" stroke-width="1.33333" stroke-miterlimit="10" stroke-linecap="round" stroke-linejoin="round"/>
<path d="M240.602 293.883C240.602 293.883 234.122 291.747 232.625 288.741" stroke="white" stroke-width="1.33333" stroke-miterlimit="10" stroke-linecap="round" stroke-linejoin="round"/>
<path d="M228.41 292.384C228.878 292.759 232.625 293.883 236.613 293.883" stroke="white" stroke-width="1.33333" stroke-miterlimit="10" stroke-linecap="round" stroke-linejoin="round"/>
<path d="M206.036 299.689C206.036 299.689 209.305 300.498 210.149 301.655" stroke="white" stroke-width="1.33333" stroke-miterlimit="10" stroke-linecap="round" stroke-linejoin="round"/>
<path d="M246.578 309.521C246.578 309.521 243.394 311.582 243.488 314.298" stroke="white" stroke-width="1.33333" stroke-miterlimit="10" stroke-linecap="round" stroke-linejoin="round"/>
<path d="M271.685 309.632C271.859 305.108 276.036 306.985 276.036 306.985C276.036 306.985 279.095 302.497 282.054 303.541C285.012 304.585 285.781 306.151 290.48 307.805C295.179 309.458 301.581 308.16 303.321 312.638C305.061 317.115 302.835 319.623 292.22 318.804C281.604 317.985 278.82 317.637 278.82 317.637C278.82 317.637 271.338 318.682 271.685 309.632Z" fill="white"/>
<path d="M271.685 309.632C271.859 305.108 276.036 306.985 276.036 306.985C276.036 306.985 279.095 302.497 282.054 303.541C285.012 304.585 285.781 306.151 290.48 307.805C295.179 309.458 301.581 308.16 303.321 312.638C305.061 317.115 302.835 319.623 292.22 318.804C281.604 317.985 278.82 317.637 278.82 317.637C278.82 317.637 271.338 318.682 271.685 309.632V309.632Z" stroke="#263238" stroke-width="1.33333" stroke-miterlimit="10" stroke-linecap="round" stroke-linejoin="round"/>
<path d="M275.814 308.675C275.814 308.675 275.339 311.459 277.95 313.765" stroke="#263238" stroke-width="1.33333" stroke-miterlimit="10" stroke-linecap="round" stroke-linejoin="round"/>
<path d="M280.145 303.541C277.887 304.441 277.602 309.633 282.823 312.938C288.044 316.245 289.093 313.416 292.394 316.187C295.695 318.957 300.871 319.377 303.854 317.203C306.837 315.027 304.401 310.851 298.833 308.675C293.264 306.5 291.488 308.687 288.423 306.984C285.358 305.282 284.952 301.627 280.145 303.541Z" fill="#BFBFBF"/>
<path d="M280.145 303.541C277.887 304.441 277.602 309.633 282.823 312.938C288.044 316.245 289.093 313.416 292.394 316.187C295.695 318.957 300.871 319.377 303.854 317.203C306.837 315.027 304.401 310.851 298.833 308.675C293.264 306.5 291.488 308.687 288.423 306.984C285.358 305.282 284.952 301.627 280.145 303.541Z" stroke="#263238" stroke-width="1.33333" stroke-miterlimit="10" stroke-linecap="round" stroke-linejoin="round"/>
<path d="M281.953 304.537C281.778 305.108 281.953 310.329 281.953 310.329" stroke="#263238" stroke-width="1.33333" stroke-miterlimit="10" stroke-linecap="round" stroke-linejoin="round"/>
<path d="M284.58 304.788V312.637" stroke="#263238" stroke-width="1.33333" stroke-miterlimit="10" stroke-linecap="round" stroke-linejoin="round"/>
<path d="M287.347 306.985V313.635" stroke="#263238" stroke-width="1.33333" stroke-miterlimit="10" stroke-linecap="round" stroke-linejoin="round"/>
<path d="M290.393 308.675L290.045 313.765" stroke="#263238" stroke-width="1.33333" stroke-miterlimit="10" stroke-linecap="round" stroke-linejoin="round"/>
<path d="M293.786 308.713V315.81" stroke="#263238" stroke-width="1.33333" stroke-miterlimit="10" stroke-linecap="round" stroke-linejoin="round"/>
<path d="M297.098 309.432V317.202" stroke="#263238" stroke-width="1.33333" stroke-miterlimit="10" stroke-linecap="round" stroke-linejoin="round"/>
<path d="M300.834 310.794L301.181 316.68" stroke="#263238" stroke-width="1.33333" stroke-miterlimit="10" stroke-linecap="round" stroke-linejoin="round"/>
<path d="M261.466 305.543C256.865 306.362 253.208 308.823 253.208 308.823C253.208 308.823 251.543 306.371 249.984 308.759C248.425 311.147 249.555 319.552 253.21 317.873C253.21 317.873 258.43 319.588 268.958 318.544C279.487 317.499 269.481 311.7 269.481 311.7L261.466 305.543Z" fill="white"/>
<path d="M261.466 305.543C256.865 306.362 253.208 308.823 253.208 308.823C253.208 308.823 251.543 306.371 249.984 308.759C248.425 311.147 249.555 319.552 253.21 317.873C253.21 317.873 258.43 319.588 268.958 318.544C279.487 317.499 269.481 311.7 269.481 311.7L261.466 305.543Z" stroke="#263238" stroke-width="1.33333" stroke-miterlimit="10" stroke-linecap="round" stroke-linejoin="round"/>
<path d="M262.425 305.595C258.332 304.756 256.031 311.741 257.965 315.084C259.898 318.428 261.533 318.428 268.821 318.428C276.107 318.428 283.394 318.688 282.948 311.7C282.502 304.712 272.525 306.477 270.152 307.36C267.779 308.243 264.619 306.043 262.425 305.595Z" fill="#BFBFBF"/>
<path d="M262.425 305.595C258.332 304.756 256.031 311.741 257.965 315.084C259.898 318.428 261.533 318.428 268.821 318.428C276.107 318.428 283.394 318.688 282.948 311.7C282.502 304.712 272.525 306.477 270.152 307.36C267.779 308.243 264.619 306.043 262.425 305.595Z" stroke="#263238" stroke-width="1.33333" stroke-miterlimit="10" stroke-linecap="round" stroke-linejoin="round"/>
<path d="M261.128 307.145L261.539 316.542" stroke="#263238" stroke-width="1.33333" stroke-miterlimit="10" stroke-linecap="round" stroke-linejoin="round"/>
<path d="M264.173 308.015L264.694 316.543" stroke="#263238" stroke-width="1.33333" stroke-miterlimit="10" stroke-linecap="round" stroke-linejoin="round"/>
<path d="M266.784 308.45L267.305 316.977" stroke="#263238" stroke-width="1.33333" stroke-miterlimit="10" stroke-linecap="round" stroke-linejoin="round"/>
<path d="M269.904 308.973L270.699 316.977" stroke="#263238" stroke-width="1.33333" stroke-miterlimit="10" stroke-linecap="round" stroke-linejoin="round"/>
<path d="M273.049 308.015L273.777 316.978" stroke="#263238" stroke-width="1.33333" stroke-miterlimit="10" stroke-linecap="round" stroke-linejoin="round"/>
<path d="M276.268 308.015L277.312 316.543" stroke="#263238" stroke-width="1.33333" stroke-miterlimit="10" stroke-linecap="round" stroke-linejoin="round"/>
<path d="M279.4 308.45L280.27 315.15" stroke="#263238" stroke-width="1.33333" stroke-miterlimit="10" stroke-linecap="round" stroke-linejoin="round"/>
<path d="M252.601 310.191C252.601 310.191 251.835 313.906 253.036 316.021" stroke="#263238" stroke-width="1.33333" stroke-miterlimit="10" stroke-linecap="round" stroke-linejoin="round"/>
<path d="M231.048 215.515C230.278 215.662 224.818 215.848 222.524 216.608C216.709 218.535 201.915 231.025 201.915 231.025L191.754 213.078C191.754 213.078 187.323 212.314 185.138 216.252L186.298 219.588C186.298 219.588 185.564 222.485 185.456 223.975C185.194 227.575 192.965 246.318 196.751 247.422C202.665 249.146 218.95 236.832 218.95 236.832C218.95 236.832 225.78 232.278 226.476 228.036" fill="#BFBFBF"/>
<path d="M231.048 215.515C230.278 215.662 224.818 215.848 222.524 216.608C216.709 218.535 201.915 231.025 201.915 231.025L191.754 213.078C191.754 213.078 187.323 212.314 185.138 216.252L186.298 219.588C186.298 219.588 185.564 222.485 185.456 223.975C185.194 227.575 192.965 246.318 196.751 247.422C202.665 249.146 218.95 236.832 218.95 236.832C218.95 236.832 225.78 232.278 226.476 228.036" stroke="#263238" stroke-width="1.33333" stroke-miterlimit="10" stroke-linecap="round" stroke-linejoin="round"/>
<path d="M224.444 186.444C228.357 178.86 235.522 181.501 235.522 181.501C249.427 178.86 249.853 195.051 251.117 203.601C252.382 212.159 256.983 214.112 258.283 221.277C258.489 222.399 258.467 224.282 258.19 226.461C257.708 224.984 256.926 224.586 256.926 224.586C257.196 233.847 251.707 238.441 251.366 238.711C255.244 233.378 254.775 229.919 254.775 229.919C253.276 235.353 247.467 240.693 247.467 240.693C247.467 240.693 242.503 239.571 240.181 232.348C238.114 225.928 235.379 223.698 235.21 223.563C235.323 223.777 237.723 228.08 239.35 235.225C236.807 231.688 234.336 227.164 231.999 222.712C222.306 204.241 223.493 196.586 223.493 196.586" fill="white"/>
<g opacity="0.199997">
<g opacity="0.199997">
<path opacity="0.199997" d="M224.443 186.444C228.356 178.86 235.522 181.501 235.522 181.501C249.427 178.86 249.853 195.051 251.117 203.601C252.381 212.159 256.983 214.112 258.283 221.277C258.489 222.399 258.467 224.282 258.19 226.461C257.708 224.984 256.926 224.586 256.926 224.586C257.196 233.847 251.706 238.441 251.365 238.711C255.243 233.378 254.775 229.919 254.775 229.919C253.276 235.353 247.467 240.693 247.467 240.693C247.467 240.693 242.503 239.571 240.181 232.348C238.114 225.928 235.379 223.698 235.21 223.563C235.323 223.777 237.723 228.08 239.35 235.225C236.807 231.688 234.336 227.164 231.999 222.712C222.306 204.241 223.492 196.585 223.492 196.585" fill="black"/>
</g>
</g>
<path d="M224.444 186.444C228.357 178.86 235.522 181.501 235.522 181.501C249.427 178.86 249.853 195.051 251.117 203.601C252.382 212.159 256.983 214.112 258.283 221.277C258.489 222.399 258.467 224.282 258.19 226.461C257.708 224.984 256.926 224.586 256.926 224.586C257.196 233.847 251.707 238.441 251.366 238.711C255.244 233.378 254.775 229.919 254.775 229.919C253.276 235.353 247.467 240.693 247.467 240.693C247.467 240.693 242.503 239.571 240.181 232.348C238.114 225.928 235.379 223.698 235.21 223.563C235.323 223.777 237.723 228.08 239.35 235.225C236.807 231.688 234.336 227.164 231.999 222.712C222.306 204.241 223.493 196.585 223.493 196.585" stroke="#263238" stroke-width="1.33333" stroke-miterlimit="10" stroke-linecap="round" stroke-linejoin="round"/>
<path d="M236.511 183.005C236.511 183.005 243.628 178.411 246.25 192.132C248.872 205.855 251.026 207.26 252.337 214.002C253.649 220.745 252.243 226.176 250.276 228.236" stroke="#263238" stroke-width="1.33333" stroke-miterlimit="10" stroke-linecap="round" stroke-linejoin="round"/>
<path d="M237.447 185.252C239.883 189.841 241.755 196.022 242.504 207.446C243.253 218.872 243 230.662 247.561 234.136" stroke="#263238" stroke-width="1.33333" stroke-miterlimit="10" stroke-linecap="round" stroke-linejoin="round"/>
<path d="M229.768 183.942C229.768 183.942 223.587 187.032 228.083 196.302C232.578 205.573 237.448 212.972 237.448 218.309C237.448 223.648 238.899 226.445 241.661 227.393" stroke="#263238" stroke-width="1.33333" stroke-miterlimit="10" stroke-linecap="round" stroke-linejoin="round"/>
<path d="M209.525 192.321C209.525 192.321 207.756 195.132 207.652 195.964" stroke="#263238" stroke-width="1.33333" stroke-miterlimit="10" stroke-linecap="round" stroke-linejoin="round"/>
<path d="M201.915 231.025C201.915 231.025 197.227 232.915 197.808 236.95" stroke="#263238" stroke-width="1.33333" stroke-miterlimit="10" stroke-linecap="round" stroke-linejoin="round"/>
<path d="M196.67 230.303C196.67 230.303 198.405 228.529 199.837 229.204" stroke="#263238" stroke-width="1.33333" stroke-miterlimit="10" stroke-linecap="round" stroke-linejoin="round"/>
<path d="M188.395 217.291C188.395 217.291 191.307 215.115 192.896 215.324" stroke="#263238" stroke-width="1.33333" stroke-miterlimit="10" stroke-linecap="round" stroke-linejoin="round"/>
<path d="M213.585 206.356C213.585 206.356 210.671 206.983 208.589 208.929" stroke="#263238" stroke-width="1.33333" stroke-miterlimit="10" stroke-linecap="round" stroke-linejoin="round"/>
<path d="M227.738 232.24C227.586 232.24 223.974 235.028 221.486 234.883" stroke="#263238" stroke-width="1.33333" stroke-miterlimit="10" stroke-linecap="round" stroke-linejoin="round"/>
<path d="M230.896 244.207C230.865 245.2 240.387 256.397 250.771 254.717" stroke="#263238" stroke-width="1.33333" stroke-miterlimit="10" stroke-linecap="round" stroke-linejoin="round"/>
<path d="M95.9815 141.096C95.9815 141.096 104.192 145.489 106.01 149.393C107.828 153.296 114.429 173.398 114.429 173.398C114.429 173.398 119.448 181.654 120.609 183.324C121.77 184.994 121.274 192.05 115.488 191.956C109.701 191.863 103.015 186.398 102.767 183.899C102.52 181.401 99.5336 179.98 99.3094 177.802C99.0845 175.624 92.1239 161.415 92.1239 161.415L95.9815 141.096Z" fill="#263238"/>
<path d="M105.247 307.468C105.247 307.468 104.006 315.073 105.247 318.624H130.408C130.408 318.624 131.472 315.962 130.408 314.285C129.345 312.607 121.372 311.646 118.891 309.38C116.41 307.114 113.752 303.215 113.752 303.215L105.247 307.468Z" fill="white"/>
<path d="M105.247 307.468C105.247 307.468 104.006 315.073 105.247 318.624H130.408C130.408 318.624 131.472 315.962 130.408 314.285C129.345 312.607 121.372 311.646 118.891 309.38C116.41 307.114 113.752 303.215 113.752 303.215L105.247 307.468Z" stroke="#263238" stroke-width="1.33333" stroke-miterlimit="10" stroke-linecap="round" stroke-linejoin="round"/>
<path d="M130.881 317.284H104.918L104.695 318.623H130.881V317.284Z" fill="white"/>
<path d="M130.881 317.284H104.918L104.695 318.623H130.881V317.284Z" stroke="#263238" stroke-width="1.33333" stroke-miterlimit="10" stroke-linecap="round" stroke-linejoin="round"/>
<path d="M111.295 306.541C111.295 306.541 113.663 307.114 113.929 307.202C114.195 307.29 116.498 310.835 118.802 311.455C121.106 312.076 123.409 311.956 123.055 313.079" stroke="#263238" stroke-width="1.33333" stroke-miterlimit="10" stroke-linecap="round" stroke-linejoin="round"/>
<path d="M116.538 306.541L113.841 308.531" stroke="#263238" stroke-width="1.33333" stroke-miterlimit="10" stroke-linecap="round" stroke-linejoin="round"/>
<path d="M117.788 308.283L115.189 310.192" stroke="#263238" stroke-width="1.33333" stroke-miterlimit="10" stroke-linecap="round" stroke-linejoin="round"/>
<path d="M119.449 309.81L117.193 311.987" stroke="#263238" stroke-width="1.33333" stroke-miterlimit="10" stroke-linecap="round" stroke-linejoin="round"/>
<path d="M121.728 310.92L120.751 313.079" stroke="#263238" stroke-width="1.33333" stroke-miterlimit="10" stroke-linecap="round" stroke-linejoin="round"/>
<path d="M62.6046 318.624C62.6046 318.624 61.6345 314.922 62.7688 313.55C64.8046 311.087 62.5201 309.021 64.5638 308.165L65.4195 309.159C65.586 308.15 65.1092 305.086 68.899 304.686C73.4804 304.202 73.5672 307.537 73.8143 308.635L73.7385 307.1C75.6922 307.1 74.6802 309.05 77.6419 312.24C79.9026 314.675 79.9066 317.796 79.7819 318.624H62.6046Z" fill="white"/>
<path d="M62.6046 318.624C62.6046 318.624 61.6345 314.922 62.7688 313.55C64.8046 311.087 62.5201 309.021 64.5638 308.165L65.4195 309.159C65.586 308.15 65.1092 305.086 68.899 304.686C73.4804 304.202 73.5672 307.537 73.8143 308.635L73.7385 307.1C75.6922 307.1 74.6802 309.05 77.6419 312.24C79.9026 314.675 79.9066 317.796 79.7819 318.624H62.6046Z" stroke="#263238" stroke-width="1.33333" stroke-miterlimit="10" stroke-linecap="round" stroke-linejoin="round"/>
<path d="M46.0043 177.802C43.8912 179.035 38.4368 190.649 41.6195 213.709C44.8029 236.769 54.34 281.861 55.9369 288.758C57.5345 295.655 63.1382 312.24 63.1382 312.24C63.1382 312.24 65.2805 305.044 75.5659 308.891C75.9479 309.034 76.3386 308.697 76.2621 308.297L74.0013 296.546C74.0013 296.546 73.8435 287.949 73.1038 285.793C70.3174 277.673 68.9226 246.318 68.003 241.942C67.0842 237.565 68.891 224.976 68.891 224.976C68.891 224.976 81.7686 255.79 82.1846 258.813C82.6014 261.835 90.4555 274.422 90.4555 274.422L91.8061 285.988C91.8061 285.988 102.256 303.893 104.096 309.238L116.538 306.541L116.192 297.691L112.84 296.546L106.984 276.423C106.984 276.423 104.777 267.515 100.169 255.886C97.3972 248.888 89.5438 221.79 89.5438 221.79C87.1023 219.137 84.8077 204.473 84.8077 204.473L81.0353 185.975L46.0043 177.802Z" fill="white"/>
<g opacity="0.199997">
<g opacity="0.199997">
<path opacity="0.199997" d="M82.8423 194.849C76.5353 198.22 62.7452 204.7 56.4934 200.658C51.2442 197.265 45.3082 191.809 41.6851 188.289C42.9007 181.888 44.9056 178.438 46.0029 177.798L81.0346 185.977L82.8423 194.849Z" fill="black"/>
</g>
</g>
<g opacity="0.199997">
<g opacity="0.199997">
<path opacity="0.199997" d="M116.54 306.544L104.092 309.235C102.253 303.891 91.8094 285.989 91.8094 285.989L90.4517 274.425C90.4517 274.425 82.6054 261.834 82.1871 258.81C81.7687 255.787 68.8943 224.979 68.8943 224.979C68.8943 224.979 68.5864 227.133 68.2786 229.984C68.3733 228.508 69.0363 218.585 68.6653 215.53L68.9811 213.683C68.9811 213.683 77.4588 207.558 78.5955 209.894C79.7243 212.231 74.1514 214.631 74.1514 214.631C74.1514 214.631 79.3059 216.185 81.8082 216.287C84.3026 216.391 81.2398 222.5 80.0637 223.194C78.8876 223.89 74.3408 223.194 74.3408 223.194C74.3408 223.194 84.0973 247.294 93.1513 255.677C96.0167 258.33 99.1346 259.916 102.063 260.863C105.386 269.964 106.981 276.422 106.981 276.422L112.838 296.542L116.193 297.695L116.54 306.544Z" fill="black"/>
</g>
</g>
<path d="M46.0043 177.802C43.8912 179.035 38.4368 190.649 41.6195 213.709C44.8029 236.769 54.34 281.861 55.9369 288.758C57.5345 295.655 63.1382 312.24 63.1382 312.24C63.1382 312.24 65.2805 305.044 75.5659 308.891C75.9479 309.034 76.3386 308.697 76.2621 308.297L74.0013 296.546C74.0013 296.546 73.8435 287.949 73.1038 285.793C70.3174 277.673 68.9226 246.318 68.003 241.942C67.0842 237.565 68.891 224.976 68.891 224.976C68.891 224.976 81.7686 255.79 82.1846 258.813C82.6014 261.835 90.4555 274.422 90.4555 274.422L91.8061 285.988C91.8061 285.988 102.256 303.893 104.096 309.238L116.538 306.541L116.192 297.691L112.84 296.546L106.984 276.423C106.984 276.423 104.777 267.515 100.169 255.886C97.3972 248.888 89.5438 221.79 89.5438 221.79C87.1023 219.137 84.8077 204.473 84.8077 204.473L81.0353 185.975L46.0043 177.802Z" stroke="#263238" stroke-width="1.33333" stroke-miterlimit="10" stroke-linecap="round" stroke-linejoin="round"/>
<path d="M97.2138 161.732C92.9142 170.26 86.1857 180.916 86.1857 180.916L83.2106 192.797C83.2106 192.797 72.0333 199.694 59.218 196.804C44.1855 193.412 41.7582 185.722 41.7582 185.722L45.795 172.345C47.7502 163.411 51.9899 146.353 60.7944 141.528C69.5989 136.703 84.7041 136.292 90.8003 138.247C96.2232 139.986 99.2243 141.306 100.702 142.913C100.702 142.913 102.898 150.445 102.416 152.948C101.952 155.354 97.2138 161.732 97.2138 161.732Z" fill="#263238"/>
<path d="M79.7975 317.284H62.2185L62.6045 318.623H79.7818L79.7975 317.284Z" fill="white"/>
<path d="M79.7975 317.284H62.2185L62.6045 318.623H79.7818L79.7975 317.284Z" stroke="#263238" stroke-width="1.33333" stroke-miterlimit="10" stroke-linecap="round" stroke-linejoin="round"/>
<path d="M74.1549 312.088C74.1549 312.088 68.3854 310.178 65.6006 312.565" stroke="#263238" stroke-width="1.33333" stroke-miterlimit="10" stroke-linecap="round" stroke-linejoin="round"/>
<path d="M74.1549 310.825C74.1549 310.825 69.0817 309.219 65.6006 311.365" stroke="#263238" stroke-width="1.33333" stroke-miterlimit="10" stroke-linecap="round" stroke-linejoin="round"/>
<path d="M73.8565 309.582C73.8565 309.582 69.0817 307.781 65.6006 310.248" stroke="#263238" stroke-width="1.33333" stroke-miterlimit="10" stroke-linecap="round" stroke-linejoin="round"/>
<g opacity="0.960007">
<g opacity="0.960007">
<path opacity="0.960007" d="M73.1044 212.096C72.416 212.252 59.1445 217.092 56.4907 221.933" stroke="#263238" stroke-width="1.33333" stroke-miterlimit="10" stroke-linecap="round" stroke-linejoin="round"/>
</g>
<g opacity="0.960007">
<path opacity="0.960007" d="M69.8776 219.122C70.5422 220.059 76.179 237.703 78.5913 242.543C81.0036 247.383 89.1229 269.086 90.9961 270.336C90.9961 270.336 93.4944 282.982 95.0558 285.012C96.6171 287.042 104.695 303.215 104.695 303.215" stroke="#263238" stroke-width="1.33333" stroke-miterlimit="10" stroke-linecap="round" stroke-linejoin="round"/>
</g>
<g opacity="0.960007">
<path opacity="0.960007" d="M113.752 303.215L103.956 305.31" stroke="#263238" stroke-width="1.33333" stroke-miterlimit="10" stroke-linecap="round" stroke-linejoin="round"/>
</g>
<g opacity="0.960007">
<path opacity="0.960007" d="M73.8565 304.263C73.8565 304.263 66.0142 303.557 63.3604 306.541" stroke="#263238" stroke-width="1.33333" stroke-miterlimit="10" stroke-linecap="round" stroke-linejoin="round"/>
</g>
<g opacity="0.960007">
<path opacity="0.960007" d="M64.7974 221.153C64.1406 224.9 54.3044 245.666 51.9624 243.324" stroke="#263238" stroke-width="1.33333" stroke-miterlimit="10" stroke-linecap="round" stroke-linejoin="round"/>
</g>
<g opacity="0.960007">
<path opacity="0.960007" d="M68.6085 223.026C68.6085 223.026 69.7618 217.874 68.6693 215.531C68.2517 214.636 77.1004 217.716 80.0669 217.015" stroke="#263238" stroke-width="1.33333" stroke-miterlimit="10" stroke-linecap="round" stroke-linejoin="round"/>
</g>
<g opacity="0.960007">
<path opacity="0.960007" d="M69.8778 197.511C69.8778 197.511 68.3306 201.947 67.9533 203.352C67.576 204.758 70.7745 210.223 69.8778 211.315" stroke="#263238" stroke-width="1.33333" stroke-miterlimit="10" stroke-linecap="round" stroke-linejoin="round"/>
</g>
<g opacity="0.960007">
<path opacity="0.960007" d="M48.371 193.36C48.371 193.36 46.1853 196.707 46.1853 199.17C46.1853 201.635 43.2189 202.728 43.2189 202.728" stroke="#263238" stroke-width="1.33333" stroke-miterlimit="10" stroke-linecap="round" stroke-linejoin="round"/>
</g>
<g opacity="0.960007">
<path opacity="0.960007" d="M43.7106 189.701C43.7106 189.701 41.0331 199.761 43.2189 212.096C45.4046 224.431 48.9962 249.57 50.4012 255.971C51.8063 262.372 55.0853 276.737 55.0853 278.766C55.0853 280.796 58.3793 292.351 58.3793 292.351" stroke="#263238" stroke-width="1.33333" stroke-miterlimit="10" stroke-linecap="round" stroke-linejoin="round"/>
</g>
<g opacity="0.960007">
<path opacity="0.960007" d="M57.5831 274.864C58.0512 274.864 66.7918 283.295 68.9791 283.451" stroke="#263238" stroke-width="1.33333" stroke-miterlimit="10" stroke-linecap="round" stroke-linejoin="round"/>
</g>
<g opacity="0.960007">
<path opacity="0.960007" d="M95.8368 269.71C96.3057 269.867 103.644 273.458 103.956 272.365" stroke="#263238" stroke-width="1.33333" stroke-miterlimit="10" stroke-linecap="round" stroke-linejoin="round"/>
</g>
</g>
<path d="M86.803 136.821C86.803 136.821 77.8849 137.716 77.5723 142.67C77.2605 147.623 81.4243 153.245 88.3983 153.556C95.3715 153.869 96.2272 147.028 96.4759 143.318C96.7253 139.608 91.6615 136.532 86.803 136.821Z" fill="#BFBFBF"/>
<path d="M86.803 136.821C86.803 136.821 77.8849 137.716 77.5723 142.67C77.2605 147.623 81.4243 153.245 88.3983 153.556C95.3715 153.869 96.2272 147.028 96.4759 143.318C96.7253 139.608 91.6615 136.532 86.803 136.821Z" stroke="#263238" stroke-width="1.33333" stroke-miterlimit="10" stroke-linecap="round" stroke-linejoin="round"/>
<path d="M83.9579 139.835C82.6681 136.221 82.1969 131.973 83.3107 127.282C84.5476 122.076 90.748 114.926 100.14 121.429C104.982 124.782 105.278 132.052 103.769 138.715C103.41 140.304 103.679 141.859 103.152 143.318C101.295 148.449 97.8988 152.393 96.043 152.484C92.9385 152.636 86.7412 148.885 86.9978 145.616" fill="#BFBFBF"/>
<path d="M83.9579 139.835C82.6681 136.221 82.1969 131.973 83.3107 127.282C84.5476 122.076 90.748 114.926 100.14 121.429C104.982 124.782 105.278 132.052 103.769 138.715C103.41 140.304 103.679 141.859 103.152 143.318C101.295 148.449 97.8988 152.393 96.043 152.484C92.9385 152.636 86.7412 148.885 86.9978 145.616" stroke="#263238" stroke-width="1.33333" stroke-miterlimit="10" stroke-linecap="round" stroke-linejoin="round"/>
<path d="M96.4763 136.519C96.4763 136.519 93.9732 135.667 91.5625 137.151" stroke="#263238" stroke-width="1.33333" stroke-miterlimit="10" stroke-linecap="round" stroke-linejoin="round"/>
<path d="M101.205 136.361C101.205 136.361 103.097 135.415 104.33 135.66" stroke="#263238" stroke-width="1.33333" stroke-miterlimit="10" stroke-linecap="round" stroke-linejoin="round"/>
<path d="M92.9387 140.262C92.9387 140.722 93.1732 141.096 93.4629 141.096C93.7526 141.096 93.987 140.722 93.987 140.262C93.987 139.801 93.7526 139.428 93.4629 139.428C93.1732 139.428 92.9387 139.801 92.9387 140.262Z" fill="#263238"/>
<path d="M100.68 139.798C100.68 140.259 100.915 140.633 101.204 140.633C101.494 140.633 101.728 140.259 101.728 139.798C101.728 139.337 101.494 138.964 101.204 138.964C100.915 138.964 100.68 139.337 100.68 139.798Z" fill="#263238"/>
<path d="M90.4495 130.156L90.2024 133.988C90.2024 133.988 87.483 135.389 86.8026 136.821C86.123 138.253 86.37 139.798 86.37 139.798C86.37 139.798 84.7195 136.915 83.8338 137.151C83.5118 137.237 83.5126 138.443 83.5126 138.443C83.5126 138.443 79.8184 130.156 83.1558 125.767C86.494 121.379 90.4495 130.156 90.4495 130.156Z" fill="#263238"/>
<path d="M85.2113 138.964C85.2113 138.964 84.4701 136.183 81.9663 135.441C79.4632 134.699 81.1785 141.368 83.3105 142.255C85.4434 143.142 85.9786 143.739 86.1049 142.951" fill="#BFBFBF"/>
<path d="M85.2113 138.964C85.2113 138.964 84.4701 136.183 81.9663 135.441C79.4632 134.699 81.1785 141.368 83.3105 142.255C85.4434 143.142 85.9786 143.739 86.1049 142.951" stroke="#263238" stroke-width="1.33333" stroke-miterlimit="10" stroke-linecap="round" stroke-linejoin="round"/>
<path d="M99.3794 140.262C99.3794 140.262 99.1711 141.95 99.9517 142.939C100.732 143.928 99.7433 145.385 98.3904 145.021" stroke="#263238" stroke-width="1.33333" stroke-miterlimit="10" stroke-linecap="round" stroke-linejoin="round"/>
<path d="M98.3903 147.363C98.3903 147.363 95.9969 148.039 94.0188 147.363" stroke="#263238" stroke-width="1.33333" stroke-miterlimit="10" stroke-linecap="round" stroke-linejoin="round"/>
<path d="M90.4495 130.156C90.4495 130.156 96.8307 131.69 100.68 131.177C104.53 130.663 106.995 128.884 106.406 124.801C105.816 120.718 101.205 118.835 93.6298 117.54C86.1901 116.27 78.3905 121.839 81.9371 128.642C85.4829 135.445 90.4495 130.156 90.4495 130.156Z" fill="#263238"/>
<path d="M98.9025 190.769C98.9025 190.769 99.163 191.161 99.2411 192.136C99.3185 193.111 95.8058 194.282 95.1815 193.892C94.5571 193.502 93.081 191.55 94.7947 190.378C96.5084 189.207 98.9025 190.769 98.9025 190.769Z" fill="#BFBFBF"/>
<path d="M98.9025 190.769C98.9025 190.769 99.163 191.161 99.2411 192.136C99.3185 193.111 95.8058 194.282 95.1815 193.892C94.5571 193.502 93.081 191.55 94.7947 190.378C96.5084 189.207 98.9025 190.769 98.9025 190.769Z" stroke="#263238" stroke-width="1.33333" stroke-miterlimit="10" stroke-linecap="round" stroke-linejoin="round"/>
<path d="M108.14 189.701C108.14 189.701 108.492 191.98 109.039 192.876C109.585 193.775 112.981 192.906 113.918 193.36C114.855 193.814 114.932 192.185 113.918 191.36C112.903 190.535 111.614 188.673 108.14 189.701Z" fill="#BFBFBF"/>
<path d="M108.14 189.701C108.14 189.701 108.492 191.98 109.039 192.876C109.585 193.775 112.981 192.906 113.918 193.36C114.855 193.814 114.932 192.185 113.918 191.36C112.903 190.535 111.614 188.673 108.14 189.701Z" stroke="#263238" stroke-width="1.33333" stroke-miterlimit="10" stroke-linecap="round" stroke-linejoin="round"/>
<path d="M106.011 252.556H102.003V189.214H106.011V252.556Z" fill="#BFBFBF" stroke="#263238" stroke-width="1.33333" stroke-miterlimit="10" stroke-linecap="round" stroke-linejoin="round"/>
<path d="M108.779 318.624H99.2341V236.518C99.2341 235.718 99.883 235.068 100.684 235.068H107.33C108.13 235.068 108.779 235.718 108.779 236.518V318.624Z" fill="#757575"/>
<path d="M108.779 318.624H99.2341V236.518C99.2341 235.718 99.883 235.068 100.684 235.068H107.33C108.13 235.068 108.779 235.718 108.779 236.518V318.624Z" stroke="#263238" stroke-width="1.33333" stroke-miterlimit="10" stroke-linecap="round" stroke-linejoin="round"/>
<path d="M115.617 184.844H92.3964C91.3931 184.844 90.5785 185.658 90.5785 186.662V187.884C90.5785 188.887 91.3931 189.701 92.3964 189.701H100.963V193.36H107.05V189.701H115.617C116.62 189.701 117.435 188.887 117.435 187.884V186.662C117.435 185.658 116.62 184.844 115.617 184.844Z" fill="white"/>
<path d="M115.617 184.844H92.3964C91.3931 184.844 90.5785 185.658 90.5785 186.662V187.884C90.5785 188.887 91.3931 189.701 92.3964 189.701H100.963V193.36H107.05V189.701H115.617C116.62 189.701 117.435 188.887 117.435 187.884V186.662C117.435 185.658 116.62 184.844 115.617 184.844Z" stroke="#263238" stroke-width="1.33333" stroke-miterlimit="10" stroke-linecap="round" stroke-linejoin="round"/>
<path d="M82.6851 182.858C82.6851 182.858 94.9904 181.193 96.2044 180.985C97.4193 180.776 101.204 187.23 101.204 187.23L98.3902 191.556C98.3902 191.556 87.6557 193.059 87.0203 192.434C86.3856 191.81 86.1046 190.769 86.1046 190.769C86.1046 190.769 80.6185 192.848 80.0668 189.102C79.515 185.356 79.1843 184.8 82.6851 182.858Z" fill="#BFBFBF"/>
<path d="M82.6851 182.858C82.6851 182.858 94.9904 181.193 96.2044 180.985C97.4193 180.776 101.204 187.23 101.204 187.23L98.3902 191.556C98.3902 191.556 87.6557 193.059 87.0203 192.434C86.3856 191.81 86.1046 190.769 86.1046 190.769C86.1046 190.769 80.6185 192.848 80.0668 189.102C79.515 185.356 79.1843 184.8 82.6851 182.858Z" stroke="#263238" stroke-width="1.33333" stroke-miterlimit="10" stroke-linecap="round" stroke-linejoin="round"/>
<path d="M107.724 184.844C107.724 184.844 109.598 181.505 111.472 181.505C113.345 181.505 120.527 182.754 121.36 183.795C122.193 184.836 124.17 186.501 123.858 187.854C123.546 189.207 121.569 192.03 119.695 191.555C117.821 191.081 113.032 191.608 113.032 191.608C113.032 191.608 110.431 191.132 110.222 189.701L112.408 189.102C112.408 189.102 112.721 186.084 112.304 185.668C111.888 185.252 107.724 184.844 107.724 184.844Z" fill="#BFBFBF"/>
<path d="M107.724 184.844C107.724 184.844 109.598 181.505 111.472 181.505C113.345 181.505 120.527 182.754 121.36 183.795C122.193 184.836 124.17 186.501 123.858 187.854C123.546 189.207 121.569 192.03 119.695 191.555C117.821 191.081 113.032 191.608 113.032 191.608C113.032 191.608 110.431 191.132 110.222 189.701L112.408 189.102C112.408 189.102 112.721 186.084 112.304 185.668C111.888 185.252 107.724 184.844 107.724 184.844Z" stroke="#263238" stroke-width="1.33333" stroke-miterlimit="10" stroke-linecap="round" stroke-linejoin="round"/>
<path d="M114.429 191.483C114.429 191.483 116.712 189 116.537 188.063C116.364 187.126 116.027 184.211 115.466 183.899" stroke="#263238" stroke-width="1.33333" stroke-miterlimit="10" stroke-linecap="round" stroke-linejoin="round"/>
<path d="M117.587 191.36C117.587 191.36 119.278 190.662 119.278 189.102C119.278 187.542 118.853 185.356 118.853 185.356" stroke="#263238" stroke-width="1.33333" stroke-miterlimit="10" stroke-linecap="round" stroke-linejoin="round"/>
<path d="M120.609 191.54C122.661 189.214 121.36 186.783 121.36 186.783" stroke="#263238" stroke-width="1.33333" stroke-miterlimit="10" stroke-linecap="round" stroke-linejoin="round"/>
<path d="M96.4301 191.609C96.4301 191.609 98.3821 188.985 98.0696 187.691C97.757 186.397 96.4301 183.899 96.4301 183.899" stroke="#263238" stroke-width="1.33333" stroke-miterlimit="10" stroke-linecap="round" stroke-linejoin="round"/>
<path d="M93.7805 192.137C93.7805 192.137 94.869 188.992 94.7909 188.358C94.7127 187.724 93.2295 184.68 93.1514 184.367" stroke="#263238" stroke-width="1.33333" stroke-miterlimit="10" stroke-linecap="round" stroke-linejoin="round"/>
<path d="M90.5787 192.457C91.2781 191.316 92.9168 190.865 91.668 188.358C90.4192 185.851 89.7941 185.356 89.7941 185.356" stroke="#263238" stroke-width="1.33333" stroke-miterlimit="10" stroke-linecap="round" stroke-linejoin="round"/>
<path d="M86.1046 190.769C86.6714 190.223 87.7646 188.907 87.7646 188.907C87.7646 188.907 87.9991 189.988 88.4672 190.3" stroke="#263238" stroke-width="1.33333" stroke-miterlimit="10" stroke-linecap="round" stroke-linejoin="round"/>
<path d="M116.921 316.949H91.5004C90.9605 316.949 90.5232 317.387 90.5232 317.927V318.958H118.211V318.24C118.211 317.527 117.634 316.949 116.921 316.949Z" fill="#263238"/>
<path d="M53.0987 154.277C49.9831 162.098 46.2675 171.247 45.7403 179.753C45.5437 182.919 48.5859 184.024 51.1505 185.188C56.1314 187.451 61.5251 189.112 66.8904 190.166C68.7919 190.539 70.8127 190.526 72.6519 190.981C74.7097 191.491 77.6122 193.299 79.723 192.137" stroke="white" stroke-width="1.33333" stroke-miterlimit="10" stroke-linecap="round" stroke-linejoin="round"/>
<path d="M67.9219 158.448L63.7975 167.331L61.1437 172.657C61.1437 172.657 62.8297 174.401 64.7976 174.544C66.7639 174.686 67.9219 176.531 67.9219 176.531C67.9219 176.531 78.3162 181.027 79.7228 180.979C81.1287 180.932 82.2661 179.58 83.4147 181.505" stroke="white" stroke-width="1.33333" stroke-miterlimit="10" stroke-linecap="round" stroke-linejoin="round"/>
<path d="M61.1435 172.657C61.1435 172.657 55.5225 170.784 53.493 172.657" stroke="white" stroke-width="1.33333" stroke-miterlimit="10" stroke-linecap="round" stroke-linejoin="round"/>
<path d="M62.08 145.078C62.5488 144.709 68.2662 150.954 68.6087 155.638" stroke="white" stroke-width="1.33333" stroke-miterlimit="10" stroke-linecap="round" stroke-linejoin="round"/>
<path d="M70.0368 158.448C70.0368 158.448 68.5062 161.593 65.9952 162.597" stroke="white" stroke-width="1.33333" stroke-miterlimit="10" stroke-linecap="round" stroke-linejoin="round"/>
<path d="M101.729 159.073C101.729 159.073 98.553 164.49 95.3055 165.373" stroke="white" stroke-width="1.33333" stroke-miterlimit="10" stroke-linecap="round" stroke-linejoin="round"/>
<path d="M102.484 177.802C102.484 177.802 106.891 174.4 109.858 174.544" stroke="white" stroke-width="1.33333" stroke-miterlimit="10" stroke-linecap="round" stroke-linejoin="round"/>
<path d="M101.205 163.971C101.205 163.971 98.46 166.208 96.4305 165.373" stroke="white" stroke-width="1.33333" stroke-miterlimit="10" stroke-linecap="round" stroke-linejoin="round"/>
<path d="M106.072 313.095C128.248 313.095 124.665 318.624 147.266 318.624C169.866 318.624 183.614 318.958 183.614 200.554" stroke="#263238" stroke-width="4" stroke-miterlimit="10" stroke-linecap="round" stroke-linejoin="round"/>
</svg>
