<svg width="342" height="383" viewBox="0 0 342 383" fill="none" xmlns="http://www.w3.org/2000/svg">
<path d="M43.8342 29.0739C43.9854 28.9372 44.1359 28.8004 44.2872 28.6637C85.9994 -8.90396 141.403 -10.5973 181.765 29.8425C202.802 50.9196 240.153 46.8865 266.878 54.5101C359.023 80.7957 343.092 205.845 297.576 266.293C256.501 320.841 167.505 333.165 107.711 306.326C55.168 282.741 18.1706 230.054 5.00389 174.963C3.68383 169.438 2.59752 163.858 1.76763 158.238C-5.15786 111.341 8.14471 61.5341 43.8342 29.0739Z" fill="#DAFCF3"/>
<path d="M192.216 333.684C188.017 354.676 167.595 368.289 146.603 364.09C131.591 361.087 120.353 349.788 116.704 335.917" stroke="#0A1045" stroke-width="1.33333" stroke-miterlimit="10" stroke-linecap="round" stroke-linejoin="round"/>
<path d="M191.689 316.17C192.805 320.378 193.223 324.824 192.834 329.347" stroke="#0A1045" stroke-width="1.33333" stroke-miterlimit="10" stroke-linecap="round" stroke-linejoin="round"/>
<path d="M129.271 296.413C137.977 289.105 149.797 285.667 161.81 288.07C174.508 290.61 184.505 299.085 189.494 310.032" stroke="#0A1045" stroke-width="1.33333" stroke-miterlimit="10" stroke-linecap="round" stroke-linejoin="round"/>
<path d="M118.514 290.297L117.436 287.408L127.656 295.184" stroke="#0A1045" stroke-width="1.33333" stroke-miterlimit="10" stroke-linecap="round" stroke-linejoin="round"/>
<path d="M116.197 318.476C117.372 312.603 119.818 307.311 123.189 302.821L119.783 293.696" stroke="#0A1045" stroke-width="1.33333" stroke-miterlimit="10" stroke-linecap="round" stroke-linejoin="round"/>
<path d="M115.47 327.72C115.404 326.16 115.434 324.584 115.563 322.999" stroke="#0A1045" stroke-width="1.33333" stroke-miterlimit="10" stroke-linecap="round" stroke-linejoin="round"/>
<path d="M156.044 306.766C166.745 308.02 174.404 317.711 173.151 328.412C171.898 339.114 162.207 346.773 151.505 345.52C140.803 344.266 133.144 334.575 134.397 323.874C135.373 315.547 141.457 309.062 149.151 307.184" stroke="#0A1045" stroke-width="1.33333" stroke-miterlimit="10" stroke-linecap="round" stroke-linejoin="round"/>
<path d="M151.26 347.608C139.405 346.22 130.92 335.484 132.309 323.629" stroke="#0A1045" stroke-width="1.33333" stroke-miterlimit="10" stroke-linecap="round" stroke-linejoin="round"/>
<path d="M174.46 332.415C172.14 340.099 165.729 345.805 157.999 347.344" stroke="#0A1045" stroke-width="1.33333" stroke-miterlimit="10" stroke-linecap="round" stroke-linejoin="round"/>
<path d="M133.687 318.156C137.208 309.282 146.356 303.514 156.288 304.677C168.143 306.066 176.628 316.802 175.239 328.657" stroke="#0A1045" stroke-width="1.33333" stroke-miterlimit="10" stroke-linecap="round" stroke-linejoin="round"/>
<path d="M166.321 317.692L166.555 317.411" stroke="#0A1045" stroke-width="2.66667" stroke-miterlimit="10" stroke-linecap="round" stroke-linejoin="round"/>
<path d="M163.059 321.596L164.684 319.651" stroke="#0A1045" stroke-width="2.66667" stroke-miterlimit="10" stroke-linecap="round" stroke-linejoin="round"/>
<path d="M142.101 325.427L150.988 336.045L161.635 323.301" stroke="#0A1045" stroke-width="2.66667" stroke-miterlimit="10" stroke-linecap="round" stroke-linejoin="round"/>
<path d="M301.516 290.463H208.314C186.672 290.463 169.127 272.918 169.127 251.276V158.074C169.127 136.432 186.672 118.887 208.314 118.887H301.516C323.159 118.887 340.703 136.432 340.703 158.074V251.276C340.703 272.918 323.159 290.463 301.516 290.463Z" fill="white"/>
<path d="M301.516 290.463H208.314C186.672 290.463 169.127 272.918 169.127 251.276V158.074C169.127 136.432 186.672 118.887 208.314 118.887H301.516C323.159 118.887 340.703 136.432 340.703 158.074V251.276C340.703 272.918 323.159 290.463 301.516 290.463Z" stroke="#0A1045" stroke-width="1.33333" stroke-miterlimit="10" stroke-linecap="round" stroke-linejoin="round"/>
<path d="M221.684 194.43C219.083 190.136 206.592 190.206 205.461 192.114C205.461 192.114 211.65 212.119 218.547 210.045C225.445 207.972 221.684 194.43 221.684 194.43Z" fill="#DAFCF3"/>
<g opacity="0.300003">
<g opacity="0.300003">
<g opacity="0.300003">
<g opacity="0.699997">
<g opacity="0.699997">
<path opacity="0.699997" d="M221.684 194.43C219.083 190.136 206.592 190.206 205.461 192.114C205.461 192.114 211.65 212.119 218.547 210.045C225.445 207.972 221.684 194.43 221.684 194.43Z" fill="#0A1045"/>
</g>
</g>
</g>
</g>
</g>
<path d="M221.684 194.43C219.083 190.136 206.592 190.206 205.461 192.114C205.461 192.114 211.65 212.119 218.547 210.045C225.445 207.972 221.684 194.43 221.684 194.43Z" stroke="#0A1045" stroke-width="1.33333" stroke-miterlimit="10" stroke-linecap="round" stroke-linejoin="round"/>
<path d="M206.783 204.61C206.783 204.61 205.46 206.118 205.46 208.384C205.46 210.249 209.021 247.519 220.007 260.493C222.309 263.215 224.939 264.867 227.935 264.903C237.234 265.003 241.737 257.627 247.656 240.514C248.391 238.384 249.156 236.097 249.95 233.652C255.704 215.989 262.773 179.148 262.773 179.148C262.773 179.148 250.229 182.058 242.787 189.434C239.535 192.658 236.146 201.807 233.982 208.527C232.917 211.829 232.145 214.538 231.822 215.681C231.722 216.061 231.666 216.268 231.666 216.268C231.38 215.16 230.907 214.03 230.35 212.93C230.342 212.916 230.342 212.909 230.336 212.901C230.314 212.873 230.301 212.844 230.293 212.816C228.048 208.505 224.396 204.702 224.396 204.702L221.687 194.43C221.687 194.43 220.729 196.303 216.397 196.969C212.059 197.633 205.46 192.114 205.46 192.114L206.783 204.61Z" fill="#DAFCF3"/>
<g opacity="0.300003">
<g opacity="0.300003">
<g opacity="0.300003">
<g opacity="0.699997">
<g opacity="0.699997">
<path opacity="0.699997" d="M220.007 260.493C222.309 263.216 224.939 264.867 227.934 264.902C237.234 265.003 241.737 257.626 247.656 240.513L247.526 200.742C247.526 200.742 240.536 202.101 233.981 208.527C232.917 211.829 232.145 214.538 231.822 215.682C234.439 221.129 238.999 233.651 233.767 246.997C230.372 255.653 224.818 259.169 220.007 260.493Z" fill="#0A1045"/>
</g>
</g>
</g>
</g>
</g>
<path d="M206.783 204.61C206.783 204.61 205.46 206.118 205.46 208.384C205.46 210.249 209.021 247.519 220.007 260.493C222.309 263.215 224.939 264.867 227.935 264.903C237.234 265.003 241.737 257.627 247.656 240.514C248.391 238.384 249.156 236.097 249.95 233.652C255.704 215.989 262.773 179.148 262.773 179.148C262.773 179.148 250.229 182.058 242.787 189.434C239.535 192.658 236.146 201.807 233.982 208.527C232.917 211.829 232.145 214.538 231.822 215.681C231.722 216.061 231.666 216.268 231.666 216.268C231.38 215.16 230.907 214.03 230.35 212.93C230.342 212.916 230.342 212.909 230.336 212.901C230.314 212.873 230.301 212.844 230.293 212.816C228.048 208.505 224.396 204.702 224.396 204.702L221.687 194.43C221.687 194.43 220.729 196.303 216.397 196.969C212.059 197.633 205.46 192.114 205.46 192.114L206.783 204.61Z" stroke="#0A1045" stroke-width="1.33333" stroke-miterlimit="10" stroke-linecap="round" stroke-linejoin="round"/>
<path d="M236.357 228.409C237.024 231.901 237.05 235.687 235.436 238.935" stroke="#0A1045" stroke-width="1.33333" stroke-miterlimit="10" stroke-linecap="round" stroke-linejoin="round"/>
<path d="M231.666 216.266C233.502 219.366 234.933 222.781 235.862 226.257" stroke="#0A1045" stroke-width="1.33333" stroke-miterlimit="10" stroke-linecap="round" stroke-linejoin="round"/>
<path d="M237.592 220.665C237.592 220.665 236.284 217.068 232.749 216.266" stroke="#0A1045" stroke-width="1.33333" stroke-miterlimit="10" stroke-linecap="round" stroke-linejoin="round"/>
<path d="M219.54 207.518C220.392 207.059 221.186 206.493 221.91 205.851" stroke="#0A1045" stroke-width="1.33333" stroke-miterlimit="10" stroke-linecap="round" stroke-linejoin="round"/>
<path d="M206.781 204.61C209.551 207.571 213.868 209.507 217.894 208.218" stroke="#0A1045" stroke-width="1.33333" stroke-miterlimit="10" stroke-linecap="round" stroke-linejoin="round"/>
<path d="M230.285 212.821C230.285 212.821 230.301 212.85 230.337 212.901C230.315 212.873 230.301 212.843 230.293 212.814C230.285 212.814 230.285 212.821 230.285 212.821Z" fill="#DAFCF3"/>
<path d="M230.285 212.821C230.285 212.821 230.301 212.85 230.337 212.901C230.315 212.873 230.301 212.843 230.293 212.814C230.285 212.814 230.285 212.821 230.285 212.821Z" stroke="#0A1045" stroke-width="1.33333" stroke-miterlimit="10" stroke-linecap="round" stroke-linejoin="round"/>
<path d="M312.218 288.8C312.218 288.8 313.799 276.314 314.764 272.238C319.107 253.882 334.404 211.353 331.937 198.768C329.402 185.835 313.897 174.519 288.872 173.275C265.662 172.117 246.527 180.344 241.953 189.908C237.585 199.036 237.764 262.035 238.872 290.463H302.629C307.663 290.463 312.218 288.8 312.218 288.8Z" fill="#DAFCF3"/>
<g opacity="0.300003">
<g opacity="0.300003">
<g opacity="0.300003">
<g opacity="0.699997">
<g opacity="0.699997">
<path opacity="0.699997" d="M307.233 212.907C295.211 229.387 282.105 254.047 282.105 254.047L246.302 209.425C246.302 209.425 254.501 266.102 258.974 272.237C263.446 278.373 263.246 281.191 263.246 281.191C263.246 281.191 274.594 293.411 283.107 291.753C290.326 290.346 316.291 261.371 324.39 227.782L307.233 212.907Z" fill="#0A1045"/>
</g>
</g>
</g>
</g>
</g>
<path d="M312.218 288.8C312.218 288.8 313.799 276.314 314.764 272.238C319.107 253.882 334.404 211.353 331.937 198.768C329.402 185.835 313.897 174.519 288.872 173.275C265.662 172.117 246.527 180.344 241.953 189.908C237.585 199.036 237.763 262.035 238.872 290.463H302.628C307.662 290.463 312.218 288.8 312.218 288.8Z" stroke="#0A1045" stroke-width="1.33333" stroke-miterlimit="10" stroke-linecap="round" stroke-linejoin="round"/>
<path d="M298.977 175.795C298.977 175.795 286.498 181.148 272.992 176.712C272.992 176.712 274.731 172.487 274.74 169C274.748 167.253 274.307 165.683 272.992 164.937C272.992 164.937 273.603 164.266 274.639 163.206H274.646C279.763 157.997 295.295 143.355 300.351 152.084C300.351 152.084 295.058 152.585 298.977 175.795Z" fill="white"/>
<path d="M298.977 175.795C298.977 175.795 286.498 181.148 272.992 176.712C272.992 176.712 274.731 172.487 274.74 169C274.748 167.253 274.307 165.683 272.992 164.937C272.992 164.937 273.603 164.266 274.639 163.206H274.646C279.763 157.997 295.295 143.355 300.351 152.084C300.351 152.084 295.058 152.585 298.977 175.795V175.795Z" stroke="#0A1045" stroke-width="1.33333" stroke-miterlimit="10" stroke-linecap="round" stroke-linejoin="round"/>
<path d="M284.869 159.626C284.869 159.626 282.816 167.151 274.74 169C274.748 167.253 274.307 165.683 272.992 164.937C272.992 164.937 273.603 164.266 274.638 163.206H274.646C279.592 161.263 284.869 159.626 284.869 159.626Z" fill="#0A1045"/>
<path d="M303.866 139.799C309.225 118.441 297.68 111.131 290.407 108.332C278.754 103.848 264.049 108.949 260.604 120.814C257.158 132.679 260.263 135.38 260.102 140.235C259.989 143.64 257.732 145.316 260.221 153.86C261.863 159.496 264.913 165.961 268.469 166.167C278.095 166.727 287.207 161.245 286.701 158.673" fill="white"/>
<path d="M303.866 139.799C309.225 118.441 297.68 111.131 290.407 108.332C278.754 103.848 264.049 108.949 260.604 120.814C257.158 132.679 260.263 135.38 260.102 140.235C259.989 143.64 257.732 145.316 260.221 153.86C261.863 159.496 264.913 165.961 268.469 166.167C278.095 166.727 287.207 161.245 286.701 158.673" stroke="#0A1045" stroke-width="1.33333" stroke-miterlimit="10" stroke-linecap="round" stroke-linejoin="round"/>
<path d="M273.62 129.334C273.62 129.334 277.929 127.844 280.231 132.545" stroke="#0A1045" stroke-width="1.33333" stroke-miterlimit="10" stroke-linecap="round" stroke-linejoin="round"/>
<path d="M258.974 128.633C258.974 128.633 262.178 125.912 265.389 129.761" stroke="#0A1045" stroke-width="1.33333" stroke-miterlimit="10" stroke-linecap="round" stroke-linejoin="round"/>
<path d="M274.477 138.377C274.477 139.37 274.955 140.175 275.546 140.175C276.136 140.175 276.615 139.37 276.615 138.377C276.615 137.385 276.136 136.58 275.546 136.58C274.955 136.58 274.477 137.385 274.477 138.377Z" fill="#0A1045"/>
<path d="M262.178 137.394C262.178 138.386 262.656 139.192 263.247 139.192C263.837 139.192 264.315 138.386 264.315 137.394C264.315 136.401 263.837 135.596 263.247 135.596C262.656 135.596 262.178 136.401 262.178 137.394Z" fill="#0A1045"/>
<path d="M265.389 133.279C265.389 133.279 266.053 138.224 265.758 139.192C265.461 140.159 262.115 143.179 261.983 144.521C261.852 145.864 264.781 147.219 264.781 147.219" fill="white"/>
<path d="M265.389 133.279C265.389 133.279 266.053 138.224 265.758 139.192C265.461 140.159 262.115 143.179 261.983 144.521C261.852 145.864 264.781 147.219 264.781 147.219" stroke="#0A1045" stroke-width="1.33333" stroke-miterlimit="10" stroke-linecap="round" stroke-linejoin="round"/>
<path d="M263.246 150.059C263.246 150.059 269.929 151.737 275.546 150.059C275.546 150.059 272.9 158.347 267.669 157.503C264.204 156.943 265.086 151.512 265.086 151.512L263.246 150.059Z" fill="#0A1045"/>
<path d="M281.67 117.365C281.67 117.365 278.906 115.463 275.063 116.358C271.219 117.253 270.614 125.337 270.614 125.337C270.614 125.337 268.56 123.518 268.197 121.28L266.989 124.748L263.784 121.728L262.711 125.337L261.437 122.735L258.971 127.539C258.971 127.539 255.265 122.763 255.839 119.071C257.404 109.003 265.394 100.731 282.106 101.619C290.519 102.067 293.657 107.833 293.657 107.833C293.657 107.833 301.885 106.72 305.534 110.988C317.959 125.522 310.168 141.303 298.367 156.254L294.322 142.004L290.407 141.557C290.407 141.557 290.552 139.403 290.431 137.166C290.31 134.928 288.981 131.655 288.981 131.655L287.53 132.305L288.135 129.577L284.823 131.275C284.823 131.275 286.223 120.05 284.823 118.148C283.421 116.246 281.67 117.365 281.67 117.365Z" fill="#0A1045"/>
<path d="M291.861 143.536C291.861 143.536 295.777 136.239 299.87 138.019C303.964 139.799 301.116 148.52 297.557 151.368C293.997 154.215 291.861 151.368 291.861 151.368" fill="white"/>
<path d="M291.861 143.536C291.861 143.536 295.777 136.239 299.87 138.019C303.964 139.799 301.116 148.52 297.557 151.368C293.997 154.215 291.861 151.368 291.861 151.368" stroke="#0A1045" stroke-width="1.33333" stroke-miterlimit="10" stroke-linecap="round" stroke-linejoin="round"/>
<g opacity="0.199997">
<g opacity="0.199997">
<path opacity="0.199997" d="M285.221 114.362C285.221 114.362 283.76 110.271 278.968 109.956C274.176 109.641 270.732 114.835 270.623 118.454" stroke="white" stroke-width="1.33333" stroke-miterlimit="10" stroke-linecap="round" stroke-linejoin="round"/>
</g>
<g opacity="0.199997">
<path opacity="0.199997" d="M288.463 114.198C288.463 114.198 291.747 111.68 293.652 114.198C296.873 118.454 294.207 128.73 294.207 128.73" stroke="white" stroke-width="1.33333" stroke-miterlimit="10" stroke-linecap="round" stroke-linejoin="round"/>
</g>
<g opacity="0.199997">
<path opacity="0.199997" d="M292.931 111.197C292.931 111.197 296.349 109.097 299.276 113.145C302.204 117.195 301.886 127.032 301.886 127.032" stroke="white" stroke-width="1.33333" stroke-miterlimit="10" stroke-linecap="round" stroke-linejoin="round"/>
</g>
<g opacity="0.199997">
<path opacity="0.199997" d="M302.613 110.653C302.613 110.653 308.529 113.146 308.865 125.063" stroke="white" stroke-width="1.33333" stroke-miterlimit="10" stroke-linecap="round" stroke-linejoin="round"/>
</g>
<g opacity="0.199997">
<path opacity="0.199997" d="M288.862 111.197C288.862 111.197 285.533 105.549 275.681 107.438C265.828 109.326 264.348 119.398 264.348 119.398" stroke="white" stroke-width="1.33333" stroke-miterlimit="10" stroke-linecap="round" stroke-linejoin="round"/>
</g>
<g opacity="0.199997">
<path opacity="0.199997" d="M291.313 109.484C291.313 109.484 287.345 103.976 275.284 105.078C263.225 106.179 258.374 116.723 259.6 121.759" stroke="white" stroke-width="1.33333" stroke-miterlimit="10" stroke-linecap="round" stroke-linejoin="round"/>
</g>
</g>
<path d="M192.482 180.102C192.482 180.102 206.827 169.061 213.078 167.942C219.33 166.824 240.845 171.522 240.845 171.522V197C240.845 197 227.385 198.477 221.343 202.898C215.303 207.32 194.495 208.029 194.495 208.029L192.482 180.102Z" fill="#9D9FB5"/>
<path d="M192.482 180.102C192.482 180.102 206.827 169.061 213.078 167.942C219.33 166.824 240.845 171.522 240.845 171.522V197C240.845 197 227.385 198.477 221.343 202.898C215.303 207.32 194.495 208.029 194.495 208.029L192.482 180.102Z" stroke="#0A1045" stroke-width="1.33333" stroke-miterlimit="10" stroke-linecap="round" stroke-linejoin="round"/>
<path d="M205.945 172.209C205.945 172.209 206.274 168.965 206.781 167.175C207.288 165.385 210.756 165.577 211.539 166.208C212.322 166.839 213.078 167.942 213.078 167.942C213.078 167.942 211.874 168.293 211.539 168.405C211.203 168.517 210.868 175.005 205.945 172.209Z" fill="white"/>
<path d="M205.945 172.209C205.945 172.209 206.274 168.965 206.781 167.175C207.288 165.385 210.756 165.577 211.539 166.208C212.322 166.839 213.078 167.942 213.078 167.942C213.078 167.942 211.874 168.293 211.539 168.405C211.203 168.517 210.868 175.005 205.945 172.209Z" stroke="#0A1045" stroke-width="1.33333" stroke-miterlimit="10" stroke-linecap="round" stroke-linejoin="round"/>
<path d="M244.782 140.385L230.489 181.82L209.971 174.742L224.264 133.307L244.782 140.385Z" fill="#12C297"/>
<g opacity="0.5">
<g opacity="0.5">
<g opacity="0.5">
<g opacity="0.699997">
<g opacity="0.699997">
<path opacity="0.699997" d="M242.625 141.436L229.439 179.663L212.127 173.691L225.315 135.464L242.625 141.436ZM209.971 174.742L230.489 181.82L244.783 140.384L224.263 133.307L209.971 174.742Z" fill="#0A1045"/>
</g>
</g>
</g>
</g>
</g>
<g opacity="0.5">
<g opacity="0.5">
<g opacity="0.5">
<g opacity="0.699997">
<g opacity="0.699997">
<path opacity="0.699997" d="M227.311 138.702L225.546 143.819C225.349 144.393 224.724 144.696 224.151 144.499C223.579 144.301 223.274 143.677 223.473 143.104L225.237 137.987C225.435 137.413 226.059 137.11 226.632 137.307C227.204 137.505 227.508 138.129 227.311 138.702Z" fill="#0A1045"/>
</g>
</g>
</g>
</g>
</g>
<g opacity="0.5">
<g opacity="0.5">
<g opacity="0.5">
<g opacity="0.699997">
<g opacity="0.699997">
<path opacity="0.699997" d="M231.281 172.023L229.516 177.14C229.318 177.713 228.694 178.017 228.12 177.819C227.549 177.622 227.244 176.997 227.442 176.425L229.207 171.307C229.405 170.735 230.028 170.43 230.602 170.628C231.174 170.826 231.478 171.45 231.281 172.023Z" fill="#0A1045"/>
</g>
</g>
</g>
</g>
</g>
<g opacity="0.5">
<g opacity="0.5">
<g opacity="0.5">
<g opacity="0.699997">
<g opacity="0.699997">
<path opacity="0.699997" d="M230.948 158.295L231.456 158.469L231.147 159.364L230.639 159.19C230.209 159.921 229.465 160.109 228.521 159.783L228.043 159.619L228.4 158.584L228.947 158.772C229.445 158.944 229.699 158.788 229.819 158.439C229.94 158.091 229.835 157.81 229.338 157.639C228.841 157.468 228.414 157.543 227.584 158.08C226.568 158.732 225.906 158.848 225.109 158.573C224.175 158.251 223.712 157.658 223.807 156.833L223.289 156.654L223.598 155.759L224.116 155.938C224.542 155.217 225.276 155.025 226.221 155.351L226.44 155.426L226.084 156.461L225.795 156.361C225.297 156.19 225.04 156.323 224.92 156.671C224.799 157.02 224.92 157.283 225.417 157.455C225.914 157.626 226.332 157.548 227.172 157.014C228.197 156.366 228.85 156.247 229.646 156.521C230.591 156.847 231.057 157.464 230.948 158.295ZM220.949 155.346C219.725 158.896 221.609 162.766 225.159 163.991C228.709 165.216 232.58 163.331 233.805 159.78C235.03 156.231 233.144 152.36 229.593 151.135C226.044 149.911 222.173 151.796 220.949 155.346Z" fill="#0A1045"/>
</g>
</g>
</g>
</g>
</g>
<path d="M244.783 140.385L230.489 181.82L209.971 174.742L224.264 133.307L244.783 140.385Z" stroke="#0A1045" stroke-width="1.33333" stroke-miterlimit="10" stroke-linecap="round" stroke-linejoin="round"/>
<path d="M204.653 115.262L193.395 72.9015L214.372 67.3262L225.63 109.686L204.653 115.262Z" fill="#12C297"/>
<g opacity="0.5">
<g opacity="0.5">
<g opacity="0.5">
<g opacity="0.699997">
<g opacity="0.699997">
<path opacity="0.699997" d="M205.857 113.186L195.47 74.105L213.168 69.4018L223.554 108.483L205.857 113.186ZM214.371 67.326L193.394 72.9012L204.653 115.261L225.63 109.687L214.371 67.326Z" fill="#0A1045"/>
</g>
</g>
</g>
</g>
</g>
<g opacity="0.5">
<g opacity="0.5">
<g opacity="0.5">
<g opacity="0.699997">
<g opacity="0.699997">
<path opacity="0.699997" d="M220.09 106.91L218.7 101.678C218.545 101.093 218.892 100.492 219.478 100.336C220.064 100.181 220.665 100.529 220.82 101.115L222.21 106.346C222.366 106.932 222.017 107.532 221.432 107.688C220.847 107.844 220.246 107.495 220.09 106.91Z" fill="#0A1045"/>
</g>
</g>
</g>
</g>
</g>
<g opacity="0.5">
<g opacity="0.5">
<g opacity="0.5">
<g opacity="0.699997">
<g opacity="0.699997">
<path opacity="0.699997" d="M198.204 81.4735L196.813 76.2418C196.658 75.6564 197.006 75.0558 197.592 74.8997C198.178 74.7444 198.779 75.0931 198.934 75.6785L200.324 80.9093C200.48 81.4955 200.131 82.0962 199.545 82.2514C198.961 82.4075 198.359 82.0588 198.204 81.4735Z" fill="#0A1045"/>
</g>
</g>
</g>
</g>
</g>
<g opacity="0.5">
<g opacity="0.5">
<g opacity="0.5">
<g opacity="0.699997">
<g opacity="0.699997">
<path opacity="0.699997" d="M206.14 92.68L205.622 92.8183L205.378 91.9029L205.897 91.7647C205.846 90.9189 206.358 90.3471 207.324 90.09L207.812 89.9602L208.093 91.0181L207.535 91.1666C207.026 91.3015 206.902 91.5738 206.997 91.9301C207.091 92.2855 207.334 92.4611 207.842 92.3263C208.35 92.1905 208.663 91.8902 209.052 90.9808C209.531 89.8737 210.016 89.408 210.83 89.1916C211.786 88.9371 212.501 89.1713 212.882 89.9085L213.41 89.7677L213.654 90.683L213.125 90.8238C213.174 91.6603 212.671 92.2287 211.706 92.4857L211.482 92.5451L211.201 91.4872L211.496 91.4092C212.004 91.2743 212.143 91.019 212.049 90.6635C211.954 90.3081 211.707 90.1554 211.199 90.2911C210.69 90.426 210.388 90.7237 209.988 91.6357C209.499 92.7453 209.023 93.2094 208.21 93.4249C207.245 93.6819 206.513 93.4299 206.14 92.68ZM216.083 89.5479C215.119 85.9179 211.395 83.758 207.765 84.7226C204.136 85.6871 201.976 89.4114 202.941 93.0406C203.905 96.6698 207.63 98.8305 211.258 97.8651C214.888 96.9014 217.048 93.1763 216.083 89.5479Z" fill="#0A1045"/>
</g>
</g>
</g>
</g>
</g>
<path d="M204.653 115.262L193.395 72.9015L214.371 67.3262L225.63 109.686L204.653 115.262Z" stroke="#0A1045" stroke-width="1.33333" stroke-miterlimit="10" stroke-linecap="round" stroke-linejoin="round"/>
<path d="M192.482 180.102C192.482 180.102 213.289 173.088 218.883 172.082C224.476 171.075 240.845 171.522 240.845 171.522V197C240.845 197 223.757 202.185 221.12 204.259C218.484 206.332 194.495 208.029 194.495 208.029L192.482 180.102Z" fill="#CECFDA"/>
<path d="M192.482 180.102C192.482 180.102 213.289 173.088 218.883 172.082C224.476 171.075 240.845 171.522 240.845 171.522V197C240.845 197 223.757 202.185 221.12 204.259C218.484 206.332 194.495 208.029 194.495 208.029L192.482 180.102Z" stroke="#0A1045" stroke-width="1.33333" stroke-miterlimit="10" stroke-linecap="round" stroke-linejoin="round"/>
<path d="M220.877 183.136C219.781 189.034 220.569 196.941 216.663 201.727" stroke="#0A1045" stroke-width="1.33333" stroke-miterlimit="10" stroke-linecap="round" stroke-linejoin="round"/>
<path d="M222.689 174.207C222.266 176.132 221.865 178.062 221.481 179.995" stroke="#0A1045" stroke-width="1.33333" stroke-miterlimit="10" stroke-linecap="round" stroke-linejoin="round"/>
<path d="M243.4 89.6772C243.4 92.2511 241.313 94.338 238.739 94.338C236.164 94.338 234.077 92.2511 234.077 89.6772C234.077 87.1025 236.164 85.0156 238.739 85.0156C241.313 85.0156 243.4 87.1025 243.4 89.6772Z" fill="#FFBC0A"/>
<path d="M243.4 89.6772C243.4 92.2511 241.313 94.338 238.739 94.338C236.164 94.338 234.077 92.2511 234.077 89.6772C234.077 87.1025 236.164 85.0156 238.739 85.0156C241.313 85.0156 243.4 87.1025 243.4 89.6772Z" stroke="#0A1045" stroke-width="1.33333" stroke-miterlimit="10" stroke-linecap="round" stroke-linejoin="round"/>
<path d="M221.324 52.8474C221.324 55.4221 219.237 57.5082 216.663 57.5082C214.089 57.5082 212.002 55.4221 212.002 52.8474C212.002 50.2735 214.089 48.1866 216.663 48.1866C219.237 48.1866 221.324 50.2735 221.324 52.8474Z" fill="#FFBC0A"/>
<path d="M221.324 52.8474C221.324 55.4221 219.237 57.5082 216.663 57.5082C214.089 57.5082 212.002 55.4221 212.002 52.8474C212.002 50.2735 214.089 48.1866 216.663 48.1866C219.237 48.1866 221.324 50.2735 221.324 52.8474Z" stroke="#0A1045" stroke-width="1.33333" stroke-miterlimit="10" stroke-linecap="round" stroke-linejoin="round"/>
<path d="M199.686 142.904C197.187 142.29 195.658 139.765 196.273 137.265C196.887 134.766 199.412 133.236 201.911 133.851C204.411 134.466 205.94 136.99 205.324 139.489C204.711 141.989 202.186 143.518 199.686 142.904Z" fill="#FFBC0A"/>
<path d="M199.686 142.904C197.187 142.29 195.658 139.765 196.273 137.265C196.887 134.766 199.412 133.236 201.911 133.851C204.411 134.466 205.94 136.99 205.324 139.489C204.711 141.989 202.186 143.518 199.686 142.904Z" stroke="#0A1045" stroke-width="1.33333" stroke-miterlimit="10" stroke-linecap="round" stroke-linejoin="round"/>
<path d="M255.569 184.328C254.382 182.176 250.989 183.213 247.03 189.435C243.071 195.656 241.453 202.911 242.41 205.552C243.367 208.195 256.172 211.396 256.172 211.396L258.811 204.704L255.569 184.328Z" fill="#DAFCF3"/>
<g opacity="0.5">
<g opacity="0.5">
<g opacity="0.5">
<g opacity="0.699997">
<g opacity="0.699997">
<path opacity="0.699997" d="M255.569 184.328C254.382 182.176 250.989 183.213 247.03 189.435C243.071 195.656 241.454 202.911 242.41 205.552C243.367 208.195 256.172 211.396 256.172 211.396L258.811 204.704L255.569 184.328Z" fill="#0A1045"/>
</g>
</g>
</g>
</g>
</g>
<path d="M255.569 184.328C254.382 182.176 250.989 183.213 247.03 189.435C243.071 195.656 241.454 202.911 242.41 205.552C243.367 208.195 256.172 211.397 256.172 211.397L258.811 204.704L255.569 184.328Z" stroke="#0A1045" stroke-width="1.33333" stroke-miterlimit="10" stroke-linecap="round" stroke-linejoin="round"/>
<path d="M260.985 197.351L253.64 181.278C253.64 181.278 248.854 174.429 247.912 171.818C246.968 169.206 236.441 167.175 234.064 167.175C231.686 167.175 229.171 171.423 229.171 171.423L234.117 171.426C234.117 171.426 235.961 173.365 236.193 174.526C236.426 175.686 229.655 181.457 228.688 182.005C227.72 182.554 225.168 183.405 222.479 185.397C219.789 187.39 213.728 188.944 212.6 190.73C211.471 192.516 212.268 192.854 213.078 193.265C213.888 193.677 215.243 193.774 215.243 193.774C215.243 193.774 214.76 195.805 215.243 196.869C215.727 197.933 218.546 197.836 218.546 197.836C218.546 197.836 218.678 199.313 220.056 199.542C221.433 199.771 222.479 200.184 222.479 200.184C222.479 200.184 228.301 201.169 230.913 200.615C233.524 200.061 241.448 195.84 243.386 196.016C245.324 196.191 250.68 208.624 250.68 208.624C250.68 208.624 259.824 207.075 260.985 197.351Z" fill="white"/>
<path d="M260.985 197.351L253.64 181.278C253.64 181.278 248.854 174.429 247.912 171.818C246.968 169.206 236.441 167.175 234.064 167.175C231.686 167.175 229.171 171.423 229.171 171.423L234.117 171.426C234.117 171.426 235.961 173.365 236.193 174.526C236.426 175.686 229.655 181.457 228.688 182.005C227.72 182.554 225.168 183.405 222.479 185.397C219.789 187.39 213.728 188.944 212.6 190.73C211.471 192.516 212.268 192.854 213.078 193.265C213.888 193.677 215.243 193.774 215.243 193.774C215.243 193.774 214.76 195.805 215.243 196.869C215.727 197.933 218.546 197.836 218.546 197.836C218.546 197.836 218.678 199.313 220.056 199.542C221.433 199.771 222.479 200.184 222.479 200.184C222.479 200.184 228.301 201.169 230.913 200.615C233.524 200.061 241.448 195.84 243.386 196.016C245.324 196.191 250.68 208.624 250.68 208.624C250.68 208.624 259.824 207.075 260.985 197.351V197.351Z" stroke="#0A1045" stroke-width="1.33333" stroke-miterlimit="10" stroke-linecap="round" stroke-linejoin="round"/>
<path d="M215.243 193.774C215.243 193.774 222.847 192.13 223.35 191.549C223.851 190.968 229.171 189.316 229.171 189.316" stroke="#0A1045" stroke-width="1.33333" stroke-miterlimit="10" stroke-linecap="round" stroke-linejoin="round"/>
<path d="M218.545 197.836C218.545 197.836 222.814 196.966 224.301 196.772C225.786 196.579 231.88 193.773 231.88 193.773" stroke="#0A1045" stroke-width="1.33333" stroke-miterlimit="10" stroke-linecap="round" stroke-linejoin="round"/>
<path d="M222.479 200.184C222.479 200.184 228.494 199.674 229.752 199.094C231.009 198.514 234.685 197.353 234.685 197.353" stroke="#0A1045" stroke-width="1.33333" stroke-miterlimit="10" stroke-linecap="round" stroke-linejoin="round"/>
<path d="M311.356 190.269C302.43 196.151 297.039 210.36 297.039 210.36L283.107 236.274C283.107 236.274 271.391 207.43 268.073 207.061L255.569 184.328C255.569 184.328 257.048 197.651 251.837 203.307C246.626 208.962 242.41 205.552 242.41 205.552L246.302 216.298L247.271 221.403C247.271 221.403 263.705 270.708 269.078 273.76C274.451 276.813 286.675 278.181 297.039 270.591C307.404 263.001 325.136 234.298 326.816 224.909" fill="#DAFCF3"/>
<path d="M311.356 190.269C302.43 196.151 297.039 210.36 297.039 210.36L283.107 236.274C283.107 236.274 271.391 207.43 268.073 207.061L255.569 184.328C255.569 184.328 257.048 197.651 251.837 203.307C246.626 208.962 242.41 205.552 242.41 205.552L246.302 216.298L247.271 221.403C247.271 221.403 263.705 270.708 269.078 273.76C274.451 276.813 286.675 278.181 297.039 270.591C307.404 263.001 325.136 234.298 326.816 224.909" stroke="#0A1045" stroke-width="1.33333" stroke-miterlimit="10" stroke-linecap="round" stroke-linejoin="round"/>
<path d="M263.042 210.471C263.492 209.796 263.908 209.097 264.29 208.38" stroke="#0A1045" stroke-width="1.33333" stroke-miterlimit="10" stroke-linecap="round" stroke-linejoin="round"/>
<path d="M252.51 217.21C256.088 216.831 259.418 214.962 261.727 212.222" stroke="#0A1045" stroke-width="1.33333" stroke-miterlimit="10" stroke-linecap="round" stroke-linejoin="round"/>
<path d="M246.302 216.298C247.69 216.882 249.176 217.213 250.679 217.272" stroke="#0A1045" stroke-width="1.33333" stroke-miterlimit="10" stroke-linecap="round" stroke-linejoin="round"/>
<path d="M286.762 247.701C286.82 248.886 286.744 250.08 286.477 251.236" stroke="#0A1045" stroke-width="1.33333" stroke-miterlimit="10" stroke-linecap="round" stroke-linejoin="round"/>
<path d="M283.107 236.274C284.742 239.125 285.972 242.325 286.523 245.565" stroke="#0A1045" stroke-width="1.33333" stroke-miterlimit="10" stroke-linecap="round" stroke-linejoin="round"/>
<path d="M290.812 240.915C290.812 240.915 288.279 237.742 285.391 236.274" stroke="#0A1045" stroke-width="1.33333" stroke-miterlimit="10" stroke-linecap="round" stroke-linejoin="round"/>
<path d="M312.837 203.304C312.837 203.304 304.999 202.255 298.777 209.426" stroke="#0A1045" stroke-width="1.33333" stroke-miterlimit="10" stroke-linecap="round" stroke-linejoin="round"/>
<path d="M321.127 225.227C319.624 225.439 318.089 225.208 316.734 224.514" stroke="#0A1045" stroke-width="1.33333" stroke-miterlimit="10" stroke-linecap="round" stroke-linejoin="round"/>
<path d="M330.539 214.716C329.306 220.666 325.985 223.684 323.092 224.734" stroke="#0A1045" stroke-width="1.33333" stroke-miterlimit="10" stroke-linecap="round" stroke-linejoin="round"/>
<path d="M293.584 180.899C293.584 180.899 280.57 183.923 273.319 179.075" stroke="#0A1045" stroke-width="1.33333" stroke-miterlimit="10" stroke-linecap="round" stroke-linejoin="round"/>
<path d="M246.915 260.53C246.915 260.53 254.004 280.552 270.405 283.945" stroke="#0A1045" stroke-width="1.33333" stroke-miterlimit="10" stroke-linecap="round" stroke-linejoin="round"/>
<path d="M294.314 288.28C293.47 288.916 292.586 289.499 291.686 290.055" stroke="#0A1045" stroke-width="1.33333" stroke-miterlimit="10" stroke-linecap="round" stroke-linejoin="round"/>
<path d="M203.824 45.815V63.4155" stroke="#0A1045" stroke-width="1.33333" stroke-miterlimit="10" stroke-linecap="round" stroke-linejoin="round"/>
<path d="M203.824 35.2547V42.295" stroke="#0A1045" stroke-width="1.33333" stroke-miterlimit="10" stroke-linecap="round" stroke-linejoin="round"/>
<path d="M203.824 28.6759V32.4417" stroke="#0A1045" stroke-width="1.33333" stroke-miterlimit="10" stroke-linecap="round" stroke-linejoin="round"/>
<path d="M200.499 61.3586L203.824 65.473L207.148 61.3586" stroke="#0A1045" stroke-width="1.33333" stroke-miterlimit="10" stroke-linecap="round" stroke-linejoin="round"/>
<path d="M212.622 133.948V151.549" stroke="#0A1045" stroke-width="1.33333" stroke-miterlimit="10" stroke-linecap="round" stroke-linejoin="round"/>
<path d="M212.622 123.388V130.428" stroke="#0A1045" stroke-width="1.33333" stroke-miterlimit="10" stroke-linecap="round" stroke-linejoin="round"/>
<path d="M212.622 116.809V120.575" stroke="#0A1045" stroke-width="1.33333" stroke-miterlimit="10" stroke-linecap="round" stroke-linejoin="round"/>
<path d="M209.298 149.492L212.622 153.606L215.946 149.492" stroke="#0A1045" stroke-width="1.33333" stroke-miterlimit="10" stroke-linecap="round" stroke-linejoin="round"/>
<path d="M230.009 80.9789V98.5794" stroke="#0A1045" stroke-width="1.33333" stroke-miterlimit="10" stroke-linecap="round" stroke-linejoin="round"/>
<path d="M230.009 70.4186V77.459" stroke="#0A1045" stroke-width="1.33333" stroke-miterlimit="10" stroke-linecap="round" stroke-linejoin="round"/>
<path d="M230.009 63.8398V67.6056" stroke="#0A1045" stroke-width="1.33333" stroke-miterlimit="10" stroke-linecap="round" stroke-linejoin="round"/>
<path d="M226.684 96.5224L230.008 100.637L233.332 96.5224" stroke="#0A1045" stroke-width="1.33333" stroke-miterlimit="10" stroke-linecap="round" stroke-linejoin="round"/>
<path d="M76.8293 274.876C76.5528 285.924 82.022 285.034 82.022 285.034C82.3605 284.12 83.1418 282.862 84.0818 281.403C86.9449 276.999 91.3283 270.825 89.6825 267.167C88.936 265.508 87.5396 263.192 86.0253 260.861C83.0935 256.368 79.7264 251.825 79.7264 251.825L94.3289 249.406C94.3289 249.406 104.727 253.706 112.935 254.204C113.148 254.217 113.363 254.224 113.57 254.224C121.065 254.369 119.855 248.492 119.855 246.598C119.855 245.789 117.83 244.31 115.458 242.851C112.077 240.776 107.977 238.736 107.977 238.736L110.196 234.139C111.738 234.416 113.017 234.471 114.075 234.347C119.759 233.724 118.977 228.13 118.058 225.69C117.795 224.991 116.488 223.934 114.642 222.718C108.8 218.866 97.6128 213.501 97.6128 213.501H81.2059L65.062 257.571C65.062 257.571 77.0991 263.828 76.8293 274.876Z" fill="white"/>
<g opacity="0.399994">
<g opacity="0.399994">
<path opacity="0.399994" d="M76.8293 274.876C76.5528 285.924 82.022 285.034 82.022 285.034C82.3605 284.12 83.1418 282.862 84.0818 281.403C86.9449 276.999 91.3283 270.825 89.6825 267.167C88.936 265.508 87.5396 263.192 86.0253 260.861C83.0935 256.368 79.7264 251.825 79.7264 251.825L94.3289 249.406C94.3289 249.406 104.727 253.706 112.935 254.204C113.148 254.217 113.363 254.224 113.57 254.224C121.065 254.369 119.855 248.492 119.855 246.598C119.855 245.789 117.83 244.31 115.458 242.851C112.077 240.776 107.977 238.736 107.977 238.736L110.196 234.139C111.738 234.416 113.017 234.471 114.075 234.347C119.759 233.724 118.977 228.13 118.058 225.69C117.795 224.991 116.488 223.934 114.642 222.718C108.8 218.866 97.6128 213.501 97.6128 213.501H81.2059L65.062 257.571C65.062 257.571 77.0991 263.828 76.8293 274.876Z" fill="#DAFCF3"/>
</g>
</g>
<g opacity="0.399994">
<g opacity="0.399994">
<path opacity="0.399994" d="M76.8293 274.876C76.5528 285.924 82.022 285.034 82.022 285.034C82.3605 284.12 83.1418 282.862 84.0818 281.403C83.8884 280.38 83.7637 279.274 83.7849 278.187C83.8544 274.406 86.9585 267.167 86.9585 267.167L83.7849 262.148C84.2481 261.671 85.043 261.242 86.0253 260.861C83.0935 256.368 79.7264 251.825 79.7264 251.825L94.3289 249.406C94.3289 249.406 104.727 253.706 112.935 254.204C113.148 254.217 113.363 254.224 113.57 254.224C113.093 250.111 114.718 244.925 115.458 242.851C112.077 240.776 107.977 238.736 107.977 238.736L110.196 234.139C111.738 234.416 113.017 234.471 114.075 234.347C113.328 230.758 114.04 225.78 114.642 222.718C108.8 218.866 97.6128 213.501 97.6128 213.501H81.2059L65.062 257.571C65.062 257.571 77.0991 263.828 76.8293 274.876Z" fill="#DAFCF3"/>
</g>
</g>
<path d="M81.2027 213.5H97.6138C97.6138 213.5 116.964 222.784 118.057 225.687C119.151 228.59 120.042 235.909 110.196 234.141L107.977 238.736C107.977 238.736 119.855 244.641 119.855 246.596C119.855 248.551 121.137 254.696 112.931 254.202C104.725 253.708 94.3316 249.403 94.3316 249.403L79.7283 251.822C79.7283 251.822 87.494 262.298 89.6818 267.166C91.8697 272.033 83.3905 281.354 82.023 285.036C82.023 285.036 76.5529 285.923 76.8261 274.876C77.1001 263.827 65.0647 257.569 65.0647 257.569" stroke="#0A1045" stroke-width="1.33333" stroke-miterlimit="10" stroke-linecap="round" stroke-linejoin="round"/>
<path d="M85.0932 265.195C85.0932 265.195 80.9805 262.892 78.7408 267.166" stroke="#0A1045" stroke-width="1.33333" stroke-miterlimit="10" stroke-linecap="round" stroke-linejoin="round"/>
<path d="M135.358 269.684H54.0495C49.7094 269.684 46.1921 266.166 46.1921 261.826V109.39C46.1921 105.05 49.7094 101.532 54.0495 101.532H135.358C139.697 101.532 143.215 105.05 143.215 109.39V261.826C143.215 266.166 139.697 269.684 135.358 269.684Z" fill="#DAFCF3"/>
<path d="M135.358 269.684H54.0495C49.7094 269.684 46.1921 266.166 46.1921 261.826V109.39C46.1921 105.05 49.7094 101.532 54.0495 101.532H135.358C139.697 101.532 143.215 105.05 143.215 109.39V261.826C143.215 266.166 139.697 269.684 135.358 269.684Z" stroke="#0A1045" stroke-width="1.33333" stroke-miterlimit="10" stroke-linecap="round" stroke-linejoin="round"/>
<path d="M140.208 108.354V263.296C140.208 265.232 138.639 266.802 136.703 266.802H52.7052C50.7684 266.802 49.199 265.232 49.199 263.296V108.354C49.199 106.418 50.7684 104.848 52.7052 104.848H71.3686C72.597 104.848 73.6965 105.612 74.1249 106.763L74.9181 108.893C75.3465 110.044 76.446 110.809 77.6752 110.809H111.733C112.961 110.809 114.061 110.044 114.489 108.893L115.282 106.763C115.711 105.612 116.81 104.848 118.038 104.848H136.703C138.639 104.848 140.208 106.418 140.208 108.354Z" fill="#0A1045"/>
<path d="M107.006 228.536H82.401C77.7929 228.536 74.0585 224.801 74.0585 220.194C74.0585 215.586 77.7929 211.851 82.401 211.851H107.006C111.614 211.851 115.349 215.586 115.349 220.194C115.349 224.801 111.614 228.536 107.006 228.536Z" fill="#DAFCF3"/>
<path d="M107.006 228.536H82.401C77.7929 228.536 74.0585 224.801 74.0585 220.194C74.0585 215.586 77.7929 211.851 82.401 211.851H107.006C111.614 211.851 115.349 215.586 115.349 220.194C115.349 224.801 111.614 228.536 107.006 228.536Z" stroke="#0A1045" stroke-width="1.33333" stroke-miterlimit="10" stroke-linecap="round" stroke-linejoin="round"/>
<path d="M86.6694 106.595C86.6694 107.396 86.0204 108.045 85.2196 108.045C84.4188 108.045 83.7698 107.396 83.7698 106.595C83.7698 105.794 84.4188 105.145 85.2196 105.145C86.0204 105.145 86.6694 105.794 86.6694 106.595Z" fill="white"/>
<path d="M86.6694 106.595C86.6694 107.396 86.0204 108.045 85.2196 108.045C84.4188 108.045 83.7698 107.396 83.7698 106.595C83.7698 105.794 84.4188 105.145 85.2196 105.145C86.0204 105.145 86.6694 105.794 86.6694 106.595Z" stroke="#0A1045" stroke-width="1.33333" stroke-miterlimit="10" stroke-linecap="round" stroke-linejoin="round"/>
<path d="M105.638 106.595C105.638 107.097 105.231 107.504 104.729 107.504C104.227 107.504 103.82 107.097 103.82 106.595C103.82 106.093 104.227 105.686 104.729 105.686C105.231 105.686 105.638 106.093 105.638 106.595Z" fill="white"/>
<path d="M105.638 106.595C105.638 107.097 105.231 107.504 104.729 107.504C104.227 107.504 103.82 107.097 103.82 106.595C103.82 106.093 104.227 105.686 104.729 105.686C105.231 105.686 105.638 106.093 105.638 106.595Z" stroke="#0A1045" stroke-width="1.33333" stroke-miterlimit="10" stroke-linecap="round" stroke-linejoin="round"/>
<path d="M100.475 107.108H89.6024C89.319 107.108 89.0891 106.878 89.0891 106.595C89.0891 106.312 89.319 106.082 89.6024 106.082H100.475C100.757 106.082 100.987 106.312 100.987 106.595C100.987 106.878 100.757 107.108 100.475 107.108Z" fill="white"/>
<path d="M100.475 107.108H89.6024C89.319 107.108 89.0891 106.878 89.0891 106.595C89.0891 106.312 89.319 106.082 89.6024 106.082H100.475C100.757 106.082 100.987 106.312 100.987 106.595C100.987 106.878 100.757 107.108 100.475 107.108Z" stroke="#0A1045" stroke-width="1.33333" stroke-miterlimit="10" stroke-linecap="round" stroke-linejoin="round"/>
<path d="M125.123 203.329H64.2849C58.4339 203.329 53.6917 198.587 53.6917 192.736V130.201C53.6917 124.351 58.4339 119.608 64.2849 119.608H125.123C130.973 119.608 135.716 124.351 135.716 130.201V192.736C135.716 198.587 130.973 203.329 125.123 203.329Z" fill="white"/>
<path d="M125.123 203.329H64.2849C58.4339 203.329 53.6917 198.587 53.6917 192.736V130.201C53.6917 124.351 58.4339 119.608 64.2849 119.608H125.123C130.973 119.608 135.716 124.351 135.716 130.201V192.736C135.716 198.587 130.973 203.329 125.123 203.329Z" stroke="#0A1045" stroke-width="1.33333" stroke-miterlimit="10" stroke-linecap="round" stroke-linejoin="round"/>
<path d="M86.4261 155.03V142.446" stroke="#0A1045" stroke-width="1.33333" stroke-miterlimit="10" stroke-linecap="round" stroke-linejoin="round"/>
<path d="M86.4261 162.58V157.547" stroke="#0A1045" stroke-width="1.33333" stroke-miterlimit="10" stroke-linecap="round" stroke-linejoin="round"/>
<path d="M86.4261 167.283V164.591" stroke="#0A1045" stroke-width="1.33333" stroke-miterlimit="10" stroke-linecap="round" stroke-linejoin="round"/>
<path d="M88.8029 143.917L86.4259 140.976L84.0497 143.917" stroke="#0A1045" stroke-width="1.33333" stroke-miterlimit="10" stroke-linecap="round" stroke-linejoin="round"/>
<path d="M102.98 150.364V137.78" stroke="#0A1045" stroke-width="1.33333" stroke-miterlimit="10" stroke-linecap="round" stroke-linejoin="round"/>
<path d="M102.98 157.914V152.88" stroke="#0A1045" stroke-width="1.33333" stroke-miterlimit="10" stroke-linecap="round" stroke-linejoin="round"/>
<path d="M102.98 162.617V159.925" stroke="#0A1045" stroke-width="1.33333" stroke-miterlimit="10" stroke-linecap="round" stroke-linejoin="round"/>
<path d="M105.357 139.251L102.981 136.31L100.604 139.251" stroke="#0A1045" stroke-width="1.33333" stroke-miterlimit="10" stroke-linecap="round" stroke-linejoin="round"/>
<path d="M94.3259 141.913V129.33" stroke="#0A1045" stroke-width="1.33333" stroke-miterlimit="10" stroke-linecap="round" stroke-linejoin="round"/>
<path d="M94.3259 149.463V144.43" stroke="#0A1045" stroke-width="1.33333" stroke-miterlimit="10" stroke-linecap="round" stroke-linejoin="round"/>
<path d="M94.3259 154.167V151.474" stroke="#0A1045" stroke-width="1.33333" stroke-miterlimit="10" stroke-linecap="round" stroke-linejoin="round"/>
<path d="M96.7023 130.801L94.3261 127.859L91.9491 130.801" stroke="#0A1045" stroke-width="1.33333" stroke-miterlimit="10" stroke-linecap="round" stroke-linejoin="round"/>
<path d="M107.865 159.579C107.865 166.848 101.972 172.74 94.7035 172.74C87.4349 172.74 81.5424 166.848 81.5424 159.579C81.5424 152.311 87.4349 146.418 94.7035 146.418C101.972 146.418 107.865 152.311 107.865 159.579Z" fill="#FFF4D6"/>
<path d="M107.865 159.579C107.865 166.848 101.972 172.74 94.7035 172.74C87.4349 172.74 81.5424 166.848 81.5424 159.579C81.5424 152.311 87.4349 146.418 94.7035 146.418C101.972 146.418 107.865 152.311 107.865 159.579Z" stroke="#0A1045" stroke-width="1.33333" stroke-miterlimit="10" stroke-linecap="round" stroke-linejoin="round"/>
<path d="M93.7866 152.587V151.529H95.619V152.587C97.2071 152.913 98.0215 154.135 98.0215 156.069V156.517H95.9041V155.927C95.9041 154.909 95.4969 154.522 94.7843 154.522C94.0717 154.522 93.6645 154.909 93.6645 155.927C93.6645 156.945 94.0717 157.658 95.5783 158.859C97.4107 160.325 98.0428 161.445 98.0428 163.074C98.0428 165.008 97.2071 166.25 95.619 166.576V167.614H93.7866V166.576C92.1782 166.25 91.3638 165.008 91.3638 163.074V162.097H93.4812V163.216C93.4812 164.234 93.9291 164.601 94.6418 164.601C95.3544 164.601 95.8023 164.234 95.8023 163.216C95.8023 162.198 95.3951 161.465 93.8884 160.284C92.056 158.839 91.4249 157.698 91.4249 156.069C91.4249 154.155 92.2189 152.934 93.7866 152.587Z" fill="#0A1045"/>
<path d="M84.4479 180.83V180.427H85.1436V180.83C85.7467 180.953 86.0555 181.417 86.0555 182.151V182.321H85.2521V182.097C85.2521 181.711 85.0977 181.564 84.8271 181.564C84.5565 181.564 84.4013 181.711 84.4013 182.097C84.4013 182.484 84.5565 182.754 85.1283 183.21C85.8239 183.766 86.0632 184.191 86.0632 184.809C86.0632 185.544 85.7467 186.015 85.1436 186.138V186.533H84.4479V186.138C83.838 186.015 83.5283 185.544 83.5283 184.809V184.438H84.3325V184.863C84.3325 185.25 84.5022 185.389 84.7728 185.389C85.0435 185.389 85.2131 185.25 85.2131 184.863C85.2131 184.477 85.0587 184.199 84.4869 183.75C83.7913 183.202 83.5512 182.77 83.5512 182.151C83.5512 181.425 83.8532 180.961 84.4479 180.83Z" fill="#0A1045"/>
<path d="M87.1627 181.455C87.8193 181.455 87.9661 181.138 88.0976 180.776H88.6694V186.185H87.8193V182.059H87.1627V181.455Z" fill="#0A1045"/>
<path d="M90.4808 184.941C90.4808 185.328 90.6504 185.474 90.9211 185.474C91.1917 185.474 91.3614 185.328 91.3614 184.941V182.02C91.3614 181.633 91.1917 181.486 90.9211 181.486C90.6504 181.486 90.4808 181.633 90.4808 182.02V184.941ZM89.6307 182.074C89.6307 181.208 90.0863 180.713 90.9211 180.713C91.7558 180.713 92.2122 181.208 92.2122 182.074V184.887C92.2122 185.753 91.7558 186.247 90.9211 186.247C90.0863 186.247 89.6307 185.753 89.6307 184.887V182.074Z" fill="#0A1045"/>
<path d="M93.543 184.941C93.543 185.328 93.7127 185.474 93.9833 185.474C94.2539 185.474 94.4236 185.328 94.4236 184.941V182.02C94.4236 181.633 94.2539 181.486 93.9833 181.486C93.7127 181.486 93.543 181.633 93.543 182.02V184.941ZM92.693 182.074C92.693 181.208 93.1486 180.713 93.9833 180.713C94.8181 180.713 95.2745 181.208 95.2745 182.074V184.887C95.2745 185.753 94.8181 186.247 93.9833 186.247C93.1486 186.247 92.693 185.753 92.693 184.887V182.074Z" fill="#0A1045"/>
<path d="M96.6059 184.941C96.6059 185.328 96.7756 185.474 97.0462 185.474C97.3168 185.474 97.4865 185.328 97.4865 184.941V182.02C97.4865 181.633 97.3168 181.486 97.0462 181.486C96.7756 181.486 96.6059 181.633 96.6059 182.02V184.941ZM95.7559 182.074C95.7559 181.208 96.2114 180.713 97.0462 180.713C97.881 180.713 98.3374 181.208 98.3374 182.074V184.887C98.3374 185.753 97.881 186.247 97.0462 186.247C96.2114 186.247 95.7559 185.753 95.7559 184.887V182.074Z" fill="#0A1045"/>
<path d="M99.7069 186.185H98.8875V185.366H99.7069V186.185Z" fill="#0A1045"/>
<path d="M101.106 184.941C101.106 185.328 101.276 185.474 101.547 185.474C101.817 185.474 101.987 185.328 101.987 184.941V182.02C101.987 181.633 101.817 181.486 101.547 181.486C101.276 181.486 101.106 181.633 101.106 182.02V184.941ZM100.256 182.074C100.256 181.208 100.712 180.713 101.547 180.713C102.381 180.713 102.838 181.208 102.838 182.074V184.887C102.838 185.753 102.381 186.247 101.547 186.247C100.712 186.247 100.256 185.753 100.256 184.887V182.074Z" fill="#0A1045"/>
<path d="M104.169 184.941C104.169 185.328 104.339 185.474 104.61 185.474C104.88 185.474 105.05 185.328 105.05 184.941V182.02C105.05 181.633 104.88 181.486 104.61 181.486C104.339 181.486 104.169 181.633 104.169 182.02V184.941ZM103.319 182.074C103.319 181.208 103.775 180.713 104.61 180.713C105.444 180.713 105.901 181.208 105.901 182.074V184.887C105.901 185.753 105.444 186.247 104.61 186.247C103.775 186.247 103.319 185.753 103.319 184.887V182.074Z" fill="#0A1045"/>
<path d="M79.7693 191.191H80.6193V196.6H79.7693V191.191Z" fill="#0A1045"/>
<path d="M82.0884 191.964V195.828H82.5678C82.8384 195.828 83.0004 195.689 83.0004 195.303V192.49C83.0004 192.103 82.8384 191.964 82.5678 191.964H82.0884ZM81.2384 191.191H82.583C83.4331 191.191 83.8504 191.662 83.8504 192.528V195.264C83.8504 196.129 83.4331 196.601 82.583 196.601H81.2384V191.191Z" fill="#0A1045"/>
<path d="M85.1358 196.6H84.3163V195.781H85.1358V196.6Z" fill="#0A1045"/>
<path d="M86.999 191.902C86.7284 191.902 86.5587 192.049 86.5587 192.435V193.015H85.7545V192.489C85.7545 191.624 86.1872 191.129 87.0219 191.129C87.8567 191.129 88.2894 191.624 88.2894 192.489C88.2894 193.208 88.0264 193.788 87.2383 194.63C86.736 195.171 86.5969 195.426 86.5969 195.712C86.5969 195.751 86.5969 195.789 86.6046 195.827H88.2122V196.601H85.7545V195.936C85.7545 195.332 85.9717 194.877 86.6046 194.213C87.2544 193.525 87.4393 193.1 87.4393 192.52C87.4393 192.033 87.2697 191.902 86.999 191.902Z" fill="#0A1045"/>
<path d="M89.3433 191.871C89.9999 191.871 90.1466 191.553 90.2781 191.191H90.8499V196.6H89.9999V192.474H89.3433V191.871Z" fill="#0A1045"/>
<path d="M93.1011 195.89C93.3717 195.89 93.5728 195.758 93.5804 195.279V194.777C93.5804 194.352 93.4022 194.166 93.1011 194.166C92.7999 194.166 92.6218 194.352 92.6218 194.777V195.279C92.6218 195.758 92.8305 195.89 93.1011 195.89ZM92.6218 192.821C92.6218 193.255 92.8228 193.394 93.1011 193.394C93.3717 193.394 93.5804 193.255 93.5804 192.821V192.52C93.5804 192.033 93.3717 191.902 93.1011 191.902C92.8305 191.902 92.6218 192.033 92.6218 192.52V192.821ZM93.1011 196.662C92.2434 196.662 91.7717 196.168 91.7717 195.303V194.878C91.7717 194.359 91.9261 193.965 92.2977 193.757V193.741C91.9422 193.548 91.7717 193.193 91.7717 192.659V192.489C91.7717 191.623 92.2434 191.129 93.1011 191.129C93.9587 191.129 94.4304 191.623 94.4304 192.489V192.659C94.4304 193.193 94.2523 193.548 93.9045 193.741V193.757C94.276 193.965 94.4304 194.359 94.4304 194.878V195.303C94.4304 196.168 93.9587 196.662 93.1011 196.662Z" fill="#0A1045"/>
<path d="M95.4683 191.871C96.1249 191.871 96.2716 191.553 96.4031 191.191H96.9749V196.6H96.1249V192.474H95.4683V191.871Z" fill="#0A1045"/>
<path d="M99.6514 193.409V192.435C99.6514 192.048 99.4817 191.91 99.2111 191.91C98.9405 191.91 98.77 192.048 98.77 192.435V193.409C98.77 193.796 98.9405 193.942 99.2111 193.942C99.4817 193.942 99.6514 193.796 99.6514 193.409ZM100.501 195.256C100.501 196.168 100.084 196.662 99.2035 196.662C98.3687 196.662 97.936 196.168 97.936 195.302V195.163H98.7394V195.356C98.7394 195.743 98.9091 195.889 99.1797 195.889C99.4817 195.889 99.6514 195.743 99.6514 195.225V194.244H99.6361C99.4894 194.552 99.2416 194.715 98.8633 194.715C98.2372 194.715 97.9199 194.274 97.9199 193.478V192.489C97.9199 191.624 98.3763 191.128 99.2111 191.128C100.045 191.128 100.501 191.624 100.501 192.489V195.256Z" fill="#0A1045"/>
<path d="M101.833 194.854V195.356C101.833 195.742 102.003 195.881 102.274 195.881C102.544 195.881 102.714 195.742 102.714 195.356V194.166C102.714 193.779 102.544 193.633 102.274 193.633C102.003 193.633 101.833 193.779 101.833 194.166V194.328H101.029L101.184 191.191H103.424V191.964H101.94L101.871 193.254H101.887C102.041 192.999 102.281 192.86 102.621 192.86C103.247 192.86 103.564 193.301 103.564 194.096V195.302C103.564 196.167 103.131 196.662 102.297 196.662C101.462 196.662 101.029 196.167 101.029 195.302V194.854H101.833Z" fill="#0A1045"/>
<path d="M104.927 194.383V195.356C104.927 195.743 105.096 195.882 105.367 195.882C105.637 195.882 105.808 195.743 105.808 195.356V194.383C105.808 193.996 105.637 193.849 105.367 193.849C105.096 193.849 104.927 193.996 104.927 194.383ZM104.077 192.536C104.077 191.624 104.494 191.129 105.374 191.129C106.209 191.129 106.642 191.624 106.642 192.489V192.628H105.839V192.435C105.839 192.049 105.669 191.902 105.398 191.902C105.096 191.902 104.927 192.049 104.927 192.566V193.548H104.942C105.089 193.239 105.336 193.076 105.715 193.076C106.341 193.076 106.658 193.516 106.658 194.313V195.302C106.658 196.168 106.202 196.662 105.367 196.662C104.532 196.662 104.077 196.168 104.077 195.302V192.536Z" fill="#0A1045"/>
<path d="M109.689 191.191V191.933L108.437 196.6H107.587L108.831 191.964H107.139V191.191H109.689Z" fill="#0A1045"/>
<path d="M93.6265 187.542H94.6216V187.835H94.2848V189.59H93.9624V187.835H93.6265V187.542Z" fill="#0A1045"/>
<path d="M95.058 189.119C95.058 189.265 95.1216 189.321 95.2242 189.321C95.3269 189.321 95.3914 189.265 95.3914 189.119V188.013C95.3914 187.867 95.3269 187.811 95.2242 187.811C95.1216 187.811 95.058 187.867 95.058 188.013V189.119ZM94.7356 188.034C94.7356 187.706 94.9087 187.519 95.2242 187.519C95.5398 187.519 95.7129 187.706 95.7129 188.034V189.099C95.7129 189.426 95.5398 189.614 95.2242 189.614C94.9087 189.614 94.7356 189.426 94.7356 189.099V188.034Z" fill="#0A1045"/>
<path d="M87.8901 215.72C89.1049 215.72 89.7293 216.447 89.7293 217.718V217.968H88.5484V217.639C88.5484 217.072 88.3219 216.856 87.9249 216.856C87.527 216.856 87.2997 217.072 87.2997 217.639C87.2997 218.218 87.5499 218.65 88.3669 219.365C89.4112 220.284 89.7412 220.943 89.7412 221.851C89.7412 223.123 89.1049 223.849 87.8791 223.849C86.6532 223.849 86.017 223.123 86.017 221.851V221.363H87.1979V221.93C87.1979 222.498 87.4481 222.702 87.8451 222.702C88.2422 222.702 88.4916 222.498 88.4916 221.93C88.4916 221.352 88.2422 220.92 87.4252 220.205C86.3801 219.285 86.0517 218.627 86.0517 217.718C86.0517 216.447 86.6753 215.72 87.8901 215.72Z" fill="#0A1045"/>
<path d="M91.7031 219.16H93.4176V220.296H91.7031V222.623H93.8596V223.758H90.4543V215.812H93.8596V216.947H91.7031V219.16Z" fill="#0A1045"/>
<path d="M95.7655 218.003H95.7426V223.758H94.6185V215.812H96.1854L97.4452 220.567H97.4681V215.812H98.5811V223.758H97.2984L95.7655 218.003Z" fill="#0A1045"/>
<path d="M100.724 216.947V222.623H101.428C101.825 222.623 102.064 222.418 102.064 221.851V217.718C102.064 217.151 101.825 216.947 101.428 216.947H100.724ZM99.4755 215.811H101.45C102.7 215.811 103.313 216.505 103.313 217.775V221.794C103.313 223.066 102.7 223.758 101.45 223.758H99.4755V215.811Z" fill="#0A1045"/>
<path d="M38.8074 199.839C38.8074 199.839 44.2775 201.53 46.1922 206.284" stroke="#0A1045" stroke-width="1.33333" stroke-miterlimit="10" stroke-linecap="round" stroke-linejoin="round"/>
<path d="M14.0187 350.534C14.6295 339.964 15.0299 329.166 15.5576 320.474C16.6519 302.45 17.4723 290.358 19.1138 278.051C20.7545 265.743 20.4813 247.151 21.3017 240.656C22.1229 234.16 24.5678 232.788 26.4986 225.073C28.4294 217.36 30.1651 201.999 33.3362 199.839C36.5082 197.679 46.192 193.625 46.192 193.625V237.137C51.9361 245.966 58.7737 248.152 58.7737 248.152C63.1503 235.486 62.604 230.458 66.9797 225.809C71.3554 221.158 74.5087 215.081 81.3803 217.62C84.6523 218.829 86.3999 220.065 84.7584 231.157C83.1177 242.249 79.8354 245.735 79.8354 245.735C79.2883 249.524 80.1086 260.546 81.4761 266.183C82.8437 271.822 77.6467 286.803 75.1857 296.376C72.7238 305.949 59.5949 325.349 59.5949 325.349C59.5949 325.349 59.0477 336.037 60.1421 347.251C60.2422 348.281 60.3686 349.383 60.5145 350.534L61.3815 380.322L14.0187 379.43V350.534Z" fill="white"/>
<g opacity="0.399994">
<g opacity="0.399994">
<path opacity="0.399994" d="M83.7851 220.885C83.5221 219.938 83.5636 219.316 83.7851 218.915C83.142 218.32 82.3259 217.968 81.3792 217.621C74.5059 215.077 71.3535 221.162 66.9769 225.808C66.5697 226.243 66.2024 226.679 65.8774 227.128C69.84 225.636 75.0319 225.663 77.1196 228.56C79.747 232.189 85.0983 225.628 83.7851 220.885Z" fill="#DAFCF3"/>
</g>
</g>
<g opacity="0.399994">
<g opacity="0.399994">
<path opacity="0.399994" d="M54.1032 339.861L51.9391 347.972C51.9391 347.972 54.988 344.984 59.5445 337.738C59.323 330.665 59.5928 325.349 59.5928 325.349C59.5928 325.349 72.7226 305.947 75.1845 296.379C77.6455 286.803 82.845 271.82 81.4757 266.185C80.1065 260.543 79.2904 249.523 79.8368 245.734C79.8368 245.734 80.5214 245.001 81.4274 243.141C80.8327 242.567 80.1413 242.097 79.3668 241.925C79.3668 241.925 75.8546 250.242 76.7055 261.187C77.5556 272.124 75.6824 273.037 72.0592 287.259C68.4359 301.482 62.4212 317.584 59.5928 320.473C56.7653 323.365 55.5411 336.376 54.1032 339.861Z" fill="#DAFCF3"/>
</g>
</g>
<g opacity="0.399994">
<g opacity="0.399994">
<path opacity="0.399994" d="M48.9248 244.04C48.9248 244.04 44.6102 244.711 42.8753 245.734C42.8753 245.734 51.2959 247.933 51.8423 250.277C52.3886 252.613 54.193 255.054 57.3938 252.191C57.3938 252.191 57.5601 250.4 57.8918 247.801C55.8591 246.895 50.6945 244.054 46.1932 237.14V193.624C46.1932 193.624 41.4094 195.628 37.4612 197.564C40.3863 197.951 43.3792 198.85 44.5482 200.828C44.5482 200.828 43.6634 204.471 39.6253 206.282C36.5144 207.68 39.6253 231.159 39.6253 231.159C39.6253 231.159 34.5225 232.417 32.8844 237.14C32.8844 237.14 41.2711 237.997 44.7349 240.659C48.1986 243.314 48.9248 244.04 48.9248 244.04Z" fill="#DAFCF3"/>
</g>
</g>
<g opacity="0.399994">
<g opacity="0.399994">
<path opacity="0.399994" d="M15.558 320.474C15.1296 327.513 14.7903 335.934 14.3551 344.5C15.4333 328.218 18.7037 300.272 18.7037 300.272C18.7037 300.272 21.6288 310.608 21.8502 309.508C22.5 306.273 20.481 287.985 20.6608 281.472C20.7431 278.52 20.5293 270.949 20.2663 263.565C20.0313 268.639 19.6929 273.728 19.1117 278.05C17.4728 290.357 16.6507 302.449 15.558 320.474Z" fill="#DAFCF3"/>
</g>
</g>
<path d="M14.0187 381.443V350.533C14.6295 339.964 15.0299 329.167 15.5576 320.475C16.6519 302.451 17.4723 290.359 19.1138 278.051C20.7545 265.742 20.4813 247.151 21.3017 240.656C22.1229 234.16 24.5678 232.789 26.4986 225.074C28.4294 217.36 30.1651 201.999 33.3362 199.839C36.5082 197.679 46.192 193.624 46.192 193.624V237.137C51.9361 245.967 58.7737 248.152 58.7737 248.152C63.1503 235.486 62.604 230.457 66.9797 225.809C71.3554 221.159 74.5087 215.08 81.3803 217.62C84.6523 218.828 86.3999 220.064 84.7584 231.157C83.1177 242.249 79.8354 245.734 79.8354 245.734C79.2883 249.524 80.1086 260.546 81.4761 266.184C82.8437 271.822 77.6467 286.802 75.1857 296.377C72.7238 305.95 59.5949 325.349 59.5949 325.349C59.5949 325.349 59.0477 336.038 60.1421 347.251C60.2422 348.281 60.3686 349.383 60.5145 350.533C60.5145 350.533 60.9556 369.767 63.051 381.443" stroke="#0A1045" stroke-width="1.33333" stroke-miterlimit="10" stroke-linecap="round" stroke-linejoin="round"/>
<path d="M58.7739 248.152C58.7739 248.152 57.4064 254.254 54.6714 255.623C51.9355 256.99 48.0009 255.623 48.0009 255.623" stroke="#0A1045" stroke-width="1.33333" stroke-miterlimit="10" stroke-linecap="round" stroke-linejoin="round"/>
<path d="M46.1922 237.137C46.1922 237.137 43.4572 231.058 34.704 236.33" stroke="#0A1045" stroke-width="1.33333" stroke-miterlimit="10" stroke-linecap="round" stroke-linejoin="round"/>
<path d="M46.1923 212.572C46.1923 212.572 45.6451 209.348 41.132 208.526" stroke="#0A1045" stroke-width="1.33333" stroke-miterlimit="10" stroke-linecap="round" stroke-linejoin="round"/>
<path d="M59.5945 325.349C54.3975 331.934 55.3859 338.225 53.3872 341.508C51.3893 344.79 51.6625 356.55 51.6625 356.55" stroke="#0A1045" stroke-width="1.33333" stroke-miterlimit="10" stroke-linecap="round" stroke-linejoin="round"/>
<path d="M21.8488 262.145V285.035C21.8488 295.008 23.7635 304.582 23.7635 304.582" stroke="#0A1045" stroke-width="1.33333" stroke-miterlimit="10" stroke-linecap="round" stroke-linejoin="round"/>
<path d="M79.835 245.735C79.835 245.735 79.835 241.828 78.7406 240.656" stroke="#0A1045" stroke-width="1.33333" stroke-miterlimit="10" stroke-linecap="round" stroke-linejoin="round"/>
<path d="M76.8264 233.448C76.8264 233.448 74.4035 225.291 67.2919 228.846" stroke="#0A1045" stroke-width="1.33333" stroke-miterlimit="10" stroke-linecap="round" stroke-linejoin="round"/>
<path d="M54.9118 246.138C49.6309 246.251 44.2778 243.909 41.1322 246.757" stroke="#0A1045" stroke-width="1.33333" stroke-miterlimit="10" stroke-linecap="round" stroke-linejoin="round"/>
<path d="M13.251 372.493H11.825V340.052H13.251C14.1774 340.052 14.929 340.803 14.929 341.729V370.815C14.929 371.742 14.1774 372.493 13.251 372.493Z" fill="#0A1045"/>
<path d="M11.8253 344.255C11.8253 344.255 36.9014 337.7 60.9688 345.171C61.7332 345.408 62.2498 346.126 62.2498 346.925V362.318C62.2498 362.894 61.7332 363.33 61.1665 363.228C56.0001 362.297 33.2807 358.707 13.0664 363.431L11.8253 344.255Z" fill="#0A1045"/>
<path d="M12.9155 343.967V340.499C12.9155 339.356 11.9891 338.43 10.8455 338.43H8.03498C7.32492 338.43 6.6717 338.817 6.33152 339.439L3.85352 343.967V370.48L6.30098 373.462C6.67 373.911 7.22058 374.171 7.80169 374.171H10.8455C11.9891 374.171 12.9155 373.245 12.9155 372.102V343.967Z" fill="white"/>
<path d="M12.9155 343.967V340.499C12.9155 339.356 11.9891 338.43 10.8455 338.43H8.03498C7.32492 338.43 6.6717 338.817 6.33152 339.439L3.85352 343.967V370.48L6.30098 373.462C6.67 373.911 7.22058 374.171 7.80169 374.171H10.8455C11.9891 374.171 12.9155 373.245 12.9155 372.102V343.967Z" stroke="#0A1045" stroke-width="1.33333" stroke-miterlimit="10" stroke-linecap="round" stroke-linejoin="round"/>
<path d="M11.1369 342.257L16.8615 341.193C17.5401 341.067 18.1671 341.588 18.1671 342.278V345.582L16.2719 346.988V357.727H18.1671V363.329C18.1671 363.976 17.7123 364.533 17.0795 364.664L11.6433 365.789C10.8281 365.958 10.0629 365.336 10.0629 364.503V343.548C10.0629 342.916 10.5142 342.373 11.1369 342.257Z" fill="white"/>
<path d="M11.1369 342.257L16.8615 341.193C17.5401 341.067 18.1671 341.588 18.1671 342.278V345.582L16.2719 346.988V357.727H18.1671V363.329C18.1671 363.976 17.7123 364.533 17.0795 364.664L11.6433 365.789C10.8281 365.958 10.0629 365.336 10.0629 364.503V343.548C10.0629 342.916 10.5142 342.373 11.1369 342.257V342.257Z" stroke="#0A1045" stroke-width="1.33333" stroke-miterlimit="10" stroke-linecap="round" stroke-linejoin="round"/>
<path d="M11.3492 364.327L16.0126 363.26C16.3604 363.18 16.6073 362.872 16.6073 362.514V359.013" stroke="#0A1045" stroke-width="1.33333" stroke-miterlimit="10" stroke-linecap="round" stroke-linejoin="round"/>
<path d="M14.7054 357.559V346.065L16.5786 344.639V342.484" stroke="#0A1045" stroke-width="1.33333" stroke-miterlimit="10" stroke-linecap="round" stroke-linejoin="round"/>
<path d="M7.12634 340.527V371.235" stroke="#0A1045" stroke-width="1.33333" stroke-miterlimit="10" stroke-linecap="round" stroke-linejoin="round"/>
<path d="M29.7797 352.514C29.3165 352.514 28.9407 352.139 28.9407 351.675V349.84C28.9407 349.377 29.3165 349.001 29.7797 349.001C30.2429 349.001 30.6187 349.377 30.6187 349.84V351.675C30.6187 352.139 30.2429 352.514 29.7797 352.514Z" fill="white"/>
<path d="M42.7006 352.855C42.2374 352.855 41.8616 352.479 41.8616 352.016V350.182C41.8616 349.718 42.2374 349.342 42.7006 349.342C43.1638 349.342 43.5396 349.718 43.5396 350.182V352.016C43.5396 352.479 43.1638 352.855 42.7006 352.855Z" fill="white"/>
<path d="M54.1951 354.27C53.7319 354.27 53.3561 353.894 53.3561 353.431V351.597C53.3561 351.133 53.7319 350.757 54.1951 350.757C54.6583 350.757 55.0341 351.133 55.0341 351.597V353.431C55.0341 353.894 54.6583 354.27 54.1951 354.27Z" fill="white"/>
</svg>
