<svg width="121" height="115" viewBox="0 0 121 115" fill="none" xmlns="http://www.w3.org/2000/svg">
<path d="M114.139 50.1182C114.139 50.1182 97.664 9.92954 67.5449 2.16887C37.4259 -5.59156 24.7936 18.1382 20.1782 34.5971C15.5628 51.0557 -1.44577 72.8452 0.0987974 87.8123C1.56665 102.036 14.0334 108.765 25.6771 111.652C40.4761 115.321 57.2931 115.6 72.148 112.541C75.682 111.814 79.1488 110.836 82.5903 109.714C89.5707 107.438 96.4206 105.675 103.49 103.789C116.938 100.202 122.267 85.757 120.749 71.9347C119.895 64.1567 117.044 57.1972 114.139 50.1182Z" fill="#FFBC0A"/>
<g opacity="0.300003">
<path opacity="0.300003" d="M102.084 101.872C102.084 106.291 98.502 109.872 94.0838 109.872H18.6587C14.2404 109.872 10.6587 106.291 10.6587 101.872V37.2036C10.6587 32.7853 14.2404 29.2036 18.6587 29.2036H94.0838C98.502 29.2036 102.084 32.7853 102.084 37.2036V101.872Z" fill="#0A1045"/>
</g>
<path d="M104.373 97.7544C104.373 102.173 100.791 105.754 96.3726 105.754H20.9468C16.5285 105.754 12.9468 102.173 12.9468 97.7544V33.0856C12.9468 28.6674 16.5285 25.0856 20.9468 25.0856H96.3726C100.791 25.0856 104.373 28.6673 104.373 33.0856V97.7544Z" fill="white" stroke="#0A1045" stroke-width="1.33333" stroke-miterlimit="10" stroke-linecap="round" stroke-linejoin="round"/>
<path d="M104.373 30.847H12.9468V25.0849H104.373V30.847Z" fill="#0A1045" stroke="#0A1045" stroke-width="1.33333" stroke-miterlimit="10" stroke-linecap="round" stroke-linejoin="round"/>
<path d="M52.9445 59.6256V51.123C52.9445 47.9752 55.5603 45.4154 58.7755 45.4154C61.9899 45.4154 64.6057 47.9752 64.6057 51.123V56.0906H66.9296V51.123C66.9296 46.7211 63.2713 43.1395 58.7755 43.1395C54.2782 43.1395 50.6206 46.7211 50.6206 51.123V59.6256H52.9445Z" fill="white"/>
<path d="M52.9445 59.6256V51.123C52.9445 47.9752 55.5603 45.4154 58.7755 45.4154C61.9899 45.4154 64.6057 47.9752 64.6057 51.123V56.0906H66.9296V51.123C66.9296 46.7211 63.2713 43.1395 58.7755 43.1395C54.2782 43.1395 50.6206 46.7211 50.6206 51.123V59.6256H52.9445Z" stroke="#0A1045" stroke-width="1.33333" stroke-miterlimit="10" stroke-linecap="round" stroke-linejoin="round"/>
<path d="M67.5621 73.5279H49.7573V58.7992H67.5621V73.5279Z" fill="#12C297" stroke="#0A1045" stroke-width="1.33333" stroke-miterlimit="10" stroke-linecap="round" stroke-linejoin="round"/>
<path d="M70.1001 53.3943L71.2545 50.7563" stroke="#0A1045" stroke-width="1.33333" stroke-miterlimit="10" stroke-linecap="round" stroke-linejoin="round"/>
<path d="M70.2654 56.5274H74.5525" stroke="#0A1045" stroke-width="1.33333" stroke-miterlimit="10" stroke-linecap="round" stroke-linejoin="round"/>
<path d="M69.7703 59.4954L72.0791 61.9692" stroke="#0A1045" stroke-width="1.33333" stroke-miterlimit="10" stroke-linecap="round" stroke-linejoin="round"/>
<path d="M60.5111 64.9152C60.5111 63.8676 59.6427 63.0179 58.5722 63.0179C57.5016 63.0179 56.634 63.8676 56.634 64.9152C56.634 65.6373 57.0456 66.2647 57.6522 66.5859L57.3267 69.9309H59.8184L59.4929 66.5859C60.0988 66.2647 60.5111 65.6373 60.5111 64.9152Z" fill="#0A1045"/>
<path d="M60.5111 64.9152C60.5111 63.8676 59.6427 63.0179 58.5722 63.0179C57.5016 63.0179 56.634 63.8676 56.634 64.9152C56.634 65.6373 57.0456 66.2647 57.6522 66.5859L57.3267 69.9309H59.8184L59.4929 66.5859C60.0988 66.2647 60.5111 65.6373 60.5111 64.9152Z" stroke="#0A1045" stroke-width="1.33333" stroke-miterlimit="10" stroke-linecap="round" stroke-linejoin="round"/>
<path d="M90.5357 92.067H26.7832C25.1993 92.067 23.915 90.7828 23.915 89.1989V82.3963C23.915 80.8117 25.1993 79.5282 26.7832 79.5282H90.5357C92.1196 79.5282 93.4038 80.8117 93.4038 82.3963V89.1989C93.4038 90.7828 92.1196 92.067 90.5357 92.067Z" fill="white"/>
<path d="M90.5357 92.067H26.7832C25.1993 92.067 23.915 90.7828 23.915 89.1989V82.3963C23.915 80.8117 25.1993 79.5282 26.7832 79.5282H90.5357C92.1196 79.5282 93.4038 80.8117 93.4038 82.3963V89.1989C93.4038 90.7828 92.1196 92.067 90.5357 92.067Z" stroke="#0A1045" stroke-width="1.33333" stroke-miterlimit="10" stroke-linecap="round" stroke-linejoin="round"/>
<path d="M30.6621 86.1935C30.176 86.0379 30.0204 85.6686 30.1566 85.28L30.1953 85.1825C30.3509 84.7745 30.6815 84.6382 31.1289 84.7745C31.5562 84.9301 32.2568 85.28 32.7817 85.6493C32.606 85.0462 32.4705 84.2295 32.4705 83.7434C32.4705 83.2967 32.7229 82.9855 33.1703 82.9855H33.2678C33.7145 82.9855 33.9676 83.2967 33.9676 83.7434C33.9676 84.2295 33.8314 85.0462 33.6565 85.6493C34.2014 85.28 34.8819 84.9301 35.3092 84.7745C35.7373 84.6382 36.1066 84.7745 36.2428 85.2018L36.2622 85.2606C36.3984 85.7073 36.2622 86.0379 35.776 86.1935C35.3286 86.3297 34.5707 86.4466 33.9289 86.466C34.4144 86.8352 35.0174 87.3795 35.3092 87.7688C35.5616 88.1187 35.5229 88.5267 35.1923 88.7798L35.1149 88.8379C34.7449 89.1104 34.3756 89.0322 34.0845 88.6436C33.812 88.255 33.4815 87.6132 33.2291 86.9521C32.9566 87.6132 32.6261 88.255 32.3536 88.6436C32.0618 89.0322 31.6925 89.1104 31.3232 88.8379L31.2451 88.7798C30.8951 88.5267 30.8758 88.1187 31.1289 87.7688C31.4207 87.3795 32.023 86.8352 32.5092 86.4466C31.8868 86.4466 31.1095 86.3297 30.6621 86.1935Z" fill="#0A1045"/>
<path d="M37.9331 86.1935C37.4469 86.0379 37.2914 85.6686 37.4276 85.28L37.4663 85.1825C37.6219 84.7745 37.9525 84.6382 38.3999 84.7745C38.8272 84.9301 39.5278 85.28 40.0527 85.6493C39.877 85.0462 39.7415 84.2295 39.7415 83.7434C39.7415 83.2967 39.9939 82.9855 40.4413 82.9855H40.5388C40.9855 82.9855 41.2386 83.2967 41.2386 83.7434C41.2386 84.2295 41.1024 85.0462 40.9274 85.6493C41.4717 85.28 42.1521 84.9301 42.5802 84.7745C43.0083 84.6382 43.3776 84.7745 43.5138 85.2018L43.5332 85.2606C43.6694 85.7073 43.5332 86.0379 43.047 86.1935C42.5996 86.3297 41.8417 86.4466 41.1999 86.466C41.6861 86.8352 42.2884 87.3795 42.5802 87.7688C42.8326 88.1187 42.7946 88.5267 42.4633 88.7798L42.3852 88.8379C42.0166 89.1104 41.6466 89.0322 41.3555 88.6436C41.083 88.255 40.7525 87.6132 40.5001 86.9521C40.2276 87.6132 39.8971 88.255 39.6246 88.6436C39.3335 89.0322 38.9635 89.1104 38.5942 88.8379L38.5161 88.7798C38.1661 88.5267 38.1468 88.1187 38.3999 87.7688C38.6917 87.3795 39.294 86.8352 39.7802 86.4466C39.1578 86.4466 38.3805 86.3297 37.9331 86.1935Z" fill="#0A1045"/>
<path d="M45.2041 86.1935C44.7179 86.0379 44.5623 85.6686 44.6986 85.28L44.738 85.1825C44.8929 84.7745 45.2235 84.6382 45.6702 84.7745C46.0982 84.9301 46.7988 85.28 47.3237 85.6493C47.1487 85.0462 47.0125 84.2295 47.0125 83.7434C47.0125 83.2967 47.2649 82.9855 47.7123 82.9855H47.8098C48.2572 82.9855 48.5096 83.2967 48.5096 83.7434C48.5096 84.2295 48.3734 85.0462 48.1984 85.6493C48.7434 85.28 49.4239 84.9301 49.8512 84.7745C50.2793 84.6382 50.6486 84.7745 50.7848 85.2018L50.8042 85.2606C50.9404 85.7073 50.8042 86.0379 50.318 86.1935C49.8713 86.3297 49.1119 86.4466 48.4709 86.466C48.9564 86.8352 49.5594 87.3795 49.8512 87.7688C50.1043 88.1187 50.0649 88.5267 49.7343 88.7798L49.6569 88.8379C49.2869 89.1104 48.9183 89.0322 48.6258 88.6436C48.3548 88.255 48.0242 87.6132 47.7704 86.9521C47.4986 87.6132 47.1681 88.255 46.8956 88.6436C46.6038 89.0322 46.2345 89.1104 45.8652 88.8379L45.787 88.7798C45.4371 88.5267 45.4185 88.1187 45.6702 87.7688C45.9627 87.3795 46.565 86.8352 47.0512 86.4466C46.4288 86.4466 45.6515 86.3297 45.2041 86.1935Z" fill="#0A1045"/>
<path d="M52.4754 86.1935C51.9892 86.0379 51.8329 85.6686 51.9699 85.28L52.0086 85.1825C52.1642 84.7745 52.494 84.6382 52.9415 84.7745C53.3695 84.9301 54.0701 85.28 54.5942 85.6493C54.42 85.0462 54.283 84.2295 54.283 83.7434C54.283 83.2967 54.5362 82.9855 54.9836 82.9855H55.0811C55.5285 82.9855 55.7802 83.2967 55.7802 83.7434C55.7802 84.2295 55.6447 85.0462 55.4697 85.6493C56.0147 85.28 56.6951 84.9301 57.1225 84.7745C57.5499 84.6382 57.9198 84.7745 58.0554 85.2018L58.0754 85.2606C58.2117 85.7073 58.0754 86.0379 57.5893 86.1935C57.1419 86.3297 56.3832 86.4466 55.7422 86.466C56.2276 86.8352 56.8307 87.3795 57.1225 87.7688C57.3749 88.1187 57.3362 88.5267 57.0056 88.7798L56.9282 88.8379C56.5582 89.1104 56.1896 89.0322 55.8971 88.6436C55.6253 88.255 55.2948 87.6132 55.0417 86.9521C54.7692 87.6132 54.4386 88.255 54.1669 88.6436C53.875 89.0322 53.5058 89.1104 53.1365 88.8379L53.0583 88.7798C52.7084 88.5267 52.6891 88.1187 52.9415 87.7688C53.234 87.3795 53.8363 86.8352 54.3225 86.4466C53.7001 86.4466 52.9221 86.3297 52.4754 86.1935Z" fill="#0A1045"/>
<path d="M59.7466 86.1935C59.2605 86.0379 59.1042 85.6686 59.2411 85.28L59.2798 85.1825C59.4354 84.7745 59.7653 84.6382 60.2127 84.7745C60.6408 84.9301 61.3413 85.28 61.8662 85.6493C61.6912 85.0462 61.5543 84.2295 61.5543 83.7434C61.5543 83.2967 61.8074 82.9855 62.2548 82.9855H62.3523C62.7991 82.9855 63.0522 83.2967 63.0522 83.7434C63.0522 84.2295 62.9159 85.0462 62.741 85.6493C63.2859 85.28 63.9664 84.9301 64.393 84.7745C64.8218 84.6382 65.1911 84.7745 65.3273 85.2018L65.3467 85.2606C65.4822 85.7073 65.3467 86.0379 64.8605 86.1935C64.4131 86.3297 63.6545 86.4466 63.0134 86.466C63.4989 86.8352 64.1019 87.3795 64.393 87.7688C64.6469 88.1187 64.6074 88.5267 64.2769 88.7798L64.1994 88.8379C63.8294 89.1104 63.4609 89.0322 63.1683 88.6436C62.8966 88.255 62.566 87.6132 62.3136 86.9521C62.0404 87.6132 61.7099 88.255 61.4381 88.6436C61.1463 89.0322 60.777 89.1104 60.4077 88.8379L60.3296 88.7798C59.9797 88.5267 59.9603 88.1187 60.2127 87.7688C60.5045 87.3795 61.1076 86.8352 61.5937 86.4466C60.9713 86.4466 60.1941 86.3297 59.7466 86.1935Z" fill="#0A1045"/>
<path d="M67.0177 86.1935C66.5308 86.0379 66.3759 85.6686 66.5121 85.28L66.5509 85.1825C66.7057 84.7745 67.0363 84.6382 67.4837 84.7745C67.9118 84.9301 68.6124 85.28 69.1372 85.6493C68.9623 85.0462 68.8253 84.2295 68.8253 83.7434C68.8253 83.2967 69.0784 82.9855 69.5259 82.9855H69.6234C70.0701 82.9855 70.3232 83.2967 70.3232 83.7434C70.3232 84.2295 70.187 85.0462 70.012 85.6493C70.557 85.28 71.2374 84.9301 71.6641 84.7745C72.0928 84.6382 72.4621 84.7745 72.5984 85.2018L72.6177 85.2606C72.7532 85.7073 72.6177 86.0379 72.1316 86.1935C71.6841 86.3297 70.9255 86.4466 70.2845 86.466C70.7699 86.8352 71.3729 87.3795 71.6641 87.7688C71.9179 88.1187 71.8785 88.5267 71.5479 88.7798L71.4705 88.8379C71.1005 89.1104 70.7319 89.0322 70.4394 88.6436C70.1676 88.255 69.8371 87.6132 69.5847 86.9521C69.3115 87.6132 68.9809 88.255 68.7092 88.6436C68.4173 89.0322 68.048 89.1104 67.6788 88.8379L67.6006 88.7798C67.2507 88.5267 67.2313 88.1187 67.4837 87.7688C67.7756 87.3795 68.3786 86.8352 68.8647 86.4466C68.2424 86.4466 67.4651 86.3297 67.0177 86.1935Z" fill="#0A1045"/>
<path d="M74.2889 86.1935C73.802 86.0379 73.6472 85.6686 73.7834 85.28L73.8228 85.1825C73.977 84.7745 74.3075 84.6382 74.755 84.7745C75.183 84.9301 75.8836 85.28 76.4085 85.6493C76.2335 85.0462 76.0966 84.2295 76.0966 83.7434C76.0966 83.2967 76.3497 82.9855 76.7971 82.9855H76.8946C77.3413 82.9855 77.5944 83.2967 77.5944 83.7434C77.5944 84.2295 77.4582 85.0462 77.2832 85.6493C77.8282 85.28 78.5087 84.9301 78.9353 84.7745C79.3641 84.6382 79.7334 84.7745 79.8696 85.2018L79.889 85.2606C80.0245 85.7073 79.889 86.0379 79.4028 86.1935C78.9554 86.3297 78.1968 86.4466 77.5557 86.466C78.0412 86.8352 78.6442 87.3795 78.9353 87.7688C79.1891 88.1187 79.1497 88.5267 78.8191 88.7798L78.7417 88.8379C78.3717 89.1104 78.0032 89.0322 77.7106 88.6436C77.4388 88.255 77.1083 87.6132 76.8559 86.9521C76.5827 87.6132 76.2521 88.255 75.9804 88.6436C75.6886 89.0322 75.3193 89.1104 74.95 88.8379L74.8719 88.7798C74.5219 88.5267 74.5026 88.1187 74.755 87.7688C75.0475 87.3795 75.6498 86.8352 76.136 86.4466C75.5136 86.4466 74.7363 86.3297 74.2889 86.1935Z" fill="#0A1045"/>
<path d="M81.5596 86.1935C81.0734 86.0379 80.9178 85.6686 81.0541 85.28L81.0935 85.1825C81.2484 84.7745 81.5789 84.6382 82.0264 84.7745C82.4537 84.9301 83.1543 85.28 83.6791 85.6493C83.5042 85.0462 83.3672 84.2295 83.3672 83.7434C83.3672 83.2967 83.621 82.9855 84.0678 82.9855H84.1653C84.6127 82.9855 84.8651 83.2967 84.8651 83.7434C84.8651 84.2295 84.7289 85.0462 84.5539 85.6493C85.0989 85.28 85.7793 84.9301 86.2067 84.7745C86.6348 84.6382 87.004 84.7745 87.1403 85.2018L87.1603 85.2606C87.2959 85.7073 87.1603 86.0379 86.6735 86.1935C86.226 86.3297 85.4674 86.4466 84.8264 86.466C85.3118 86.8352 85.9156 87.3795 86.2067 87.7688C86.4598 88.1187 86.4204 88.5267 86.0898 88.7798L86.0124 88.8379C85.6424 89.1104 85.2738 89.0322 84.9813 88.6436C84.7102 88.255 84.3797 87.6132 84.1266 86.9521C83.8541 87.6132 83.5235 88.255 83.2511 88.6436C82.9592 89.0322 82.5899 89.1104 82.2207 88.8379L82.1425 88.7798C81.7926 88.5267 81.7732 88.1187 82.0264 87.7688C82.3182 87.3795 82.9205 86.8352 83.4067 86.4466C82.785 86.4466 82.007 86.3297 81.5596 86.1935Z" fill="#0A1045"/>
</svg>
