<svg width="166" height="164" viewBox="0 0 166 164" fill="none" xmlns="http://www.w3.org/2000/svg">
<g opacity="0.699997">
<g opacity="0.699997">
<path opacity="0.699997" d="M17.5854 51.1719C17.5854 51.1719 7.35514 77.5895 21.7311 104.201C36.1067 130.813 65.724 144.863 89.4271 156.88C113.13 168.898 137.744 163.045 149.44 143.362C161.137 123.678 145.094 109.626 145.074 81.5558C145.056 53.4857 149.275 46.054 134.079 22.3389C118.882 -1.37596 81.5793 -6.62483 53.3807 10.964C25.1814 28.5529 17.5854 51.1719 17.5854 51.1719Z" fill="white"/>
</g>
</g>
<path d="M41.1132 146.765C49.7739 155.908 71.0365 152.559 80.2462 146.765C110.14 127.955 162.539 96.6472 164.911 51.2888C165.919 32.0096 148.919 21.8862 141.816 18.9162C124.758 11.784 106.044 9.64307 87.574 8.817C68.2813 7.95424 47.5867 8.62617 30.211 18.0391C23.6297 21.6043 17.4208 26.1765 13.1704 32.4188C8.85296 38.7594 6.36889 46.31 5.7098 53.9321C4.6474 66.2262 7.95497 78.553 12.9561 89.8342C17.9577 101.115 24.6278 111.56 30.7498 122.275C34.7439 129.265 33.8166 139.062 41.1132 146.765Z" fill="#FFF4D6"/>
<g opacity="0.699997">
<g opacity="0.699997">
<path opacity="0.699997" d="M41.1132 146.765C49.7739 155.908 71.0365 152.559 80.2462 146.765C110.14 127.955 162.539 96.6472 164.911 51.2888C165.919 32.0096 148.919 21.8862 141.816 18.9162C124.758 11.784 106.044 9.64307 87.574 8.817C68.2813 7.95424 47.5867 8.62617 30.211 18.0391C23.6297 21.6043 17.4208 26.1765 13.1704 32.4188C8.85296 38.7594 6.36889 46.31 5.7098 53.9321C4.6474 66.2262 7.95497 78.553 12.9561 89.8342C17.9577 101.115 24.6278 111.56 30.7498 122.275C34.7439 129.265 33.8166 139.062 41.1132 146.765Z" fill="white"/>
</g>
</g>
<path d="M40.4479 54.1065L22.9064 48.7908C22.2256 48.5846 21.8407 47.8653 22.0473 47.1846L25.1768 36.856C25.3835 36.1752 26.1027 35.7903 26.7835 35.9965L44.325 41.3122C45.0057 41.5184 45.3907 42.2377 45.1841 42.9188L42.0541 53.2474C41.8479 53.9281 41.1286 54.3127 40.4479 54.1065Z" stroke="#0A1045" stroke-width="0.5" stroke-miterlimit="10"/>
<path d="M24.6475 38.6032L44.6547 44.666" stroke="#0A1045" stroke-width="0.5" stroke-miterlimit="10"/>
<path d="M24.0388 40.6126L44.0461 46.6754" stroke="#0A1045" stroke-width="0.5" stroke-miterlimit="10"/>
<path d="M37.9601 50.4292C37.8526 50.7841 37.9033 51.1482 38.0728 51.4491C37.7877 51.5926 37.4427 51.63 37.1091 51.5287C36.421 51.3203 36.0306 50.5962 36.2394 49.9078C36.4478 49.2193 37.1755 48.8303 37.8636 49.0388C38.1972 49.1401 38.4625 49.3661 38.62 49.6435C38.3121 49.7995 38.0677 50.0744 37.9601 50.4292Z" stroke="#0A1045" stroke-width="0.5" stroke-miterlimit="10"/>
<path d="M40.4516 51.1828C40.2431 51.8708 39.5165 52.2595 38.8284 52.051C38.1407 51.8426 37.7521 51.116 37.9602 50.4279C38.1686 49.7398 38.8956 49.3512 39.5833 49.56C40.2714 49.7684 40.66 50.4947 40.4516 51.1828Z" stroke="#0A1045" stroke-width="0.5" stroke-miterlimit="10"/>
<path d="M160.788 77.3426L146.238 72.9338C145.557 72.7272 145.172 72.0079 145.379 71.3271L147.929 62.9116C148.135 62.2309 148.854 61.8459 149.535 62.0525L164.085 66.4614C164.766 66.6676 165.151 67.3869 164.944 68.068L162.394 76.4835C162.188 77.1643 161.469 77.5489 160.788 77.3426Z" stroke="#0A1045" stroke-width="0.5" stroke-miterlimit="10"/>
<path d="M147.534 64.2132L164.55 69.3693" stroke="#0A1045" stroke-width="0.5" stroke-miterlimit="10"/>
<path d="M147.016 65.9222L164.032 71.0782" stroke="#0A1045" stroke-width="0.5" stroke-miterlimit="10"/>
<path d="M158.857 74.2709C158.765 74.5726 158.808 74.8827 158.953 75.1381C158.71 75.2603 158.417 75.2922 158.133 75.206C157.548 75.0287 157.215 74.4129 157.393 73.8276C157.57 73.2419 158.189 72.9109 158.774 73.0885C159.058 73.1744 159.284 73.3667 159.418 73.603C159.156 73.7355 158.948 73.9693 158.857 74.2709Z" stroke="#0A1045" stroke-width="0.5" stroke-miterlimit="10"/>
<path d="M160.975 74.9119C160.798 75.4969 160.18 75.8275 159.595 75.6503C159.01 75.473 158.679 74.855 158.857 74.2697C159.034 73.6848 159.652 73.3541 160.237 73.5317C160.822 73.709 161.152 74.327 160.975 74.9119Z" stroke="#0A1045" stroke-width="0.5" stroke-miterlimit="10"/>
<path d="M145.856 37.311L124.613 47.0374L119.554 35.988L140.796 26.2613L145.856 37.311Z" stroke="#0A1045" stroke-width="0.5" stroke-miterlimit="10"/>
<path d="M144.03 35.7104L140.815 28.6901C140.189 28.9763 139.45 28.7015 139.163 28.0758L121.994 35.9375C122.281 36.5628 122.005 37.3023 121.38 37.5889L124.595 44.6092C125.22 44.3226 125.96 44.5978 126.246 45.2231L143.415 37.3618C143.129 36.7361 143.404 35.9966 144.03 35.7104Z" stroke="#0A1045" stroke-width="0.5" stroke-miterlimit="10"/>
<path d="M135.609 35.3199C136.343 36.9236 135.638 38.819 134.035 39.5533C132.431 40.288 130.536 39.5831 129.801 37.9794C129.067 36.3753 129.772 34.4799 131.376 33.7456C132.979 33.0112 134.875 33.7158 135.609 35.3199Z" stroke="#0A1045" stroke-width="0.5" stroke-miterlimit="10"/>
<path d="M133.906 37.0266C133.743 36.6685 133.355 36.6975 132.921 36.7808L133.441 37.9147C133.923 37.6501 134.039 37.3173 133.906 37.0266ZM132.522 36.5081L132.003 35.3741C131.555 35.6288 131.456 35.9646 131.587 36.2508C131.744 36.5954 132.107 36.5833 132.522 36.5081ZM133.572 38.2006L133.811 38.7224L133.584 38.8263L133.347 38.3092C132.892 38.4901 132.4 38.5177 132.074 38.3929L132.087 38.074C132.389 38.1826 132.823 38.1705 133.214 38.0189L132.668 36.8255C132.113 36.9316 131.534 37.0101 131.26 36.4112C131.06 35.976 131.201 35.456 131.87 35.0839L131.631 34.562L131.858 34.4582L132.095 34.9752C132.441 34.8332 132.827 34.7771 133.144 34.835L133.154 35.1543C132.825 35.1077 132.495 35.1543 132.226 35.2611L132.776 36.4633C133.345 36.351 133.951 36.249 134.23 36.8571C134.431 37.2971 134.274 37.8296 133.572 38.2006Z" fill="#0A1045"/>
<path d="M23.8503 84.8676L7.57746 86.2742L6.8457 77.8099L23.1186 76.4033L23.8503 84.8676Z" stroke="#0A1045" stroke-width="0.5" stroke-miterlimit="10"/>
<path d="M23.0245 83.3843L22.5595 78.0063C22.0803 78.0477 21.6582 77.6929 21.6168 77.2136L8.4643 78.3505C8.50577 78.8298 8.1509 79.2518 7.67163 79.2933L8.13659 84.6713C8.61586 84.6298 9.03789 84.9847 9.07936 85.464L22.2318 84.3267C22.1904 83.8478 22.5452 83.4254 23.0245 83.3843Z" stroke="#0A1045" stroke-width="0.5" stroke-miterlimit="10"/>
<path d="M17.5727 81.1464C17.6787 82.375 16.769 83.4569 15.5404 83.5629C14.3117 83.6694 13.2299 82.7596 13.1234 81.531C13.017 80.3024 13.9271 79.2201 15.1558 79.1141C16.3844 79.008 17.4663 79.9178 17.5727 81.1464Z" stroke="#0A1045" stroke-width="0.5" stroke-miterlimit="10"/>
<path d="M16.0503 81.8696C16.0268 81.5951 15.7648 81.5232 15.4598 81.4762L15.535 82.3449C15.9145 82.284 16.0694 82.092 16.0503 81.8696ZM15.2613 81.2028L15.1861 80.3338C14.8308 80.3962 14.6866 80.594 14.7057 80.8131C14.7284 81.0773 14.9699 81.1544 15.2613 81.2028ZM15.5538 82.5636L15.5883 82.9636L15.4147 82.9783L15.3802 82.5823C15.0382 82.5944 14.7079 82.4968 14.5222 82.3379L14.6059 82.1309C14.7794 82.2737 15.0675 82.368 15.3611 82.3599L15.2822 81.4461C14.8917 81.3852 14.4921 81.3008 14.4525 80.8421C14.4238 80.5085 14.6385 80.1992 15.1666 80.1114L15.1321 79.7118L15.3061 79.6971L15.3402 80.0931C15.6015 80.081 15.869 80.1349 16.0642 80.2476L15.9952 80.4601C15.7897 80.3518 15.5615 80.3048 15.3593 80.3118L15.4385 81.2329C15.8396 81.2927 16.2628 81.3683 16.3028 81.8337C16.3321 82.1709 16.1035 82.4847 15.5538 82.5636Z" fill="#0A1045"/>
<path d="M158.909 28.0254C158.909 29.7894 157.48 31.2195 155.716 31.2195C153.951 31.2195 152.522 29.7894 152.522 28.0254C152.522 26.2613 153.951 24.8316 155.716 24.8316C157.48 24.8316 158.909 26.2613 158.909 28.0254Z" stroke="#0A1045" stroke-width="0.5" stroke-miterlimit="10"/>
<path d="M156.651 28.8686C156.651 28.4745 156.287 28.3398 155.858 28.2349V29.4822C156.406 29.4422 156.651 29.1879 156.651 28.8686ZM155.608 27.8209V26.5736C155.094 26.6187 154.864 26.8829 154.864 27.1974C154.864 27.5765 155.199 27.716 155.608 27.8209ZM155.858 29.7967V30.3703H155.608V29.8015C155.119 29.7769 154.66 29.5971 154.415 29.3475L154.56 29.0631C154.79 29.2877 155.189 29.4573 155.608 29.4822V28.1703C155.059 28.0352 154.5 27.866 154.5 27.2073C154.5 26.728 154.845 26.3141 155.608 26.2543V25.6803H155.858V26.2491C156.231 26.2642 156.606 26.3739 156.87 26.5589L156.746 26.8528C156.466 26.6734 156.147 26.5787 155.858 26.5636V27.8859C156.421 28.0205 157.015 28.1802 157.015 28.8488C157.015 29.3329 156.651 29.7519 155.858 29.7967Z" fill="#0A1045"/>
<path d="M136.679 69.2978C135.755 70.8005 133.788 71.2699 132.285 70.3462C130.783 69.4225 130.313 67.4555 131.236 65.9528C132.16 64.45 134.128 63.9806 135.63 64.9043C137.133 65.828 137.602 67.795 136.679 69.2978Z" stroke="#0A1045" stroke-width="0.5" stroke-miterlimit="10"/>
<path d="M134.313 68.8333C134.519 68.4975 134.28 68.1922 133.969 67.878L133.316 68.9408C133.804 69.194 134.146 69.1052 134.313 68.8333ZM133.973 67.3947L134.626 66.3323C134.165 66.1015 133.831 66.2061 133.666 66.4743C133.468 66.7973 133.68 67.0912 133.973 67.3947ZM133.151 69.2087L132.851 69.6975L132.638 69.5669L132.936 69.0825C132.532 68.805 132.236 68.4116 132.158 68.0707L132.43 67.9045C132.508 68.2157 132.759 68.5694 133.103 68.8105L133.79 67.6923C133.393 67.2901 133.006 66.8531 133.351 66.292C133.602 65.8839 134.112 65.7114 134.794 66.06L135.094 65.5712L135.307 65.7019L135.009 66.1866C135.32 66.3951 135.581 66.6846 135.71 66.9804L135.45 67.1657C135.305 66.8666 135.083 66.6186 134.844 66.4542L134.152 67.5808C134.562 67.9907 134.984 68.4377 134.634 69.0072C134.38 69.4197 133.85 69.5856 133.151 69.2087Z" fill="#0A1045"/>
<path d="M88.1372 5.99739C88.8701 7.60181 88.1636 9.49689 86.5596 10.2297C84.9552 10.963 83.0604 10.2565 82.3269 8.6521C81.594 7.04768 82.3004 5.15297 83.9049 4.41975C85.5093 3.68653 87.404 4.39296 88.1372 5.99739Z" stroke="#0A1045" stroke-width="0.5" stroke-miterlimit="10"/>
<path d="M86.4333 7.70291C86.2696 7.34437 85.8824 7.37336 85.4487 7.4563L85.9668 8.59063C86.4498 8.3264 86.5661 7.99355 86.4333 7.70291ZM85.0497 7.18327L84.5312 6.04857C84.0828 6.30326 83.9837 6.63904 84.1143 6.92528C84.2718 7.26987 84.634 7.25813 85.0497 7.18327ZM86.0978 8.8765L86.336 9.39834L86.1092 9.5022L85.8732 8.98476C85.4175 9.16531 84.9257 9.19284 84.5995 9.0677L84.613 8.74879C84.9147 8.85742 85.3485 8.84604 85.74 8.69448L85.1951 7.50107C84.6395 7.60639 84.0611 7.68456 83.7873 7.08528C83.5881 6.64968 83.7294 6.13004 84.3987 5.75829L84.1602 5.23645L84.387 5.13296L84.6233 5.65004C84.9701 5.50838 85.3558 5.4526 85.6732 5.51058L85.682 5.82985C85.3532 5.78288 85.0233 5.82949 84.754 5.93591L85.3037 7.1385C85.8725 7.02693 86.4788 6.92528 86.7566 7.53336C86.958 7.97374 86.8006 8.50622 86.0978 8.8765Z" fill="#0A1045"/>
<path d="M77.3835 135.299C78.4844 137.708 77.4235 140.553 75.0142 141.654C72.605 142.755 69.7595 141.695 68.6589 139.286C67.558 136.876 68.6186 134.031 71.0278 132.93C73.437 131.829 76.2825 132.89 77.3835 135.299Z" stroke="#0A1045" stroke-width="0.5" stroke-miterlimit="10"/>
<path d="M74.8246 137.86C74.5788 137.322 73.9975 137.365 73.3461 137.49L74.1244 139.193C74.8488 138.797 75.0239 138.296 74.8246 137.86ZM72.7468 137.08L71.9684 135.376C71.2947 135.758 71.146 136.263 71.342 136.692C71.5787 137.21 72.1226 137.192 72.7468 137.08ZM74.3204 139.623L74.6786 140.406L74.338 140.562L73.9831 139.785C73.2995 140.056 72.5607 140.097 72.0708 139.909L72.091 139.43C72.5442 139.594 73.1956 139.577 73.7839 139.349L72.9648 137.557C72.131 137.715 71.262 137.832 70.851 136.933C70.5519 136.278 70.764 135.498 71.7692 134.94L71.411 134.156L71.7516 134.001L72.1068 134.778C72.6272 134.565 73.2066 134.481 73.6833 134.568L73.6965 135.048C73.2026 134.977 72.7072 135.047 72.3028 135.207L73.1281 137.013C73.982 136.845 74.8929 136.692 75.3101 137.606C75.6122 138.266 75.3758 139.066 74.3204 139.623Z" fill="#0A1045"/>
<path d="M8.67647 60.7648C6.68672 62.5131 3.65622 62.3171 1.90794 60.3274C0.159658 58.3372 0.355623 55.3067 2.34537 53.5585C4.33513 51.8102 7.36563 52.0061 9.11391 53.9963C10.8626 55.986 10.6666 59.0165 8.67647 60.7648Z" stroke="#0A1045" stroke-width="0.5" stroke-miterlimit="10"/>
<path d="M5.48661 59.0525C5.93102 58.662 5.72221 58.1178 5.41542 57.5299L4.00806 58.7663C4.59706 59.3453 5.12624 59.3692 5.48661 59.0525ZM5.63524 56.8382L7.04223 55.6018C6.48222 55.0668 5.95635 55.0693 5.60148 55.3813C5.17395 55.757 5.3479 56.2726 5.63524 56.8382ZM3.65356 59.0774L3.00621 59.6463L2.75924 59.3652L3.40072 58.8011C2.94383 58.2246 2.69208 57.5292 2.73098 57.0059L3.19521 56.8873C3.16915 57.3684 3.37356 57.9872 3.76109 58.4848L5.24147 57.1842C4.84917 56.4312 4.4866 55.633 5.22973 54.9801C5.76992 54.5053 6.57837 54.4836 7.4026 55.2855L8.04995 54.7167L8.29693 54.9981L7.65545 55.5618C8.00922 55.9989 8.25619 56.5295 8.31014 57.011L7.85472 57.1618C7.78022 56.6686 7.57068 56.2147 7.30095 55.8734L5.80919 57.1838C6.2158 57.9534 6.62461 58.7813 5.87011 59.4441C5.32441 59.9237 4.49027 59.9281 3.65356 59.0774Z" fill="#0A1045"/>
<path d="M29.8717 99.6284C30.6904 100.612 30.5575 102.072 29.5744 102.89C28.592 103.709 27.1314 103.576 26.3127 102.593C25.494 101.61 25.6272 100.15 26.6096 99.3315C27.5927 98.5128 29.0529 98.6456 29.8717 99.6284Z" stroke="#0A1045" stroke-width="0.5" stroke-miterlimit="10"/>
<path d="M29.0047 101.147C28.8216 100.927 28.5562 101.021 28.2685 101.162L28.8476 101.857C29.1346 101.58 29.153 101.325 29.0047 101.147ZM27.9375 101.047L27.3584 100.352C27.0931 100.616 27.0876 100.869 27.2337 101.045C27.4098 101.256 27.6608 101.178 27.9375 101.047ZM28.9937 102.032L29.2597 102.351L29.1207 102.467L28.8568 102.15C28.5728 102.363 28.2337 102.476 27.9816 102.451L27.9302 102.225C28.1625 102.244 28.4634 102.153 28.7085 101.973L28.0997 101.242C27.7313 101.421 27.3412 101.586 27.0355 101.219C26.8131 100.952 26.8127 100.562 27.2102 100.174L26.9441 99.8544L27.0832 99.7384L27.3471 100.055C27.5625 99.89 27.8216 99.7777 28.055 99.7579L28.1221 99.9795C27.8828 100.009 27.6608 100.105 27.4927 100.231L28.1067 100.967C28.4832 100.781 28.8884 100.594 29.1985 100.966C29.423 101.236 29.4146 101.639 28.9937 102.032Z" fill="#0A1045"/>
<path d="M101.863 147.35C102.682 148.333 102.549 149.794 101.566 150.612C100.583 151.431 99.1227 151.298 98.3043 150.315C97.4852 149.332 97.6188 147.872 98.6012 147.053C99.584 146.235 101.045 146.367 101.863 147.35Z" stroke="#0A1045" stroke-width="0.5" stroke-miterlimit="10"/>
<path d="M100.996 148.868C100.813 148.649 100.547 148.743 100.26 148.884L100.839 149.579C101.126 149.302 101.144 149.046 100.996 148.868ZM99.9291 148.769L99.35 148.074C99.0847 148.337 99.0792 148.591 99.2253 148.766C99.4011 148.978 99.6524 148.9 99.9291 148.769ZM100.985 149.753L101.251 150.073L101.112 150.189L100.848 149.872C100.564 150.085 100.225 150.198 99.9732 150.173L99.9218 149.947C100.154 149.965 100.455 149.875 100.7 149.694L100.091 148.963C99.7225 149.143 99.3328 149.307 99.0271 148.941C98.8043 148.674 98.8043 148.283 99.2018 147.896L98.9357 147.576L99.0744 147.46L99.3383 147.777C99.5537 147.612 99.8132 147.499 100.046 147.48L100.113 147.701C99.8741 147.731 99.6524 147.826 99.4844 147.952L100.098 148.689C100.474 148.502 100.88 148.316 101.19 148.688C101.415 148.958 101.406 149.36 100.985 149.753Z" fill="#0A1045"/>
<path d="M37.9625 13.7338C38.7812 14.7166 38.6484 16.1768 37.6652 16.9955C36.6828 17.8142 35.2223 17.6814 34.4035 16.6986C33.5848 15.7159 33.718 14.2557 34.7004 13.4366C35.6835 12.6178 37.1437 12.7511 37.9625 13.7338Z" stroke="#0A1045" stroke-width="0.5" stroke-miterlimit="10"/>
<path d="M37.0955 15.2519C36.9124 15.0325 36.647 15.1264 36.3597 15.267L36.9384 15.962C37.2254 15.685 37.2437 15.4299 37.0955 15.2519ZM36.0283 15.1521L35.4496 14.4571C35.1839 14.7206 35.1788 14.9745 35.3245 15.1499C35.5006 15.3609 35.7516 15.2835 36.0283 15.1521ZM37.0845 16.1371L37.3505 16.4567L37.2115 16.5723L36.9476 16.2556C36.6636 16.4688 36.3245 16.5815 36.0724 16.5562L36.021 16.3305C36.2533 16.3492 36.5542 16.2586 36.7993 16.0776L36.1905 15.3466C35.8221 15.5264 35.432 15.6912 35.1263 15.3242C34.9039 15.0574 34.9035 14.667 35.3013 14.2795L35.0349 13.9598L35.174 13.8438L35.4378 14.1606C35.6533 13.9954 35.9127 13.8827 36.1457 13.8629L36.2129 14.085C35.9736 14.1143 35.7516 14.2101 35.5835 14.3356L36.1975 15.0725C36.574 14.8857 36.9792 14.6993 37.2893 15.0718C37.5138 15.3415 37.5054 15.7441 37.0845 16.1371Z" fill="#0A1045"/>
<g opacity="0.199997">
<g opacity="0.199997">
<g opacity="0.199997">
<g opacity="0.699997">
<g opacity="0.699997">
<path opacity="0.699997" d="M88.3669 110.153C88.3669 110.153 85.5389 124.516 68.1846 127.754C68.1846 127.754 63.6524 131.368 62.1438 133.509C60.6355 135.65 52.5895 139.286 44.4177 150.631C36.2458 161.976 24.0508 125.945 24.0508 125.945L50.9789 90.9705L88.3669 110.153Z" fill="#0A1045"/>
</g>
</g>
</g>
</g>
</g>
<path d="M103.792 42.7275C103.792 42.7275 113.15 38.1535 115.209 38.9428C117.268 39.7326 119.233 44.4647 111.372 48.9973C103.511 53.5302 105.851 61.974 105.851 61.974H111.466C111.466 61.974 114.835 63.3468 116.145 65.1094C117.455 66.872 118.391 72.8948 119.14 74.9371C119.888 76.9793 119.514 79.0197 117.455 79.6839C117.455 79.6839 116.145 85.3948 116.52 87.9251C116.894 90.4554 116.707 92.0881 114.274 92.3946C111.841 92.7013 109.407 90.6356 109.594 87.9251L107.723 94.7065L109.033 97.3132C109.033 97.3132 111.466 98.1293 114.086 100.375C116.707 102.621 119.327 103.234 118.578 105.735C117.83 108.237 116.332 110.935 108.471 107.808C100.61 104.68 94.0594 92.3946 94.0594 92.3946L89.3372 49.554L103.792 42.7275Z" fill="white"/>
<g opacity="0.399994">
<g opacity="0.399994">
<path opacity="0.399994" d="M113.642 67.3392C109.399 73.1235 114.093 79.7819 114.093 79.7819C114.093 79.7819 111.157 81.4197 111.074 85.5963C111.04 87.3306 111.477 89.7589 111.998 92.0041C110.54 91.2973 109.466 89.7589 109.596 87.9244L107.721 94.7061L109.032 97.3113C109.032 97.3113 110.774 97.8952 112.892 99.4332C111.727 102.105 111.374 105.408 111.477 108.813C110.597 108.586 109.599 108.259 108.472 107.809C100.609 104.68 94.061 92.3945 94.061 92.3945L89.3376 49.5529L103.791 42.7278C103.791 42.7278 108.905 40.2291 112.405 39.2419C112.135 42.5175 112.778 45.9033 113.235 47.7914C112.688 48.195 112.068 48.5987 111.374 48.9991C103.511 53.5291 105.85 61.9754 105.85 61.9754H111.467C111.467 61.9754 114.67 63.2793 116.041 64.981C115.267 65.4745 114.456 66.2283 113.642 67.3392Z" fill="#FFF4D6"/>
</g>
</g>
<path d="M89.1541 103.239C89.1541 103.239 78.9734 123.2 60.623 127.727C60.623 127.727 59.9225 131.676 56.8168 133.371C55.1591 134.275 48.4673 144.305 42.5898 153.459L10.0657 133.507C12.0705 131.526 14.352 129.244 16.687 126.863C23.4754 119.941 30.7177 112.165 32.9361 108.345C34.9174 104.933 37.4227 99.0088 39.6074 93.4414C42.403 86.3224 44.6779 79.781 44.6779 79.781L55.5261 67.7222L72.5817 48.7615L73.3194 51.1865L89.1541 103.239Z" fill="white"/>
<g opacity="0.399994">
<g opacity="0.399994">
<path opacity="0.399994" d="M72.5818 48.7622L89.1541 103.239C89.1541 103.239 78.9734 123.201 60.6231 127.727C60.6231 127.727 59.9225 131.677 56.8168 133.372C55.3291 134.182 49.7848 142.348 44.4177 150.631C46.4056 143.806 52.1668 132.924 52.1668 132.924C48.4706 128.548 49.5481 123.935 51.0259 125.249C52.4571 126.526 56.223 130.252 56.4597 130.486C54.8252 128.561 54.4483 125.549 54.4483 125.549C54.4483 125.549 59.0286 128.594 59.3988 123.701C59.7688 118.807 56.6535 106.895 56.6535 106.895L48.4908 75.5453L72.5818 48.7622Z" fill="#FFF4D6"/>
</g>
</g>
<path d="M89.3374 49.554L103.792 42.7275C103.792 42.7275 113.151 38.1535 115.209 38.9428C117.268 39.7326 119.234 44.4647 111.373 48.9973C103.512 53.5302 105.851 61.974 105.851 61.974H111.466C111.466 61.974 114.835 63.3468 116.145 65.1094C117.456 66.872 118.391 72.8948 119.14 74.9367C119.889 76.9793 119.514 79.0193 117.456 79.6839C117.456 79.6839 116.145 85.3948 116.519 87.9251C116.894 90.4554 116.707 92.0881 114.274 92.3946C111.84 92.7013 109.407 90.6356 109.594 87.9251L107.723 94.7065L109.033 97.3131C109.033 97.3131 111.466 98.1293 114.086 100.375C116.707 102.621 119.327 103.234 118.579 105.735C117.83 108.237 116.333 110.935 108.472 107.808C100.61 104.68 94.0593 92.3946 94.0593 92.3946" stroke="#0A1045" stroke-width="0.5" stroke-miterlimit="10" stroke-linecap="round" stroke-linejoin="round"/>
<path d="M117.456 79.684C114.648 80.4418 111.373 79.8804 110.156 74.9207C108.939 69.9602 111.373 64.6618 112.964 64.1583" stroke="#0A1045" stroke-width="0.5" stroke-miterlimit="10" stroke-linecap="round" stroke-linejoin="round"/>
<path d="M109.594 87.9252C109.594 87.9252 109.407 81.5373 111.747 79.96" stroke="#0A1045" stroke-width="0.5" stroke-miterlimit="10" stroke-linecap="round" stroke-linejoin="round"/>
<g opacity="0.399994">
<g opacity="0.399994">
<path opacity="0.399994" d="M41.3253 119.658C41.3253 119.658 34.4668 118.804 32.9358 115.735C31.6683 113.197 24.8061 122.693 16.6868 126.864C23.4751 119.941 30.7174 112.166 32.9358 108.346C34.9171 104.934 37.4225 99.0093 39.6071 93.4419V93.4485C39.4974 98.0655 37.0353 105.134 37.7392 108.813C37.7392 108.813 35.0973 109.467 35.6276 112.389C36.1546 115.308 41.3253 119.658 41.3253 119.658Z" fill="#FFF4D6"/>
</g>
</g>
<path d="M89.1532 103.239C89.1532 103.239 78.9736 123.201 60.6218 127.728C60.6218 127.728 59.9223 131.676 56.8173 133.371C55.1604 134.275 48.4686 144.304 42.5889 153.461" stroke="#0A1045" stroke-width="0.5" stroke-miterlimit="10" stroke-linecap="round" stroke-linejoin="round"/>
<path d="M10.0654 133.509C17.9022 125.762 29.9523 113.478 32.9347 108.346C37.4504 100.574 44.6787 79.7804 44.6787 79.7804L72.583 48.7628" stroke="#0A1045" stroke-width="0.5" stroke-miterlimit="10" stroke-linecap="round" stroke-linejoin="round"/>
<path d="M56.6545 72.4494C56.6545 72.4494 60.9397 76.2887 62.1442 79.7805" stroke="#0A1045" stroke-width="0.5" stroke-miterlimit="10" stroke-linecap="round" stroke-linejoin="round"/>
<path d="M107.249 119.658H61.1282C59.7645 119.658 58.6592 118.553 58.6592 117.189V19.0096C58.6592 17.646 59.7645 16.5406 61.1282 16.5406H107.249C108.612 16.5406 109.718 17.646 109.718 19.0096V117.189C109.718 118.553 108.612 119.658 107.249 119.658Z" fill="#0A1045"/>
<path d="M94.311 19.3478L93.3363 21.1379C93.1227 21.5302 92.7117 21.7742 92.2647 21.7742H76.1118C75.6649 21.7742 75.2538 21.5302 75.0403 21.1379L74.0656 19.3478C73.852 18.9555 73.441 18.7111 72.994 18.7111H61.7182C61.0445 18.7111 60.498 19.2571 60.498 19.9313V116.467C60.498 117.141 61.0445 117.687 61.7182 117.687H106.658C107.332 117.687 107.879 117.141 107.879 116.467V19.9313C107.879 19.2571 107.332 18.7111 106.658 18.7111H95.3825C94.9356 18.7111 94.5246 18.9555 94.311 19.3478Z" fill="#FFD870"/>
<path d="M94.311 19.3478L93.3363 21.1379C93.1227 21.5302 92.7117 21.7742 92.2647 21.7742H76.1118C75.6649 21.7742 75.2538 21.5302 75.0403 21.1379L74.0656 19.3478C73.852 18.9555 73.441 18.7111 72.994 18.7111H61.7182C61.0445 18.7111 60.498 19.2571 60.498 19.9313V116.467C60.498 117.141 61.0445 117.687 61.7182 117.687H106.658C107.332 117.687 107.879 117.141 107.879 116.467V19.9313C107.879 19.2571 107.332 18.7111 106.658 18.7111H95.3826C94.9356 18.7111 94.5246 18.9555 94.311 19.3478Z" stroke="#0A1045" stroke-width="0.5" stroke-miterlimit="10" stroke-linecap="round" stroke-linejoin="round"/>
<path d="M81.3466 19.5569C81.3466 19.9205 81.0516 20.2152 80.6883 20.2152C80.3242 20.2152 80.0295 19.9205 80.0295 19.5569C80.0295 19.1932 80.3242 18.8985 80.6883 18.8985C81.0516 18.8985 81.3466 19.1932 81.3466 19.5569Z" stroke="white" stroke-width="0.5" stroke-miterlimit="10"/>
<path d="M88.347 19.5568C88.347 19.7822 88.1647 19.9649 87.9393 19.9649C87.7136 19.9649 87.5312 19.7822 87.5312 19.5568C87.5312 19.3315 87.7136 19.1487 87.9393 19.1487C88.1647 19.1487 88.347 19.3315 88.347 19.5568Z" stroke="white" stroke-width="0.5" stroke-miterlimit="10"/>
<path d="M86.5166 19.301H82.5268C82.3855 19.301 82.271 19.4155 82.271 19.5568C82.271 19.6981 82.3855 19.8129 82.5268 19.8129H86.5166C86.6582 19.8129 86.7723 19.6981 86.7723 19.5568C86.7723 19.4155 86.6582 19.301 86.5166 19.301Z" fill="white"/>
<path d="M68.8533 22.9951H64.5505V21.166H68.8533V22.9951Z" stroke="#0A1045" stroke-width="0.5" stroke-miterlimit="10" stroke-linecap="round" stroke-linejoin="round"/>
<path d="M69.5214 22.6871H68.8535V21.4735H69.5214V22.6871Z" stroke="#0A1045" stroke-width="0.5" stroke-miterlimit="10" stroke-linecap="round" stroke-linejoin="round"/>
<path d="M99.3582 22.9951H98.5945V22.3319H99.3582V22.9951Z" stroke="#0A1045" stroke-width="0.5" stroke-miterlimit="10" stroke-linecap="round" stroke-linejoin="round"/>
<path d="M100.847 22.9951H100.084V21.6648H100.847V22.9951Z" stroke="#0A1045" stroke-width="0.5" stroke-miterlimit="10" stroke-linecap="round" stroke-linejoin="round"/>
<path d="M102.337 22.9951H101.573V20.9976H102.337V22.9951Z" stroke="#0A1045" stroke-width="0.5" stroke-miterlimit="10" stroke-linecap="round" stroke-linejoin="round"/>
<path d="M103.826 22.9951H103.063V20.3304H103.826V22.9951Z" stroke="#0A1045" stroke-width="0.5" stroke-miterlimit="10" stroke-linecap="round" stroke-linejoin="round"/>
<g opacity="0.5">
<path opacity="0.5" d="M107.572 84.6491H60.8047V40.0445H107.572V84.6491Z" fill="white"/>
</g>
<path d="M103.826 51.3162H64.5505V45.4471H103.826V51.3162Z" fill="white" stroke="#0A1045" stroke-width="0.5" stroke-miterlimit="10" stroke-linecap="round" stroke-linejoin="round"/>
<path d="M103.826 62.3248H64.5505V56.4557H103.826V62.3248Z" fill="white" stroke="#0A1045" stroke-width="0.5" stroke-miterlimit="10" stroke-linecap="round" stroke-linejoin="round"/>
<path d="M103.826 72.3319H64.5505V66.4628H103.826V72.3319Z" fill="white" stroke="#0A1045" stroke-width="0.5" stroke-miterlimit="10" stroke-linecap="round" stroke-linejoin="round"/>
<path d="M67.0337 68.2076H67.4304V70.5874H67.0337V68.2076ZM67.6287 68.2076H67.827V70.5874H67.6287V68.2076ZM68.0253 68.2076H68.6202V70.5874H68.0253V68.2076ZM68.8185 68.2076H69.0169V70.5874H68.8185V68.2076ZM69.4135 68.2076H69.8101V70.5874H69.4135V68.2076ZM70.0084 68.2076H70.2067V70.5874H70.0084V68.2076ZM66.6371 67.811V68.6042H66.2405V67.811C66.2405 67.7058 66.2823 67.6049 66.3566 67.5305C66.431 67.4562 66.5319 67.4144 66.6371 67.4144H67.4304V67.811H66.6371ZM70.6034 67.4144C70.7085 67.4144 70.8094 67.4562 70.8838 67.5305C70.9582 67.6049 71 67.7058 71 67.811V68.6042H70.6034V67.811H69.8101V67.4144H70.6034ZM66.6371 70.1907V70.984H67.4304V71.3806H66.6371C66.5319 71.3806 66.431 71.3388 66.3566 71.2644C66.2823 71.1901 66.2405 71.0892 66.2405 70.984V70.1907H66.6371ZM70.6034 70.984V70.1907H71V70.984C71 71.0892 70.9582 71.1901 70.8838 71.2644C70.8094 71.3388 70.7085 71.3806 70.6034 71.3806H69.8101V70.984H70.6034Z" fill="#0A1045"/>
<path d="M66.9987 44.4251V44.584H65.7708V42.8475H66.9612V43.006H65.9542V43.6237H66.8522V43.7804H65.9542V44.4251H66.9987Z" fill="#0A1045"/>
<path d="M69.5459 43.8274V44.5841H69.3697V43.8446C69.3697 43.5694 69.231 43.4281 68.9954 43.4281C68.7272 43.4281 68.5587 43.6017 68.5587 43.8993V44.5841H68.3826V43.8446C68.3826 43.5694 68.2435 43.4281 68.0053 43.4281C67.74 43.4281 67.5686 43.6017 67.5686 43.8993V44.5841H67.3928V43.2791H67.5613V43.5173C67.653 43.361 67.8218 43.2692 68.0402 43.2692C68.256 43.2692 68.4248 43.361 68.504 43.5445C68.5983 43.376 68.7844 43.2692 69.02 43.2692C69.3374 43.2692 69.5459 43.4527 69.5459 43.8274Z" fill="#0A1045"/>
<path d="M70.8321 44.192V43.9784H70.4226C70.1697 43.9784 70.0879 44.0779 70.0879 44.2118C70.0879 44.363 70.2094 44.4574 70.4178 44.4574C70.6163 44.4574 70.7628 44.363 70.8321 44.192ZM71.0083 43.7751V44.584H70.8395V44.3807C70.7602 44.5142 70.6064 44.5964 70.3903 44.5964C70.0952 44.5964 69.9143 44.4427 69.9143 44.2166C69.9143 44.0159 70.0431 43.8471 70.4178 43.8471H70.8321V43.7678C70.8321 43.5443 70.7055 43.4228 70.4626 43.4228C70.2938 43.4228 70.1349 43.4823 70.0284 43.5766L69.9488 43.4452C70.0805 43.3337 70.2739 43.2691 70.4798 43.2691C70.8171 43.2691 71.0083 43.4379 71.0083 43.7751Z" fill="#0A1045"/>
<path d="M71.4865 43.279H71.6623V44.584H71.4865V43.279ZM71.4465 42.8673C71.4465 42.8001 71.5034 42.7432 71.5757 42.7432C71.6476 42.7432 71.7045 42.7979 71.7045 42.8647C71.7045 42.937 71.6498 42.9939 71.5757 42.9939C71.5034 42.9939 71.4465 42.937 71.4465 42.8673Z" fill="#0A1045"/>
<path d="M72.1533 42.7432H72.3291V44.584H72.1533V42.7432Z" fill="#0A1045"/>
<path d="M68.2128 48.9303V49.0892H66.9849V47.3526H68.1753V47.5112H67.1684V48.1288H68.0663V48.2855H67.1684V48.9303H68.2128Z" fill="#0A1045"/>
<path d="M70.7597 48.3325V49.0892H70.5836V48.3498C70.5836 48.0745 70.4449 47.9333 70.2093 47.9333C69.941 47.9333 69.7726 48.1068 69.7726 48.4045V49.0892H69.5964V48.3498C69.5964 48.0745 69.4573 47.9333 69.2192 47.9333C68.9539 47.9333 68.7825 48.1068 68.7825 48.4045V49.0892H68.6067V47.7843H68.7751V48.0224C68.8669 47.8661 69.0357 47.7744 69.254 47.7744C69.4698 47.7744 69.6386 47.8661 69.7179 48.0496C69.8122 47.8811 69.9983 47.7744 70.2339 47.7744C70.5513 47.7744 70.7597 47.9578 70.7597 48.3325Z" fill="#0A1045"/>
<path d="M72.0462 48.6972V48.4836H71.6367C71.3838 48.4836 71.302 48.583 71.302 48.717C71.302 48.8682 71.4235 48.9625 71.6319 48.9625C71.8304 48.9625 71.9769 48.8682 72.0462 48.6972ZM72.222 48.2803V49.0891H72.0536V48.8858C71.9743 49.0194 71.8205 49.1016 71.6044 49.1016C71.3093 49.1016 71.1284 48.9478 71.1284 48.7217C71.1284 48.521 71.2572 48.3522 71.6319 48.3522H72.0462V48.2729C72.0462 48.0494 71.9196 47.928 71.6767 47.928C71.5079 47.928 71.3493 47.9874 71.2425 48.0817L71.1629 47.9504C71.2947 47.8388 71.4881 47.7742 71.6939 47.7742C72.0312 47.7742 72.222 47.943 72.222 48.2803Z" fill="#0A1045"/>
<path d="M72.7004 47.784H72.8762V49.089H72.7004V47.784ZM72.6604 47.3723C72.6604 47.3055 72.7176 47.2486 72.7896 47.2486C72.8615 47.2486 72.9184 47.3029 72.9184 47.3701C72.9184 47.442 72.8637 47.4989 72.7896 47.4989C72.7176 47.4989 72.6604 47.442 72.6604 47.3723Z" fill="#0A1045"/>
<path d="M73.3677 47.2486H73.5435V49.0894H73.3677V47.2486Z" fill="#0A1045"/>
<path d="M75.2351 48.3325V49.0892H75.0589V48.3498C75.0589 48.0745 74.915 47.9333 74.667 47.9333C74.3866 47.9333 74.2105 48.1068 74.2105 48.4045V49.0892H74.0347V47.7843H74.2031V48.025C74.2974 47.8661 74.4736 47.7744 74.6993 47.7744C75.0167 47.7744 75.2351 47.9578 75.2351 48.3325Z" fill="#0A1045"/>
<path d="M76.5221 48.6972V48.4836H76.1125C75.8597 48.4836 75.7778 48.583 75.7778 48.717C75.7778 48.8682 75.8993 48.9625 76.1077 48.9625C76.3063 48.9625 76.4527 48.8682 76.5221 48.6972ZM76.6978 48.2803V49.0891H76.5294V48.8858C76.4501 49.0194 76.2964 49.1016 76.0802 49.1016C75.7852 49.1016 75.6042 48.9478 75.6042 48.7217C75.6042 48.521 75.7331 48.3522 76.1077 48.3522H76.5221V48.2729C76.5221 48.0494 76.3955 47.928 76.1525 47.928C75.9837 47.928 75.8252 47.9874 75.7184 48.0817L75.6387 47.9504C75.7705 47.8388 75.9639 47.7742 76.1698 47.7742C76.507 47.7742 76.6978 47.943 76.6978 48.2803Z" fill="#0A1045"/>
<path d="M79.3291 48.3325V49.0892H79.1529V48.3498C79.1529 48.0745 79.0142 47.9333 78.7786 47.9333C78.5104 47.9333 78.3419 48.1068 78.3419 48.4045V49.0892H78.1658V48.3498C78.1658 48.0745 78.0267 47.9333 77.7885 47.9333C77.5232 47.9333 77.3518 48.1068 77.3518 48.4045V49.0892H77.176V47.7843H77.3445V48.0224C77.4362 47.8661 77.605 47.7744 77.8234 47.7744C78.0392 47.7744 78.208 47.8661 78.2872 48.0496C78.3815 47.8811 78.5676 47.7744 78.8032 47.7744C79.1206 47.7744 79.3291 47.9578 79.3291 48.3325Z" fill="#0A1045"/>
<path d="M79.8566 48.3597H80.7817C80.7593 48.1043 80.5736 47.9256 80.3179 47.9256C80.065 47.9256 79.879 48.1043 79.8566 48.3597ZM80.948 48.4911H79.8566C79.8764 48.7641 80.0848 48.945 80.37 48.945C80.5289 48.945 80.6702 48.8882 80.7692 48.774L80.8687 48.8882C80.752 49.0269 80.5711 49.1014 80.3652 49.1014C79.9582 49.1014 79.6804 48.8236 79.6804 48.4364C79.6804 48.0496 79.9509 47.7744 80.3179 47.7744C80.6852 47.7744 80.9505 48.0449 80.9505 48.4364C80.9505 48.4515 80.948 48.4713 80.948 48.4911Z" fill="#0A1045"/>
<path d="M82.8054 48.459C82.8054 48.1588 82.6021 47.9654 82.3342 47.9654C82.0586 47.9654 81.8604 48.161 81.8604 48.459C81.8604 48.7566 82.0586 48.9574 82.3342 48.9574C82.6021 48.9574 82.8054 48.7618 82.8054 48.459ZM83.5001 48.4315C83.5001 48.8535 83.3437 49.1012 83.0883 49.1012C82.9272 49.1012 82.8178 49.0021 82.8079 48.8311C82.7085 49.0021 82.5301 49.1012 82.3118 49.1012C81.9595 49.1012 81.6967 48.8337 81.6967 48.459C81.6967 48.0869 81.9595 47.8216 82.3118 47.8216C82.525 47.8216 82.7011 47.9159 82.8028 48.0818V47.8315H82.9643V48.7717C82.9643 48.9104 83.0336 48.9599 83.118 48.9599C83.2718 48.9599 83.3712 48.7691 83.3712 48.4341C83.3712 47.8513 82.9518 47.4641 82.3514 47.4641C81.7437 47.4641 81.3294 47.8711 81.3294 48.459C81.3294 49.0469 81.7389 49.4587 82.3415 49.4587C82.4905 49.4587 82.674 49.4238 82.8178 49.3497L82.86 49.4711C82.7111 49.5478 82.5078 49.5853 82.3415 49.5853C81.6593 49.5853 81.1929 49.1163 81.1929 48.459C81.1929 47.7992 81.6666 47.3375 82.3514 47.3375C83.0237 47.3375 83.5001 47.7816 83.5001 48.4315Z" fill="#0A1045"/>
<path d="M83.9157 48.3597H84.8408C84.8184 48.1043 84.6327 47.9256 84.3769 47.9256C84.1241 47.9256 83.938 48.1043 83.9157 48.3597ZM85.007 48.4911H83.9157C83.9355 48.7641 84.1439 48.945 84.4291 48.945C84.588 48.945 84.7292 48.8882 84.8283 48.774L84.9278 48.8882C84.8111 49.0269 84.6302 49.1014 84.4243 49.1014C84.0173 49.1014 83.7395 48.8236 83.7395 48.4364C83.7395 48.0496 84.01 47.7744 84.3769 47.7744C84.7443 47.7744 85.0096 48.0449 85.0096 48.4364C85.0096 48.4515 85.007 48.4713 85.007 48.4911Z" fill="#0A1045"/>
<path d="M87.522 48.3325V49.0892H87.3458V48.3498C87.3458 48.0745 87.2071 47.9333 86.9715 47.9333C86.7036 47.9333 86.5348 48.1068 86.5348 48.4045V49.0892H86.3586V48.3498C86.3586 48.0745 86.2196 47.9333 85.9817 47.9333C85.7161 47.9333 85.5447 48.1068 85.5447 48.4045V49.0892H85.3689V47.7843H85.5373V48.0224C85.6291 47.8661 85.7979 47.7744 86.0159 47.7744C86.2317 47.7744 86.4008 47.8661 86.4801 48.0496C86.5744 47.8811 86.7605 47.7744 86.9957 47.7744C87.3135 47.7744 87.522 47.9578 87.522 48.3325Z" fill="#0A1045"/>
<path d="M88.8083 48.6972V48.4836H88.3988C88.1456 48.4836 88.0637 48.583 88.0637 48.717C88.0637 48.8682 88.1856 48.9625 88.394 48.9625C88.5922 48.9625 88.739 48.8682 88.8083 48.6972ZM88.9841 48.2803V49.0891H88.8157V48.8858C88.736 49.0194 88.5826 49.1016 88.3665 49.1016C88.0714 49.1016 87.8901 48.9478 87.8901 48.7217C87.8901 48.521 88.0193 48.3522 88.394 48.3522H88.8083V48.2729C88.8083 48.0494 88.6813 47.928 88.4384 47.928C88.2696 47.928 88.1111 47.9874 88.0043 48.0817L87.925 47.9504C88.0564 47.8388 88.2501 47.7742 88.4556 47.7742C88.7933 47.7742 88.9841 47.943 88.9841 48.2803Z" fill="#0A1045"/>
<path d="M89.4629 47.784H89.6386V49.089H89.4629V47.784ZM89.4229 47.3723C89.4229 47.3055 89.4801 47.2486 89.5517 47.2486C89.6236 47.2486 89.6808 47.3029 89.6808 47.3701C89.6808 47.442 89.6262 47.4989 89.5517 47.4989C89.4801 47.4989 89.4229 47.442 89.4229 47.3723Z" fill="#0A1045"/>
<path d="M90.1292 47.2486H90.3053V49.0894H90.1292V47.2486Z" fill="#0A1045"/>
<path d="M90.6829 48.965C90.6829 48.8883 90.7423 48.8311 90.8139 48.8311C90.8862 48.8311 90.9482 48.8883 90.9482 48.965C90.9482 49.0417 90.8862 49.1016 90.8139 49.1016C90.7423 49.1016 90.6829 49.0417 90.6829 48.965Z" fill="#0A1045"/>
<path d="M91.1536 48.4366C91.1536 48.0472 91.4365 47.7742 91.8259 47.7742C92.0468 47.7742 92.2325 47.8612 92.3371 48.0322L92.2053 48.1217C92.1161 47.99 91.9771 47.928 91.8259 47.928C91.5407 47.928 91.3319 48.1313 91.3319 48.4366C91.3319 48.7441 91.5407 48.9452 91.8259 48.9452C91.9771 48.9452 92.1161 48.8858 92.2053 48.754L92.3371 48.8432C92.2325 49.012 92.0468 49.1016 91.8259 49.1016C91.4365 49.1016 91.1536 48.8263 91.1536 48.4366Z" fill="#0A1045"/>
<path d="M93.676 48.4366C93.676 48.1313 93.4701 47.928 93.1923 47.928C92.9145 47.928 92.7061 48.1313 92.7061 48.4366C92.7061 48.7419 92.9145 48.9452 93.1923 48.9452C93.4701 48.9452 93.676 48.7419 93.676 48.4366ZM92.5273 48.4366C92.5273 48.0494 92.8103 47.7742 93.1923 47.7742C93.5743 47.7742 93.8547 48.0494 93.8547 48.4366C93.8547 48.8238 93.5743 49.1016 93.1923 49.1016C92.8103 49.1016 92.5273 48.8238 92.5273 48.4366Z" fill="#0A1045"/>
<path d="M96.3667 48.3325V49.0892H96.1909V48.3498C96.1909 48.0745 96.0518 47.9333 95.8162 47.9333C95.5483 47.9333 95.3799 48.1068 95.3799 48.4045V49.0892H95.2034V48.3498C95.2034 48.0745 95.0643 47.9333 94.8265 47.9333C94.5608 47.9333 94.3898 48.1068 94.3898 48.4045V49.0892H94.2136V47.7843H94.3824V48.0224C94.4742 47.8661 94.643 47.7744 94.861 47.7744C95.0768 47.7744 95.2456 47.8661 95.3248 48.0496C95.4191 47.8811 95.6052 47.7744 95.8408 47.7744C96.1586 47.7744 96.3667 47.9578 96.3667 48.3325Z" fill="#0A1045"/>
<path d="M67.2974 59.4205L67.6049 59.5941L67.548 59.6983L67.2379 59.5174V59.8693H67.1238L67.1264 59.5174L66.8163 59.6983L66.7568 59.5941L67.0669 59.4205L66.7568 59.2469L66.8163 59.1401L67.1264 59.3236L67.1238 58.9713H67.2379V59.3236L67.548 59.1401L67.6049 59.2469L67.2974 59.4205Z" fill="#0A1045"/>
<path d="M68.304 59.4205L68.6115 59.5941L68.5546 59.6983L68.2445 59.5174V59.8693H68.1304L68.133 59.5174L67.8229 59.6983L67.7634 59.5941L68.0735 59.4205L67.7634 59.2469L67.8229 59.1401L68.133 59.3236L68.1304 58.9713H68.2445V59.3236L68.5546 59.1401L68.6115 59.2469L68.304 59.4205Z" fill="#0A1045"/>
<path d="M69.3108 59.4205L69.6183 59.5941L69.5615 59.6983L69.2514 59.5174V59.8693H69.1372L69.1398 59.5174L68.8297 59.6983L68.7703 59.5941L69.0804 59.4205L68.7703 59.2469L68.8297 59.1401L69.1398 59.3236L69.1372 58.9713H69.2514V59.3236L69.5615 59.1401L69.6183 59.2469L69.3108 59.4205Z" fill="#0A1045"/>
<path d="M70.3174 59.4205L70.6249 59.5941L70.5681 59.6983L70.258 59.5174V59.8693H70.1438L70.1464 59.5174L69.8363 59.6983L69.7769 59.5941L70.087 59.4205L69.7769 59.2469L69.8363 59.1401L70.1464 59.3236L70.1438 58.9713H70.258V59.3236L70.5681 59.1401L70.6249 59.2469L70.3174 59.4205Z" fill="#0A1045"/>
<path d="M71.324 59.4205L71.6315 59.5941L71.5747 59.6983L71.2646 59.5174V59.8693H71.1504L71.153 59.5174L70.8429 59.6983L70.7834 59.5941L71.0935 59.4205L70.7834 59.2469L70.8429 59.1401L71.153 59.3236L71.1504 58.9713H71.2646V59.3236L71.5747 59.1401L71.6315 59.2469L71.324 59.4205Z" fill="#0A1045"/>
<path d="M72.3306 59.4205L72.6381 59.5941L72.5812 59.6983L72.2711 59.5174V59.8693H72.157L72.1596 59.5174L71.8495 59.6983L71.79 59.5941L72.1001 59.4205L71.79 59.2469L71.8495 59.1401L72.1596 59.3236L72.157 58.9713H72.2711V59.3236L72.5812 59.1401L72.6381 59.2469L72.3306 59.4205Z" fill="#0A1045"/>
<path d="M73.3372 59.4205L73.6447 59.5941L73.5878 59.6983L73.2777 59.5174V59.8693H73.1636L73.1662 59.5174L72.8561 59.6983L72.7966 59.5941L73.1067 59.4205L72.7966 59.2469L72.8561 59.1401L73.1662 59.3236L73.1636 58.9713H73.2777V59.3236L73.5878 59.1401L73.6447 59.2469L73.3372 59.4205Z" fill="#0A1045"/>
<path d="M74.344 59.4205L74.6516 59.5941L74.5947 59.6983L74.2846 59.5174V59.8693H74.1704L74.173 59.5174L73.8629 59.6983L73.8035 59.5941L74.1136 59.4205L73.8035 59.2469L73.8629 59.1401L74.173 59.3236L74.1704 58.9713H74.2846V59.3236L74.5947 59.1401L74.6516 59.2469L74.344 59.4205Z" fill="#0A1045"/>
<path d="M75.3506 59.4205L75.6581 59.5941L75.6013 59.6983L75.2912 59.5174V59.8693H75.177L75.1796 59.5174L74.8695 59.6983L74.8101 59.5941L75.1202 59.4205L74.8101 59.2469L74.8695 59.1401L75.1796 59.3236L75.177 58.9713H75.2912V59.3236L75.6013 59.1401L75.6581 59.2469L75.3506 59.4205Z" fill="#0A1045"/>
<path d="M76.3572 59.4205L76.6647 59.5941L76.6079 59.6983L76.2978 59.5174V59.8693H76.1836L76.1862 59.5174L75.8761 59.6983L75.8167 59.5941L76.1267 59.4205L75.8167 59.2469L75.8761 59.1401L76.1862 59.3236L76.1836 58.9713H76.2978V59.3236L76.6079 59.1401L76.6647 59.2469L76.3572 59.4205Z" fill="#0A1045"/>
<path d="M77.364 59.4205L77.6716 59.5941L77.6147 59.6983L77.3046 59.5174V59.8693H77.1905L77.193 59.5174L76.8829 59.6983L76.8235 59.5941L77.1336 59.4205L76.8235 59.2469L76.8829 59.1401L77.193 59.3236L77.1905 58.9713H77.3046V59.3236L77.6147 59.1401L77.6716 59.2469L77.364 59.4205Z" fill="#0A1045"/>
<path d="M66.9465 54.451C66.9465 54.1732 66.7631 54.0143 66.4159 54.0143H65.9542V54.8826H66.4159C66.7631 54.8826 66.9465 54.7241 66.9465 54.451ZM67.13 54.451C67.13 54.8206 66.8621 55.0441 66.4207 55.0441H65.9542V55.592H65.7708V53.8554H66.4207C66.8621 53.8554 67.13 54.0789 67.13 54.451Z" fill="#0A1045"/>
<path d="M68.2855 55.2002V54.9866H67.8759C67.6231 54.9866 67.5413 55.0861 67.5413 55.22C67.5413 55.3712 67.6627 55.4655 67.8712 55.4655C68.0697 55.4655 68.2161 55.3712 68.2855 55.2002ZM68.4616 54.7833V55.5921H68.2928V55.3888C68.2136 55.5224 68.0598 55.6046 67.8436 55.6046C67.5486 55.6046 67.3677 55.4509 67.3677 55.2248C67.3677 55.0241 67.4965 54.8552 67.8712 54.8552H68.2855V54.776C68.2855 54.5525 68.1589 54.431 67.9159 54.431C67.7471 54.431 67.5882 54.4905 67.4818 54.5848L67.4022 54.4534C67.5339 54.3418 67.7273 54.2773 67.9332 54.2773C68.2704 54.2773 68.4616 54.4461 68.4616 54.7833Z" fill="#0A1045"/>
<path d="M68.7588 55.4432L68.8381 55.3045C68.9423 55.3863 69.1184 55.4509 69.3019 55.4509C69.55 55.4509 69.652 55.3665 69.652 55.2373C69.652 54.8975 68.8058 55.1654 68.8058 54.6494C68.8058 54.4362 68.9893 54.2773 69.3217 54.2773C69.4905 54.2773 69.674 54.3247 69.7834 54.3988L69.7063 54.5404C69.5922 54.4608 69.4557 54.4285 69.3217 54.4285C69.0861 54.4285 68.9819 54.5206 68.9819 54.6447C68.9819 54.997 69.8282 54.7313 69.8282 55.2326C69.8282 55.4583 69.6296 55.6043 69.2894 55.6043C69.0737 55.6043 68.8656 55.535 68.7588 55.4432Z" fill="#0A1045"/>
<path d="M69.9712 55.4432L70.0505 55.3045C70.1547 55.3863 70.3308 55.4509 70.5143 55.4509C70.7624 55.4509 70.8644 55.3665 70.8644 55.2373C70.8644 54.8975 70.0182 55.1654 70.0182 54.6494C70.0182 54.4362 70.2017 54.2773 70.5341 54.2773C70.7029 54.2773 70.8864 54.3247 70.9958 54.3988L70.9187 54.5404C70.8046 54.4608 70.6681 54.4285 70.5341 54.4285C70.2985 54.4285 70.1943 54.5206 70.1943 54.6447C70.1943 54.997 71.0406 54.7313 71.0406 55.2326C71.0406 55.4583 70.842 55.6043 70.5022 55.6043C70.2861 55.6043 70.078 55.535 69.9712 55.4432Z" fill="#0A1045"/>
<path d="M73.2551 54.2873L72.7615 55.5923H72.5953L72.1835 54.5229L71.7718 55.5923H71.6055L71.1145 54.2873H71.2829L71.6921 55.396L72.1116 54.2873H72.2628L72.6797 55.396L73.094 54.2873H73.2551Z" fill="#0A1045"/>
<path d="M74.4998 54.9397C74.4998 54.6344 74.294 54.4311 74.0162 54.4311C73.7384 54.4311 73.5299 54.6344 73.5299 54.9397C73.5299 55.245 73.7384 55.4483 74.0162 55.4483C74.294 55.4483 74.4998 55.245 74.4998 54.9397ZM73.3516 54.9397C73.3516 54.5526 73.6341 54.2773 74.0162 54.2773C74.3982 54.2773 74.6786 54.5526 74.6786 54.9397C74.6786 55.3269 74.3982 55.6047 74.0162 55.6047C73.6341 55.6047 73.3516 55.3269 73.3516 54.9397Z" fill="#0A1045"/>
<path d="M75.6951 54.2774V54.4484C75.6801 54.4484 75.6654 54.4458 75.6529 54.4458C75.3802 54.4458 75.2136 54.6198 75.2136 54.9273V55.5923H75.0378V54.2873H75.2063V54.5427C75.2885 54.3691 75.4544 54.2774 75.6951 54.2774Z" fill="#0A1045"/>
<path d="M77.0164 54.9397C77.0164 54.6344 76.8084 54.4311 76.5328 54.4311C76.255 54.4311 76.0465 54.6344 76.0465 54.9397C76.0465 55.245 76.255 55.4483 76.5328 55.4483C76.8084 55.4483 77.0164 55.245 77.0164 54.9397ZM77.1904 53.7514V55.5922H77.0216V55.3342C76.9148 55.5104 76.7335 55.6047 76.5181 55.6047C76.1456 55.6047 75.8682 55.3342 75.8682 54.9397C75.8682 54.5452 76.1456 54.2773 76.5181 54.2773C76.7262 54.2773 76.9049 54.3665 77.0142 54.5353V53.7514H77.1904Z" fill="#0A1045"/>
<path d="M79.7996 68.7494V70.486H79.6208V68.9083H79.2117V68.7494H79.7996Z" fill="#0A1045"/>
<path d="M81.3993 70.3271V70.486H80.1813V70.3594L80.9031 69.6523C81.0991 69.4589 81.1365 69.3422 81.1365 69.2233C81.1365 69.0222 80.9949 68.8981 80.7295 68.8981C80.5262 68.8981 80.3699 68.9601 80.2558 69.0919L80.1292 68.9825C80.2631 68.824 80.4789 68.7344 80.7442 68.7344C81.0965 68.7344 81.32 68.9132 81.32 69.2034C81.32 69.3697 81.2679 69.5183 81.0345 69.7466L80.444 70.3271H81.3993Z" fill="#0A1045"/>
<path d="M82.7707 69.9872C82.7707 70.2775 82.5597 70.5006 82.1406 70.5006C81.8899 70.5006 81.6492 70.414 81.5156 70.2775L81.6022 70.1362C81.7138 70.2529 81.9145 70.3369 82.1406 70.3369C82.4283 70.3369 82.5872 70.203 82.5872 69.9872C82.5872 69.7791 82.4408 69.6426 82.1182 69.6426H81.9942V69.5109L82.4753 68.9083H81.5872V68.7494H82.7035V68.876L82.2125 69.4936C82.5846 69.5134 82.7707 69.7094 82.7707 69.9872Z" fill="#0A1045"/>
<path d="M84.4962 70.0295H84.149V70.486H83.9703V70.0295H82.9905V69.9003L83.9109 68.7495H84.109L83.2209 69.8706H83.9754V69.4688H84.149V69.8706H84.4962V70.0295Z" fill="#0A1045"/>
<path d="M86.4877 69.9749C86.4877 70.2703 86.2815 70.5007 85.8573 70.5007C85.607 70.5007 85.3688 70.4141 85.2349 70.2776L85.3215 70.136C85.4334 70.2527 85.6319 70.3371 85.8547 70.3371C86.1501 70.3371 86.3064 70.1932 86.3064 69.9826C86.3064 69.7591 86.1674 69.6204 85.7259 69.6204H85.3563L85.4455 68.7495H86.3956V68.9081H85.6018L85.5424 69.4615H85.7655C86.2892 69.4615 86.4877 69.6673 86.4877 69.9749Z" fill="#0A1045"/>
<path d="M75.4784 69.9749C75.4784 70.2703 75.2722 70.5007 74.848 70.5007C74.5977 70.5007 74.3595 70.4141 74.2256 70.2776L74.3122 70.136C74.4241 70.2527 74.6227 70.3371 74.8454 70.3371C75.1408 70.3371 75.2972 70.1932 75.2972 69.9826C75.2972 69.7591 75.1581 69.6204 74.7166 69.6204H74.3471L74.4362 68.7495H75.3863V68.9081H74.5926L74.5331 69.4615H74.7562C75.2799 69.4615 75.4784 69.6673 75.4784 69.9749Z" fill="#0A1045"/>
<path d="M87.8413 69.9723C87.8413 69.7441 87.6725 69.5977 87.4046 69.5977C87.1393 69.5977 86.958 69.7617 86.958 69.9775C86.958 70.1683 87.1169 70.3496 87.4171 70.3496C87.6674 70.3496 87.8413 70.2032 87.8413 69.9723ZM88.0171 69.9676C88.0171 70.2924 87.7621 70.5008 87.4245 70.5008C86.9628 70.5008 86.7129 70.1808 86.7129 69.6325C86.7129 69.0421 87.0355 68.7345 87.5063 68.7345C87.6626 68.7345 87.8091 68.7621 87.9184 68.8288L87.8461 68.9727C87.7573 68.9132 87.638 68.8909 87.5092 68.8909C87.1342 68.8909 86.8934 69.1312 86.8934 69.6028C86.8934 69.6424 86.8964 69.692 86.9012 69.7441C86.9881 69.5533 87.1914 69.4465 87.4322 69.4465C87.7768 69.4465 88.0171 69.6501 88.0171 69.9676Z" fill="#0A1045"/>
<path d="M76.8318 69.9723C76.8318 69.7441 76.663 69.5977 76.3951 69.5977C76.1298 69.5977 75.9485 69.7617 75.9485 69.9775C75.9485 70.1683 76.1074 70.3496 76.4076 70.3496C76.6579 70.3496 76.8318 70.2032 76.8318 69.9723ZM77.0076 69.9676C77.0076 70.2924 76.7526 70.5008 76.4149 70.5008C75.9533 70.5008 75.7034 70.1808 75.7034 69.6325C75.7034 69.0421 76.0259 68.7345 76.4968 68.7345C76.6531 68.7345 76.7995 68.7621 76.9089 68.8288L76.8366 68.9727C76.7478 68.9132 76.6285 68.8909 76.4997 68.8909C76.1247 68.8909 75.8839 69.1312 75.8839 69.6028C75.8839 69.6424 75.8869 69.692 75.8916 69.7441C75.9786 69.5533 76.1819 69.4465 76.4226 69.4465C76.7672 69.4465 77.0076 69.6501 77.0076 69.9676Z" fill="#0A1045"/>
<path d="M89.4283 68.7494V68.876L88.7013 70.486H88.5079L89.2221 68.9083H88.3292V69.2331H88.1531V68.7494H89.4283Z" fill="#0A1045"/>
<path d="M78.419 68.7494V68.876L77.6921 70.486H77.4987L78.2128 68.9083H77.3199V69.2331H77.1438V68.7494H78.419Z" fill="#0A1045"/>
<path d="M90.2759 69.5109C90.5464 69.5109 90.7079 69.3895 90.7079 69.2008C90.7079 69.0049 90.5365 68.886 90.2759 68.886C90.0132 68.886 89.8469 69.0049 89.8469 69.1983C89.8469 69.3895 90.0055 69.5109 90.2759 69.5109ZM90.7673 69.9997C90.7673 69.7862 90.5838 69.6522 90.2759 69.6522C89.9684 69.6522 89.7875 69.7862 89.7875 69.9997C89.7875 70.2155 89.9684 70.3495 90.2759 70.3495C90.5838 70.3495 90.7673 70.2155 90.7673 69.9997ZM90.9508 70.0019C90.9508 70.3098 90.6903 70.5007 90.2759 70.5007C89.859 70.5007 89.6062 70.3098 89.6062 70.0019C89.6062 69.7939 89.7251 69.6474 89.9409 69.5755C89.7647 69.5062 89.6686 69.3744 89.6686 69.1935C89.6686 68.9106 89.9086 68.7344 90.2759 68.7344C90.6433 68.7344 90.8888 68.9106 90.8888 69.1935C90.8888 69.3744 90.7893 69.5062 90.611 69.5755C90.829 69.6474 90.9508 69.7961 90.9508 70.0019Z" fill="#0A1045"/>
<path d="M92.8548 69.2579C92.8548 69.0667 92.6958 68.8858 92.396 68.8858C92.1454 68.8858 91.9718 69.0322 91.9718 69.263C91.9718 69.4913 92.1406 69.6374 92.4081 69.6374C92.6738 69.6374 92.8548 69.4737 92.8548 69.2579ZM93.1003 69.6029C93.1003 70.193 92.7781 70.5009 92.3065 70.5009C92.1502 70.5009 92.0041 70.4737 91.8947 70.4065L91.9667 70.2627C92.0558 70.3221 92.1751 70.3445 92.3043 70.3445C92.679 70.3445 92.9193 70.1038 92.9193 69.6326C92.9193 69.593 92.9168 69.543 92.9116 69.4913C92.825 69.6821 92.6217 69.7889 92.381 69.7889C92.0364 69.7889 91.7957 69.5856 91.7957 69.2678C91.7957 68.943 92.0514 68.7346 92.3883 68.7346C92.8496 68.7346 93.1003 69.0546 93.1003 69.6029Z" fill="#0A1045"/>
<path d="M93.8344 68.7494V70.486H93.6556V68.9083H93.2461V68.7494H93.8344Z" fill="#0A1045"/>
<path d="M95.4512 69.6177C95.4512 69.1539 95.2432 68.8984 94.94 68.8984C94.6377 68.8984 94.4292 69.1539 94.4292 69.6177C94.4292 70.0816 94.6377 70.337 94.94 70.337C95.2432 70.337 95.4512 70.0816 95.4512 69.6177ZM94.2483 69.6177C94.2483 69.0647 94.5386 68.7344 94.94 68.7344C95.3419 68.7344 95.6347 69.0647 95.6347 69.6177C95.6347 70.1708 95.3419 70.5007 94.94 70.5007C94.5386 70.5007 94.2483 70.1708 94.2483 69.6177Z" fill="#0A1045"/>
<path d="M96.3659 68.7494V70.486H96.1871V68.9083H95.7776V68.7494H96.3659Z" fill="#0A1045"/>
<path d="M97.9108 68.7494V70.486H97.7321V68.9083H97.3225V68.7494H97.9108Z" fill="#0A1045"/>
<path d="M98.8058 68.7494V70.486H98.6271V68.9083H98.2175V68.7494H98.8058Z" fill="#0A1045"/>
<path d="M100.406 70.3271V70.486H99.1876V70.3594L99.9091 69.6523C100.105 69.4589 100.142 69.3422 100.142 69.2233C100.142 69.0222 100.001 68.8981 99.7359 68.8981C99.5322 68.8981 99.3759 68.9601 99.2621 69.0919L99.1355 68.9825C99.2691 68.824 99.4852 68.7344 99.7506 68.7344C100.103 68.7344 100.326 68.9132 100.326 69.2034C100.326 69.3697 100.274 69.5183 100.041 69.7466L99.4504 70.3271H100.406Z" fill="#0A1045"/>
<path d="M101.109 68.7494V70.486H100.931V68.9083H100.521V68.7494H101.109Z" fill="#0A1045"/>
<path d="M61.1666 97.4684C61.7171 105.928 57.7974 115.348 57.7974 115.348L36.6283 109.387L32.9358 108.346C36.5982 103.246 38.3527 93.2085 37.3957 85.0822C37.3223 84.4686 37.2757 83.8913 37.2456 83.3445C36.8951 76.6428 39.6607 74.6813 42.0155 71.7191C44.5679 68.5135 50.3019 56.4011 50.3019 53.5357C50.3019 50.667 57.4737 43.6552 55.8792 35.6892C55.8792 35.6892 58.0473 34.345 60.229 35.4492C61.2165 35.9494 62.2074 36.9501 63.0015 38.8048C64.8694 43.1711 62.2474 55.5038 60.0158 58.5295L55.7192 76.3191C55.7192 76.3191 57.1669 78.8179 58.5912 83.3544C59.6987 86.8939 60.7897 91.6672 61.1666 97.4684Z" fill="white"/>
<g opacity="0.399994">
<g opacity="0.399994">
<path opacity="0.399994" d="M37.2456 83.3445C38.443 86.6267 39.7175 88.8319 39.6074 93.4485C39.4973 98.0654 37.0353 105.134 37.7392 108.813C37.7392 108.813 37.1821 108.95 36.6283 109.387L32.9358 108.346C36.5982 103.246 38.3531 93.2085 37.3957 85.0821C37.3223 84.4685 37.2757 83.8913 37.2456 83.3445Z" fill="#FFF4D6"/>
</g>
</g>
<g opacity="0.399994">
<g opacity="0.399994">
<path opacity="0.399994" d="M60.0157 58.5294L55.7191 76.3194C55.7191 76.3194 57.1668 78.8177 58.5914 83.3543C58.5877 83.3514 58.5877 83.3477 58.5848 83.3444C55.6791 78.6544 53.2207 77.2632 53.2207 77.2632C55.1587 74.938 56.653 57.9488 56.653 57.9488C56.653 57.9488 62.7276 50.8104 62.1438 43.3417C61.8737 39.9056 61.0465 37.2803 60.2292 35.4491C61.2164 35.9493 62.2072 36.95 63.0014 38.8047C64.8693 43.1714 62.2472 55.5037 60.0157 58.5294Z" fill="#FFF4D6"/>
</g>
</g>
<path d="M32.9348 108.345C36.5995 103.247 38.3521 93.2088 37.3962 85.0828C36.4402 76.9568 39.4674 74.923 42.0171 71.7175C44.5662 68.5123 50.3024 56.4028 50.3024 53.5348C50.3024 50.6669 57.472 43.6562 55.879 35.6895C55.879 35.6895 60.4567 32.8534 63.0016 38.8062C64.8681 43.1725 62.2471 55.5026 60.0163 58.5298L55.7193 76.3194C55.7193 76.3194 60.3051 84.2266 61.166 97.4683C61.7158 105.927 57.7968 115.349 57.7968 115.349" stroke="#0A1045" stroke-width="0.5" stroke-miterlimit="10" stroke-linecap="round" stroke-linejoin="round"/>
<path d="M47.0879 122.117C47.0879 122.117 51.9059 125.085 54.7162 129.774" stroke="#0A1045" stroke-width="0.5" stroke-miterlimit="10" stroke-linecap="round" stroke-linejoin="round"/>
<path d="M60.6216 127.728C60.6216 127.728 56.4707 128.318 52.7198 123.832C50.3154 120.957 43.0162 119.658 41.3354 112.142" stroke="#0A1045" stroke-width="0.5" stroke-miterlimit="10" stroke-linecap="round" stroke-linejoin="round"/>
<g opacity="0.199997">
<g opacity="0.199997">
<g opacity="0.199997">
<g opacity="0.699997">
<g opacity="0.699997">
<path opacity="0.699997" d="M120.942 149.951C110.319 144.869 116.754 140.797 102.137 134.488C87.5199 128.179 87.3713 122.79 89.1346 110.391C90.8986 97.9924 89.4972 84.8124 93.7523 83.6927C98.0074 82.5734 90.4245 65.4763 95.3805 59.4311L119.764 106.859L120.942 149.951Z" fill="#0A1045"/>
</g>
</g>
</g>
</g>
</g>
<path d="M107.074 91.437C108.942 95.3501 110.096 97.6917 110.369 97.9387C110.643 98.1886 110.633 99.44 110.623 100.644C110.61 101.708 110.599 102.849 110.733 103.813C110.279 104.213 107.407 106.828 106.827 108.943L104.385 106.068L103.768 97.0547C104.138 96.6712 106.65 94.019 107.074 91.437ZM160.53 149.457C160.029 148.029 159.523 146.471 159.132 145.06C158.625 143.216 158.228 141.754 157.294 140.053C157.147 139.779 156.988 139.493 156.81 139.186C155.816 137.414 154.455 134.986 153.658 132.007C153.124 129.999 153.648 125.055 154.159 120.272C154.519 116.829 154.859 113.58 154.762 111.739L154.732 111.085C154.482 106.268 153.962 96.2407 152.881 93.4653C151.837 90.7933 150.859 90.3929 149.078 89.6792C148.895 89.5992 148.704 89.5258 148.501 89.4392C147.834 89.1588 146.696 88.5716 145.385 87.8945C142.43 86.3635 138.754 84.4585 136.886 84.2053C134.421 83.878 132.042 84.362 131.649 84.4486C129.347 82.6809 125.43 80.4056 124.266 80.3623C123.309 80.3154 121.227 80.9128 120.22 81.2262C119.987 81.2996 119.806 81.3565 119.716 81.3862C118.876 80.7627 118.172 80.2955 117.715 80.0721C117.665 80.0486 117.618 80.0288 117.578 80.0119C116.284 79.4783 114.326 79.4581 113.259 79.4882C112.935 79.5018 112.685 79.5216 112.568 79.5319C110.556 76.4327 108.572 73.3472 107.711 71.9927C105.913 69.1438 100.345 57.4251 100.289 57.3018C100.276 57.2718 100.252 57.2519 100.215 57.2417C100.215 57.2417 100.199 57.2317 100.165 57.2251C99.7314 57.0985 96.5428 56.2879 95.2613 59.38C93.8605 62.7426 95.862 70.1314 97.8136 72.8132C98.7542 74.1076 101.316 79.3748 103.921 84.8288C103.251 85.4494 97.9101 90.3863 95.3149 91.3071C93.1901 92.0575 93.6869 102.949 94.0873 111.696C94.2374 114.925 94.3644 117.703 94.3277 119.371C94.2539 122.6 100.128 127.05 105.823 131.35C110.97 135.246 116.291 139.273 116.914 142.198C117.088 143.022 117.578 143.689 118.165 144.44C119.146 145.687 120.407 147.158 120.944 149.95C121.101 150.785 122.445 151.879 123.499 153.666H162.084C161.761 152.833 161.154 151.248 160.53 149.457Z" fill="white"/>
<g opacity="0.399994">
<g opacity="0.399994">
<path opacity="0.399994" d="M149.469 116.575C150.374 125.034 150.388 129.621 151.404 132.069C153.119 136.202 155.648 137.039 155.648 137.039C154.917 135.607 154.17 133.922 153.658 132.007C153.124 130 153.648 125.056 154.157 120.272C154.518 116.83 154.86 113.58 154.764 111.737L154.731 111.084C154.481 106.267 153.962 96.2411 152.88 93.4653C151.838 90.7929 150.859 90.3929 149.079 89.6777C148.895 89.5988 148.703 89.5254 148.501 89.4388C147.833 89.1603 146.697 88.5723 145.385 87.8942C142.429 86.3646 138.752 84.4585 136.887 84.2061C134.42 83.8794 132.041 84.3606 131.649 84.4479C129.347 82.6813 125.431 80.4064 124.265 80.3609C123.309 80.3161 120.725 81.0691 119.718 81.3851C124.111 84.9793 130.464 89.4487 130.464 89.4487C135.48 90.4461 134.838 92.6249 136.865 93.8422C138.702 94.9445 140.458 91.7203 141.99 91.4366C144.014 91.0619 146.316 93.2084 146.214 95.7978C145.929 102.973 148.691 109.315 149.469 116.575Z" fill="#FFF4D6"/>
</g>
</g>
<g opacity="0.399994">
<g opacity="0.399994">
<path opacity="0.399994" d="M124.111 90.3622C124.111 90.3622 120.135 87.0664 118.231 85.9493C116.327 84.8322 116.032 81.0516 117.529 80.1305C117.581 80.0982 117.639 80.0787 117.714 80.0732C117.667 80.0501 117.619 80.027 117.577 80.0108C116.282 79.4765 114.327 79.4574 113.259 79.489C115.476 83.5892 117.217 86.735 117.693 87.4231C119.294 89.7387 124.111 90.3622 124.111 90.3622Z" fill="#FFF4D6"/>
</g>
</g>
<g opacity="0.399994">
<g opacity="0.399994">
<path opacity="0.399994" d="M107.074 91.437C108.942 95.35 110.096 97.6917 110.369 97.9387C110.643 98.1886 110.633 99.44 110.623 100.644C110.61 101.708 110.599 102.849 110.733 103.813C110.279 104.213 107.407 106.828 106.827 108.943L104.385 106.068L103.768 97.0546C104.138 96.6712 106.65 94.019 107.074 91.437ZM118.082 141.724C118.249 140.847 116.804 138.279 116.171 137.238C114.726 134.859 97.9806 120.062 100.409 116.112C102.827 112.152 105.049 115.088 106.583 115.342C107.688 115.525 110.71 113.724 110.693 113.573C110.35 110.531 113.158 108.553 113.158 108.553C113.158 108.553 112.898 96.4444 112.254 96.651C111.607 96.8576 103.878 78.4643 103.878 78.4643C103.878 78.4643 95.7119 67.6029 96.1721 62.5357C96.6327 57.4754 100.172 57.3616 100.172 57.3616L100.165 57.2251C99.7314 57.0985 96.5428 56.2879 95.2613 59.38C93.8605 62.7426 95.862 70.1314 97.8136 72.8132C98.7542 74.1076 101.316 79.3748 103.921 84.8288C103.251 85.4494 97.9101 90.3863 95.3149 91.307C93.1901 92.0575 93.6869 102.949 94.0873 111.696C94.2374 114.925 94.3644 117.703 94.3277 119.371C94.2539 122.6 100.128 127.05 105.823 131.35C110.97 135.246 116.291 139.273 116.914 142.198C117.088 143.022 117.578 143.689 118.165 144.44C118.069 143.376 117.995 142.188 118.082 141.724Z" fill="#FFF4D6"/>
</g>
</g>
<path d="M121.818 90.3146C121.818 90.3146 119.367 89.6705 117.692 87.4242C116.016 85.1783 109.429 74.9496 107.603 72.0622C105.777 69.1745 100.173 57.3629 100.173 57.3629C100.173 57.3629 96.7231 56.2084 95.3803 59.4312C94.0375 62.654 95.8768 69.9319 97.919 72.7363C99.9613 75.5411 109.684 97.1447 110.456 97.8438C111.229 98.5422 110.07 104.3 111.615 105.693" stroke="#0A1045" stroke-width="0.5" stroke-miterlimit="10" stroke-linecap="round" stroke-linejoin="round"/>
<path d="M110.875 103.866C110.875 103.866 107.315 106.967 106.897 109.229L104.255 106.121L103.631 97.0056C103.631 97.0056 106.818 93.8133 106.993 90.9707" stroke="#0A1045" stroke-width="0.5" stroke-miterlimit="10" stroke-linecap="round" stroke-linejoin="round"/>
<path d="M104.082 84.8593C104.082 84.8593 98.1704 90.4363 95.3594 91.4322C92.5483 92.4282 94.5968 113.325 94.4574 119.378C94.3183 125.431 115.726 135.969 117.039 142.166C117.561 144.63 119.717 145.133 121.037 149.856" stroke="#0A1045" stroke-width="0.5" stroke-miterlimit="10" stroke-linecap="round" stroke-linejoin="round"/>
<path d="M112.497 79.6665C112.497 79.6665 115.714 79.377 117.527 80.13C119.34 80.883 126.706 87.2094 128.477 88.4185C130.248 89.6277 132.925 90.0835 133.433 91.3852" stroke="#0A1045" stroke-width="0.5" stroke-miterlimit="10" stroke-linecap="round" stroke-linejoin="round"/>
<path d="M119.694 81.5286C119.694 81.5286 123.007 80.435 124.258 80.4897C125.508 80.5447 130.268 83.3543 132.397 85.2237C134.526 87.0931 136.661 88.1265 137.943 88.5936" stroke="#0A1045" stroke-width="0.5" stroke-miterlimit="10" stroke-linecap="round" stroke-linejoin="round"/>
<path d="M131.621 84.5892C131.621 84.5892 134.185 83.9748 136.871 84.3367C139.557 84.6985 146.303 88.6667 148.452 89.5621C150.601 90.4571 151.631 90.6219 152.759 93.5148C153.887 96.4077 154.408 107.402 154.635 111.746C154.862 116.09 152.599 128.536 153.532 132.038C154.464 135.541 156.155 138.239 157.18 140.114" stroke="#0A1045" stroke-width="0.5" stroke-miterlimit="10" stroke-linecap="round" stroke-linejoin="round"/>
<path d="M103.631 97.0055C103.631 97.0055 103.096 94.8645 102.389 94.59" stroke="#0A1045" stroke-width="0.5" stroke-miterlimit="10" stroke-linecap="round" stroke-linejoin="round"/>
<path d="M104.255 106.12C104.255 106.12 104.732 108.507 105.257 109.81C105.782 111.113 104.963 112.997 104.963 112.997" stroke="#0A1045" stroke-width="0.5" stroke-miterlimit="10" stroke-linecap="round" stroke-linejoin="round"/>
<path d="M106.897 109.229C106.81 111.313 108.885 113.749 109.388 113.405" stroke="#0A1045" stroke-width="0.5" stroke-miterlimit="10" stroke-linecap="round" stroke-linejoin="round"/>
<path d="M117.455 97.0055C117.455 97.0055 119.68 93.4029 121.818 93.2267C123.955 93.0509 126.419 96.0814 127.738 95.7978C129.058 95.5141 130.713 93.5746 132.929 93.2194C135.145 92.8638 136.183 93.9306 137.943 94.0183C139.703 94.1067 139.879 91.7581 141.99 91.4366C144.102 91.1151 144.806 92.1863 146.214 92.4425C147.621 92.699 147.975 91.6051 149.117 90.9709" stroke="#0A1045" stroke-width="0.5" stroke-miterlimit="10" stroke-linecap="round" stroke-linejoin="round"/>
</svg>
